<svg xmlns="http://www.w3.org/2000/svg" viewBox="0 0 342.21 267.23"><g id="Layer_2" data-name="Layer 2"><g id="Animation"><g id="LeftStack"><g style="isolation:isolate"><path d="M232.44,116.89l-1,31.09c-16.43-12.58-51.39-17.24-77.92-10.39a74.22,74.22,0,0,0-7.94,2.52c-11.43,4.39-18.31,10.86-18.83,18l1-31.1c.52-7.16,7.4-13.63,18.83-18a74.45,74.45,0,0,1,7.95-2.51C181.06,99.64,216,104.3,232.44,116.89Z" transform="translate(0 -9.15)" style="fill:#8c6239"/><path d="M240.91,131.16l-1,31.09c.16-4.92-2.76-9.9-8.46-14.27l1-31.09C238.14,121.26,241.07,126.23,240.91,131.16Z" transform="translate(0 -9.15)" style="fill:#8c6239"/><polygon points="127.75 117.89 126.75 148.98 126.67 150.08 127.67 118.99 127.75 117.89" style="fill:#8c6239"/><path d="M249.91,131.46l-1,31.09a12.78,12.78,0,0,1-.35,2.67l1-31.09A14.37,14.37,0,0,0,249.91,131.46Z" transform="translate(0 -9.15)" style="fill:#8c6239"/><polygon points="316.54 184.13 315.54 215.22 239.23 156.77 240.24 125.68 316.54 184.13" style="fill:#8c6239"/><path d="M239.9,162.25a11.85,11.85,0,0,1-.46,2.94l1-31.09a12,12,0,0,0,.47-2.94C240.61,140.49,240.21,152.92,239.9,162.25Z" transform="translate(0 -9.15)" style="fill:#f1a463"/><polygon points="240.44 124.95 239.44 156.05 239.23 156.77 240.24 125.68 240.44 124.95" style="fill:#f1a463"/><polygon points="127.67 118.99 126.67 150.08 102.31 156.37 103.32 125.28 127.67 118.99" style="fill:#8c6239"/><polygon points="103.32 125.28 102.31 156.37 100.12 155.86 101.13 124.76 103.32 125.28" style="fill:#8c6239"/><path d="M19.93,186.22l1-31.1a13,13,0,0,1,1.51-5.57c2.7-5.17,8.72-9.64,17.3-12.93a72.62,72.62,0,0,1,8-2.54c16.13-4.17,36.08-4.23,53.37-.17l-1,31.1c-17.28-4.07-37.24-4-53.37.17a75.58,75.58,0,0,0-8,2.53c-8.58,3.3-14.6,7.77-17.29,12.94A13,13,0,0,0,19.93,186.22Z" transform="translate(0 -9.15)" style="fill:#8c6239"/><path d="M19.93,186.22l1-31.1c-.16,4.9,2.73,9.8,8.49,14.21,6.84,5.24,17.37,9.37,29.64,11.63l-1,31.09c-12.28-2.25-22.8-6.38-29.65-11.62C22.66,196,19.78,191.11,19.93,186.22Z" transform="translate(0 -9.15)" style="fill:#f1a463"/><polygon points="60.59 172.08 59.58 203.18 58.07 202.9 59.07 171.81 60.59 172.08" style="fill:#f1a463"/><path d="M10.93,185.94l1-31.1c-.18,5.68,3.16,11.35,9.84,16.47,7.64,5.85,19.26,10.51,32.83,13.18l-1,31.09C40,212.92,28.42,208.26,20.77,202.4,14.1,197.29,10.75,191.61,10.93,185.94Z" transform="translate(0 -9.15)" style="fill:#8c6239"/><polygon points="316.54 184.13 315.54 215.22 135.89 261.63 136.9 230.54 316.54 184.13" style="fill:#f1a463"/><polygon points="136.9 230.54 135.89 261.63 59.58 203.18 60.59 172.08 136.9 230.54" style="fill:#f1a463"/><path d="M39.75,136.62a72.62,72.62,0,0,1,8-2.54c16.13-4.17,36.08-4.23,53.37-.17l2.19.52,24.35-6.29.08-1.11c.52-7.16,7.4-13.63,18.83-18a74.45,74.45,0,0,1,7.95-2.51c26.53-6.86,61.48-2.2,77.91,10.39,6.84,5.24,9.69,11.35,8,17.21l-.2.72,76.3,58.45L136.9,239.68,60.59,181.23,59.07,181c-12.27-2.26-22.8-6.39-29.64-11.63-8-6.09-10.43-13.12-7-19.78C25.15,144.38,31.17,139.91,39.75,136.62Z" transform="translate(0 -9.15)" style="fill:#f1a463"/><path d="M149.79,102.87c30.75-8,71.26-2.54,90.3,12,7.65,5.86,11,12.65,9.47,19.22l79.37,60.8L134,245.29l-79.38-60.8c-13.57-2.67-25.19-7.33-32.83-13.18-9.22-7.07-12.09-15.21-8.08-22.92,3.12-6,10.1-11.18,20.05-15A85,85,0,0,1,43,130.45c18-4.65,40.11-4.89,59.61-.7l16.25-4.19c1.21-7.86,9.06-14.92,21.71-19.78A86.68,86.68,0,0,1,149.79,102.87Zm82.65,14C216,104.3,181.06,99.64,154.53,106.5a74.45,74.45,0,0,0-7.95,2.51c-11.43,4.39-18.31,10.86-18.83,18l-.08,1.11-24.35,6.29-2.19-.52c-17.29-4.06-37.24-4-53.37.17a72.62,72.62,0,0,0-8,2.54c-8.58,3.29-14.6,7.76-17.3,12.93-3.45,6.66-1,13.69,7,19.78,6.84,5.24,17.37,9.37,29.64,11.62l1.52.28,76.31,58.45,179.64-46.41-76.3-58.45.2-.72c1.69-5.86-1.16-12-8-17.21" transform="translate(0 -9.15)" style="fill:#8c6239"/><polygon points="328.93 185.78 327.93 216.88 132.98 267.23 133.99 236.14 328.93 185.78" style="fill:#8c6239"/><polygon points="133.99 236.14 132.98 267.23 53.6 206.43 54.61 175.34 133.99 236.14" style="fill:#8c6239"/></g><g style="isolation:isolate"><path d="M47.06,108.06l3,.43-1.71,8.76-3-.42,1.71-8.73-1.71,8.73h0C45.86,114.2,46.55,110.69,47.06,108.06Z" transform="translate(0 -9.15)" style="fill:#39b54a"/><path d="M273.11,146.81l1.71-8.76c1.84,1,2.33,1.61,3.75,3.54,1.66,2.28,3.95,5.39,10.27,10.43a129.8,129.8,0,0,0,20.73,13.25L307.85,174a130.13,130.13,0,0,1-20.72-13.25c-6.32-5-8.61-8.15-10.27-10.42A9.44,9.44,0,0,0,273.11,146.81Z" transform="translate(0 -9.15)" style="fill:#39b54a"/><path d="M51.55,125l1.72-8.77c33.92,4.53,63.06,5.11,86.67,1.72,2.92-.42,5.77-.9,8.54-1.37,11.51-1.94,21.44-3.61,34-1A39.86,39.86,0,0,1,194.66,120a105.16,105.16,0,0,0,19.69,7.92c16.86,5.06,30.27,5.95,41.05,6.66,10,.66,15,1.08,19.42,3.46l-1.71,8.76c-4.38-2.38-9.39-2.8-19.42-3.46-10.78-.71-24.19-1.59-41.05-6.65A105,105,0,0,1,193,128.77a39.86,39.86,0,0,0-12.16-4.45c-12.58-2.58-22.52-.91-34,1-2.77.46-5.62.94-8.55,1.36C114.61,130.12,85.48,129.54,51.55,125Z" transform="translate(0 -9.15)" style="fill:#39b54a"/><path d="M48.93,116.43l-1.71,8.76h-.06l1.71-8.77Z" transform="translate(0 -9.15)" style="fill:#39b54a"/><path d="M52.39,117.49l-1.71,8.76-3.46-1.06,1.71-8.76Z" transform="translate(0 -9.15)" style="fill:#39b54a"/><path d="M52.39,117.49h0l-1.71,8.76h0Z" transform="translate(0 -9.15)" style="fill:#39b54a"/><path d="M239,154.19a433.33,433.33,0,0,1,52.44,10.19l-1.71,8.77A430.87,430.87,0,0,0,237.25,163Q238.11,158.57,239,154.19Z" transform="translate(0 -9.15)" style="fill:#8cc63f"/><path d="M258.94,169.89l1.71-8.77,30.76,3.26-1.71,8.77Z" transform="translate(0 -9.15)" style="fill:#d9e021"/><path d="M200.42,150.48c15.3,1.64,22.36,1.6,38.55,3.71q-.87,4.38-1.72,8.76c-16.18-2.11-23.25-2.07-38.55-3.71Q199.57,154.86,200.42,150.48Z" transform="translate(0 -9.15)" style="fill:#8cc63f"/><path d="M319.74,174.17,318,182.93a3,3,0,0,0-.06-1.36c-.93-3.56-8.26-6.71-10.12-7.54l1.72-8.76c1.85.83,9.18,4,10.11,7.53A2.91,2.91,0,0,1,319.74,174.17Z" transform="translate(0 -9.15)" style="fill:#39b54a"/><path d="M52.43,117.5c33.13,10,61.65,16.88,83,21.48l-1.71,8.76c-21.33-4.6-49.85-11.45-83-21.48C51.23,123.63,51.92,120.13,52.43,117.5Z" transform="translate(0 -9.15)" style="fill:#8cc63f"/><path d="M135.41,139c25,5.4,41.84,9,65,11.5q-.85,4.38-1.72,8.76c-23.16-2.48-40-6.1-65-11.5Z" transform="translate(0 -9.15)" style="fill:#8cc63f"/><path d="M41,128.65q3.93-6.12,7.89-12.24l-1.71,8.77q-4,6.1-7.9,12.24C39.78,134.79,40.46,131.28,41,128.65Z" transform="translate(0 -9.15)" style="fill:#39b54a"/><path d="M39.26,137.42,41,128.65l3.49.77c40.06,8.77,73.67,14.91,98.86,19.13,36.86,6.18,56.64,8.4,70.87,9.72,19.3,1.78,35.2,2.52,46.46,2.85l-1.71,8.77c-11.26-.34-27.16-1.08-46.46-2.86-14.23-1.31-34-3.53-70.87-9.71-25.19-4.22-58.8-10.37-98.86-19.14Z" transform="translate(0 -9.15)" style="fill:#d9e021"/><polygon points="30.35 120.56 32.06 111.79 41.23 98.08 39.51 106.84 30.35 120.56" style="fill:#39b54a"/><polygon points="40.92 131.78 42.63 123.02 44.46 120.27 42.75 129.03 40.92 131.78" style="fill:#39b54a"/><path d="M314.41,178.29a30.35,30.35,0,0,1-8,1.14,145.28,145.28,0,0,0-31.95-3.91,71.55,71.55,0,0,0-21.61,2.92,33.87,33.87,0,0,1-11.9,1.67c-6.68-.24-10.7-1.8-17.37-4.37a123.61,123.61,0,0,0-30.41-8.24,91.45,91.45,0,0,0-26.33-.19A47.09,47.09,0,0,1,151,167.2c-9.73-1.63-15.43-4.65-24-9.22a210.9,210.9,0,0,0-22.66-10.72c-17.62-7-38.33-12-61.69-15.09l1.83-2.75c40.06,8.77,73.67,14.91,98.86,19.13,36.86,6.18,56.64,8.4,70.87,9.72,19.3,1.78,35.2,2.52,46.46,2.85l30.76,3.26A433.33,433.33,0,0,0,239,154.19c-16.19-2.11-23.25-2.07-38.55-3.71-23.17-2.48-40-6.1-65-11.5-21.33-4.6-49.85-11.46-83-21.48l.84-1.26c33.92,4.53,63.06,5.11,86.67,1.72,2.92-.42,5.77-.9,8.54-1.37,11.51-1.94,21.44-3.62,34-1A39.86,39.86,0,0,1,194.66,120a105.16,105.16,0,0,0,19.69,7.92c16.86,5.06,30.27,5.95,41.05,6.66,10,.66,15,1.08,19.42,3.46,1.84,1,2.33,1.61,3.75,3.54,1.66,2.28,3.95,5.39,10.27,10.43a130.44,130.44,0,0,0,21.75,13.73c.83.35,8.16,3.5,9.09,7.05C320.3,175.15,318.23,177.12,314.41,178.29Z" transform="translate(0 -9.15)" style="fill:#8cc63f"/><path d="M51.92,120.12c.09-.45.17-.89.25-1.32Zm0,.18-1.16,6h0C51.06,124.49,51.49,122.33,51.88,120.3ZM53,117.67l.28-1.43-.84,1.26Z" transform="translate(0 -9.15)" style="fill:#39b54a"/><path d="M314.41,178.29c3-.93,5-2.38,5.33-4.12L318,182.94c-.34,1.74-2.28,3.18-5.33,4.11C313.21,184.42,313.9,180.92,314.41,178.29Z" transform="translate(0 -9.15)" style="fill:#8cc63f"/><path d="M304.74,188.19l1.71-8.76a30.35,30.35,0,0,0,8-1.14l-1.71,8.76A29.93,29.93,0,0,1,304.74,188.19Z" transform="translate(0 -9.15)" style="fill:#8cc63f"/><path d="M335.45,177.17l-1.72,8.76c-.67,3.45-4.33,6.28-10.07,8a40.93,40.93,0,0,1-4.72,1.12,60.87,60.87,0,0,1-11.25.82l1.71-8.76a60.83,60.83,0,0,0,11.25-.83,40.49,40.49,0,0,0,4.72-1.11C331.11,183.44,334.77,180.62,335.45,177.17Z" transform="translate(0 -9.15)" style="fill:#39b54a"/><path d="M40.92,140.93l1.71-8.76c23.36,3,44.07,8.11,61.69,15.09A210.9,210.9,0,0,1,127,158c8.62,4.57,14.32,7.59,24,9.22a47.09,47.09,0,0,0,15.85.11,91.45,91.45,0,0,1,26.33.19,123.61,123.61,0,0,1,30.41,8.24c6.67,2.57,10.69,4.13,17.37,4.37a33.87,33.87,0,0,0,11.9-1.67,71.55,71.55,0,0,1,21.61-2.92,145.28,145.28,0,0,1,31.95,3.91l-1.71,8.76a144.65,144.65,0,0,0-32-3.9,71,71,0,0,0-21.61,2.92,33.79,33.79,0,0,1-11.89,1.66c-6.68-.24-10.71-1.79-17.37-4.37a123.68,123.68,0,0,0-30.41-8.23,90.72,90.72,0,0,0-26.33-.19,47.38,47.38,0,0,1-15.85-.12c-9.73-1.63-15.43-4.65-24-9.22A210.46,210.46,0,0,0,102.6,156C85,149,64.28,144,40.92,140.93Z" transform="translate(0 -9.15)" style="fill:#8cc63f"/><polygon points="305.84 186.73 307.55 177.97 309.4 177.99 307.69 186.76 305.84 186.73" style="fill:#39b54a"/><path d="M304,195.43l1.71-8.77a93.28,93.28,0,0,0,10.6,7.83l-1.71,8.77A93.59,93.59,0,0,1,304,195.43Z" transform="translate(0 -9.15)" style="fill:#39b54a"/><path d="M291.41,164.38l-30.76-3.26c-11.26-.33-27.16-1.07-46.46-2.85-14.23-1.32-34-3.54-70.87-9.72-25.19-4.22-58.8-10.36-98.86-19.13L41,128.65l7.9-12.24,3.56,1.09c33.13,10,61.65,16.88,83,21.48,25,5.4,41.84,9,65,11.5,15.3,1.64,22.36,1.6,38.55,3.71A433.33,433.33,0,0,1,291.41,164.38Z" transform="translate(0 -9.15)" style="fill:#d9e021"/><path d="M31.19,147.16l1.72-8.76q12.51,1.23,23.88,3.24a207.12,207.12,0,0,1,40.23,11,183.93,183.93,0,0,1,20,9.51c2.07,1.1,4.12,2.18,6.21,3.23a89.91,89.91,0,0,0,26,8.85l1.3.23a75.59,75.59,0,0,0,24.31.41,62.77,62.77,0,0,1,18.87,0c10.13,1.4,16.28,3.78,22.8,6.3,7.48,2.89,16,6.16,28.33,6.61a54.5,54.5,0,0,0,18.7-2.34,51.16,51.16,0,0,1,15.85-2.23,113,113,0,0,1,25.74,3.32l-1.72,8.76A113.39,113.39,0,0,0,277.74,192a51.47,51.47,0,0,0-15.85,2.23,54.54,54.54,0,0,1-18.7,2.34c-12.38-.44-20.86-3.72-28.33-6.61-6.52-2.52-12.67-4.89-22.8-6.29a62.57,62.57,0,0,0-18.88,0,75.23,75.23,0,0,1-24.3-.41l-1.3-.22a90.2,90.2,0,0,1-26-8.86c-2.09-1.05-4.14-2.13-6.21-3.23a183.93,183.93,0,0,0-20-9.51,208,208,0,0,0-40.23-11Q43.72,148.39,31.19,147.16Z" transform="translate(0 -9.15)" style="fill:#39b54a"/><path d="M326.39,205.23,324.68,214a3.81,3.81,0,0,0,0-1.5c-.89-4.2-8.45-8.32-9.31-8.78l1.71-8.77c.86.46,8.42,4.59,9.31,8.79A3.76,3.76,0,0,1,326.39,205.23Z" transform="translate(0 -9.15)" style="fill:#39b54a"/><path d="M322,208.94c2.48-.76,4-2,4.37-3.71L324.67,214c-.32,1.66-1.88,2.95-4.36,3.7C320.83,215.07,321.51,211.57,322,208.94Z" transform="translate(0 -9.15)" style="fill:#009245"/><path d="M315.21,209.69a21.7,21.7,0,0,0,6.81-.75l-1.71,8.76a21.67,21.67,0,0,1-6.81.76C314,215.83,314.7,212.32,315.21,209.69Z" transform="translate(0 -9.15)" style="fill:#009245"/><path d="M342.09,208.31l-1.71,8.76c-.66,3.37-3.9,6-9,7.54l1.71-8.76C338.19,214.3,341.43,211.67,342.09,208.31Z" transform="translate(0 -9.15)" style="fill:#39b54a"/><polygon points="314.55 194.11 316.26 185.34 316.64 185.58 314.93 194.35 314.55 194.11" style="fill:#39b54a"/><polygon points="314.93 194.35 316.64 185.58 317.05 185.81 315.34 194.57 314.93 194.35" style="fill:#39b54a"/><path d="M283.82,203.44a112.86,112.86,0,0,1,31.39,6.25l-1.71,8.77a112.14,112.14,0,0,0-31.39-6.25,67.24,67.24,0,0,0-16,1.16c-3.32.59-4.76.81-7.31.42h0c-3.06-.46-4.52-1.32-8.28-3.7a65.38,65.38,0,0,0-21-9.19c-7.11-1.81-16.74-2.66-37.83-4.52l-6.69-.56a57.9,57.9,0,0,1-6.8-.76,90.26,90.26,0,0,1-23.68-8.15,76.58,76.58,0,0,1-6.87-3.93l1.71-8.76h0a75.38,75.38,0,0,0,6.88,3.94,90.64,90.64,0,0,0,23.67,8.15,60.21,60.21,0,0,0,6.8.76c1.69.13,3.82.31,6.69.56,21.1,1.86,30.72,2.71,37.83,4.52a65.38,65.38,0,0,1,21,9.19c3.76,2.38,5.22,3.23,8.28,3.7,2.56.39,4,.16,7.32-.42A67,67,0,0,1,283.82,203.44Z" transform="translate(0 -9.15)" style="fill:#009245"/><path d="M333.13,215.85c-4.56,1.39-10.59,1.91-17.55,1.33l-2.27-.2-2.1-.75q-4.54-1.64-8.84-2.76a70.67,70.67,0,0,0-14.8-2.35l-1,0A43.55,43.55,0,0,0,277,212a45.18,45.18,0,0,1-16.41.38,47.82,47.82,0,0,1-10.17-2.64,44.9,44.9,0,0,1-7-3.47c-.9-.54-1.74-1.07-2.54-1.58a40.78,40.78,0,0,0-9.72-4.92c-1-.34-2.11-.66-3.33-1-2.64-.68-7.55-1.28-14.92-2-4.75-.46-10.51-1-17.34-1.57l-6.44-.54A89.23,89.23,0,0,1,179,193.47a122.33,122.33,0,0,1-32.39-11,80.74,80.74,0,0,1-22-15.83c-.48-.47-.92-.91-1.33-1.3a89.91,89.91,0,0,0,26,8.85,75.38,75.38,0,0,0,6.88,3.94,90.64,90.64,0,0,0,23.67,8.15,60.21,60.21,0,0,0,6.8.76c1.69.13,3.82.31,6.69.56,21.1,1.86,30.72,2.71,37.83,4.52a65.38,65.38,0,0,1,21,9.19c3.76,2.38,5.22,3.23,8.28,3.7,2.56.39,4,.16,7.32-.42a67,67,0,0,1,16-1.17,112.86,112.86,0,0,1,31.39,6.25,21.7,21.7,0,0,0,6.81-.75c3.17-1,4.85-2.8,4.34-5.2-.89-4.2-8.45-8.33-9.31-8.79l-.41-.22-.38-.24a93.28,93.28,0,0,1-10.6-7.83l1.89.45,1.85,0a60.83,60.83,0,0,0,11.25-.83c2.15,1.61,4.42,3.19,6.79,4.75,3.61,2,13.2,7.75,14.6,14.37C343.05,210.18,339.56,213.88,333.13,215.85Z" transform="translate(0 -9.15)" style="fill:#39b54a"/><polygon points="307.55 177.97 305.19 177.4 303.47 186.16 305.84 186.73 307.55 177.97" style="fill:#39b54a"/><path d="M302.37,213.47q4.29,1.13,8.84,2.76L309.5,225q-4.54-1.63-8.84-2.75a70.12,70.12,0,0,0-14.8-2.35h0l-1,0a44.2,44.2,0,0,0-9.63.87,45,45,0,0,1-16.41.38,47.82,47.82,0,0,1-10.17-2.64,44,44,0,0,1-7-3.47c-.9-.54-1.74-1.07-2.54-1.58a41.15,41.15,0,0,0-9.72-4.91c-1-.34-2.11-.67-3.33-1-2.64-.67-7.56-1.28-14.92-2-4.75-.47-10.51-1-17.35-1.58l-6.43-.54a89.23,89.23,0,0,1-10.12-1.19,122,122,0,0,1-32.39-11,80.74,80.74,0,0,1-22-15.83l-1.33-1.3,1.71-8.76c.41.39.85.83,1.33,1.3a80.74,80.74,0,0,0,22,15.83,122.33,122.33,0,0,0,32.39,11,89.23,89.23,0,0,0,10.12,1.19l6.44.54c6.83.6,12.59,1.11,17.34,1.57,7.37.72,12.28,1.32,14.92,2,1.22.31,2.32.63,3.33,1a40.78,40.78,0,0,1,9.72,4.92c.8.51,1.64,1,2.54,1.58a44.9,44.9,0,0,0,7,3.47,47.82,47.82,0,0,0,10.17,2.64A45.18,45.18,0,0,0,277,212a43.55,43.55,0,0,1,9.64-.88l1,0A70.67,70.67,0,0,1,302.37,213.47Z" transform="translate(0 -9.15)" style="fill:#39b54a"/><path d="M90.05,162.18q-.85,4.38-1.72,8.77A217.91,217.91,0,0,0,55.08,150.4l1.71-8.76A219.35,219.35,0,0,1,90.05,162.18Z" transform="translate(0 -9.15)" style="fill:#8cc63f"/><path d="M286.48,212.08l-1.71,8.77a5.81,5.81,0,0,0,.12-1l1.72-8.77A6.71,6.71,0,0,1,286.48,212.08Z" transform="translate(0 -9.15)" style="fill:#39b54a"/><path d="M286.08,213.43a7.67,7.67,0,0,0,.4-1.35l-1.71,8.77a8.21,8.21,0,0,1-.4,1.35C284.88,219.57,285.31,216,286.08,213.43Z" transform="translate(0 -9.15)" style="fill:#8cc63f"/><path d="M110.32,182l-1.71,8.76c-.77-.87-1.53-1.77-2.31-2.67-1.42-1.64-2.87-3.33-4.43-5A110.43,110.43,0,0,0,88.33,171q.87-4.39,1.72-8.77a112.72,112.72,0,0,1,13.53,12.13c1.56,1.68,3,3.38,4.43,5C108.79,180.23,109.55,181.12,110.32,182Z" transform="translate(0 -9.15)" style="fill:#8cc63f"/><path d="M229.44,208.51l1.71-8.77,3.27,2-1.71,8.77C231.68,209.89,230.59,209.21,229.44,208.51Z" transform="translate(0 -9.15)" style="fill:#8cc63f"/><path d="M232.71,210.54l1.71-8.77,9,4.47L241.7,215Z" transform="translate(0 -9.15)" style="fill:#8cc63f"/><path d="M322,208.94a21.7,21.7,0,0,1-6.81.75,112.86,112.86,0,0,0-31.39-6.25,67,67,0,0,0-16,1.17c-3.32.58-4.76.81-7.32.42-3.06-.47-4.52-1.32-8.28-3.7a65.38,65.38,0,0,0-21-9.19c-7.11-1.81-16.73-2.66-37.83-4.52-2.87-.25-5-.43-6.69-.56a60.21,60.21,0,0,1-6.8-.76,90.64,90.64,0,0,1-23.67-8.15,75.38,75.38,0,0,1-6.88-3.94l1.3.23a75.59,75.59,0,0,0,24.31.41,62.77,62.77,0,0,1,18.87,0c10.13,1.4,16.28,3.78,22.8,6.3,7.48,2.89,16,6.16,28.33,6.61a54.76,54.76,0,0,0,18.7-2.34,51.16,51.16,0,0,1,15.85-2.23,113,113,0,0,1,25.74,3.32c3.4,2.7,7.11,5.36,11.07,7.94l.38.24.41.22c.86.46,8.42,4.59,9.31,8.79C326.87,206.14,325.19,208,322,208.94Z" transform="translate(0 -9.15)" style="fill:#009245"/><path d="M248.68,218.47l1.71-8.76,8.92,4.43-1.71,8.76Z" transform="translate(0 -9.15)" style="fill:#8cc63f"/><path d="M212.9,196.77a376.17,376.17,0,0,0,46.41,17.37l-1.71,8.76a375.85,375.85,0,0,1-46.41-17.36C211.71,202.91,212.39,199.4,212.9,196.77Z" transform="translate(0 -9.15)" style="fill:#d9e021"/><path d="M286.08,213.43l-1.71,8.77c-1.59,3.92-6.36,6.18-10.5,7.45a42.3,42.3,0,0,1-4.58,1.11L271,222a40.06,40.06,0,0,0,4.58-1.11C279.72,219.62,284.49,217.35,286.08,213.43Z" transform="translate(0 -9.15)" style="fill:#8cc63f"/><path d="M152.22,199.9l-1.71,8.77c-3.24-.48-6-.76-8.47-1s-4.53-.44-6.57-.82l1.71-8.76c2,.37,4,.57,6.57.82S149,199.42,152.22,199.9Z" transform="translate(0 -9.15)" style="fill:#8cc63f"/><path d="M130.46,196.21a39.92,39.92,0,0,0,6.72,1.88l-1.71,8.76a39.8,39.8,0,0,1-6.72-1.87c-10-3.63-15.14-8.54-20.14-14.22l1.71-8.76C115.32,187.68,120.46,192.58,130.46,196.21Z" transform="translate(0 -9.15)" style="fill:#8cc63f"/><path d="M246.43,221.38A211.35,211.35,0,0,1,271,222l-1.71,8.77a211.47,211.47,0,0,0-24.58-.61Q245.57,225.77,246.43,221.38Z" transform="translate(0 -9.15)" style="fill:#8cc63f"/><path d="M246.43,221.38q-.87,4.4-1.72,8.77l-2.4.1-2.83.16,1.71-8.76,2.83-.16Z" transform="translate(0 -9.15)" style="fill:#8cc63f"/><path d="M200.76,217.1l-1.71,8.76a135.15,135.15,0,0,0-34.7-14.32,125.43,125.43,0,0,0-13.84-2.87l1.71-8.77a130.9,130.9,0,0,1,13.85,2.87A135.16,135.16,0,0,1,200.76,217.1Z" transform="translate(0 -9.15)" style="fill:#8cc63f"/><path d="M202.55,218.1l-1.71,8.76-.76-.42-1-.58,1.71-8.76,1,.58Z" transform="translate(0 -9.15)" style="fill:#8cc63f"/><path d="M241.19,221.65l-1.71,8.76a95.92,95.92,0,0,0-15.35,2.11l1.71-8.76A95.92,95.92,0,0,1,241.19,221.65Z" transform="translate(0 -9.15)" style="fill:#8cc63f"/><path d="M225.84,223.76l-1.71,8.76-.33.08-.43.09,1.71-8.77.43-.09Z" transform="translate(0 -9.15)" style="fill:#8cc63f"/><path d="M225.08,223.92l-1.71,8.77a17.36,17.36,0,0,1-6,.57c-5.44-.4-9.31-2.37-16.49-6.4q.75-3.81,1.49-7.64l.12-.6.05-.23a2.93,2.93,0,0,0,.05-.29c7.18,4,11,6,16.49,6.4h0A17.38,17.38,0,0,0,225.08,223.92Z" transform="translate(0 -9.15)" style="fill:#8cc63f"/><path d="M301.6,217.11c-2.29,5.64-9.12,8.89-15,10.69a59.27,59.27,0,0,1-8.32,1.87l-1.47.22-1.73-.16a181.89,181.89,0,0,0-24.72-.57,80.49,80.49,0,0,0-15,1.91,41.59,41.59,0,0,1-13.64,1.05c-13.29-1-21.93-5.86-30.3-10.56-7.63-4.28-15.52-8.72-28.88-12.21a94.2,94.2,0,0,0-16.86-2.89A79.69,79.69,0,0,1,124,201.88c-16.93-6.15-24-14.42-30.31-21.72-1.41-1.64-2.74-3.18-4.17-4.72-11.67-12.52-31.33-25-58.45-37.22l1.85.18q12.51,1.23,23.88,3.24c20.8,10.69,36.49,21.64,46.79,32.67,1.56,1.68,3,3.38,4.43,5,5.85,6.82,10.91,12.71,22.45,16.89,5.23,1.91,8.26,2.21,13.29,2.7a129.46,129.46,0,0,1,22.32,3.86c17.21,4.51,27.47,10.27,35.72,14.91,7.68,4.31,11.62,6.4,17.25,6.82a18.29,18.29,0,0,0,6.47-.67A100,100,0,0,1,244,221.49a208.55,208.55,0,0,1,27,.5,40.06,40.06,0,0,0,4.58-1.11c4.14-1.26,8.91-3.53,10.5-7.45a7.39,7.39,0,0,0,.53-2.34l1,0a70.67,70.67,0,0,1,14.8,2.35A10.47,10.47,0,0,1,301.6,217.11Z" transform="translate(0 -9.15)" style="fill:#39b54a"/><polygon points="47.06 98.92 41.23 98.08 39.51 106.84 45.35 107.68 47.06 98.92" style="fill:#39b54a"/><path d="M41.23,107.23l-9.17,13.71,10-16.12L50,108.49l-3-.43Z" transform="translate(0 -9.15)" style="fill:#39b54a"/><path d="M29.35,147l1.71-8.76c27.12,12.19,46.78,24.7,58.45,37.22,1.43,1.54,2.76,3.08,4.17,4.72,6.27,7.3,13.38,15.57,30.31,21.72a79.69,79.69,0,0,0,21.66,4.58,94.2,94.2,0,0,1,16.86,2.89c13.36,3.49,21.25,7.93,28.88,12.21,8.37,4.7,17,9.56,30.3,10.56a41.59,41.59,0,0,0,13.64-1.05,80.49,80.49,0,0,1,15-1.91,181.89,181.89,0,0,1,24.72.57l-1.71,8.77a180.41,180.41,0,0,0-24.72-.58,80.49,80.49,0,0,0-15,1.91,41.59,41.59,0,0,1-13.64,1c-13.29-1-21.93-5.86-30.3-10.55-7.63-4.29-15.52-8.72-28.88-12.22a96.2,96.2,0,0,0-16.86-2.89,80,80,0,0,1-21.66-4.57c-16.93-6.15-24-14.42-30.31-21.72-1.41-1.64-2.74-3.19-4.18-4.73C76.12,171.69,56.47,159.17,29.35,147Z" transform="translate(0 -9.15)" style="fill:#39b54a"/><polygon points="29.35 137.83 31.06 129.07 32.91 129.25 31.2 138.01 29.35 137.83" style="fill:#39b54a"/><polygon points="19.46 136.86 21.18 128.09 31.06 129.07 29.35 137.83 19.46 136.86" style="fill:#39b54a"/><path d="M313.87,225.94l1.71-8.76c7,.58,13,.06,17.55-1.33l-1.71,8.76A47.87,47.87,0,0,1,313.87,225.94Z" transform="translate(0 -9.15)" style="fill:#39b54a"/><polygon points="311.6 216.6 313.31 207.84 315.58 208.03 313.87 216.79 311.6 216.6" style="fill:#39b54a"/><polygon points="309.5 215.84 311.21 207.08 313.31 207.84 311.6 216.6 309.5 215.84" style="fill:#39b54a"/><path d="M302.18,215.15l-1.71,8.76a10.62,10.62,0,0,1-.58,2l1.71-8.76A9.9,9.9,0,0,0,302.18,215.15Z" transform="translate(0 -9.15)" style="fill:#39b54a"/><path d="M243.41,206.24l-9-4.47-3.27-2a40.78,40.78,0,0,1,9.72,4.92C241.67,205.17,242.51,205.7,243.41,206.24Z" transform="translate(0 -9.15)" style="fill:#8cc63f"/><path d="M259.31,214.14a376.17,376.17,0,0,1-46.41-17.37c7.37.72,12.28,1.32,14.92,2,1.22.31,2.32.63,3.33,1l3.27,2,9,4.47a44.9,44.9,0,0,0,7,3.47Z" transform="translate(0 -9.15)" style="fill:#d9e021"/><path d="M276.57,238.43l1.71-8.76a59.27,59.27,0,0,0,8.32-1.87c5.88-1.8,12.71-5.05,15-10.69l-1.71,8.76c-2.29,5.65-9.12,8.89-15,10.69A59.27,59.27,0,0,1,276.57,238.43Z" transform="translate(0 -9.15)" style="fill:#39b54a"/><polygon points="275.1 229.5 276.81 220.74 278.28 220.52 276.57 229.28 275.1 229.5" style="fill:#39b54a"/><polygon points="273.37 229.35 275.08 220.58 276.81 220.74 275.1 229.5 273.37 229.35" style="fill:#39b54a"/><path d="M286.08,213.43c-1.59,3.92-6.36,6.19-10.5,7.45A40.06,40.06,0,0,1,271,222a208.55,208.55,0,0,0-27-.5,100,100,0,0,0-18.51,2.34,18.29,18.29,0,0,1-6.47.67c-5.63-.42-9.57-2.51-17.25-6.82-8.25-4.64-18.51-10.4-35.72-14.91a129.46,129.46,0,0,0-22.32-3.86c-5-.49-8.06-.79-13.29-2.7-11.54-4.19-16.6-10.07-22.45-16.89-1.41-1.63-2.87-3.33-4.43-5-10.3-11-26-22-46.79-32.67a207.12,207.12,0,0,1,40.23,11,183.93,183.93,0,0,1,20,9.51c2.07,1.1,4.12,2.18,6.21,3.23.41.39.85.83,1.33,1.3a80.74,80.74,0,0,0,22,15.83,122.33,122.33,0,0,0,32.39,11,89.23,89.23,0,0,0,10.12,1.19l6.44.54c6.83.6,12.59,1.11,17.34,1.57a376.17,376.17,0,0,0,46.41,17.37l-8.92-4.43a47.82,47.82,0,0,0,10.17,2.64A45.18,45.18,0,0,0,277,212a43.55,43.55,0,0,1,9.64-.88A7.39,7.39,0,0,1,286.08,213.43Z" transform="translate(0 -9.15)" style="fill:#8cc63f"/></g><g style="isolation:isolate"><path d="M103.59,179.43l-2.77-19.37c.87-.42,1.89-.86,3.07-1.32.69-.27,1.41-.52,2.14-.78a148.76,148.76,0,0,1,22.78-5.32L131.58,172a148.76,148.76,0,0,0-22.78,5.32c-.73.25-1.45.51-2.14.78C105.48,178.58,104.46,179,103.59,179.43Z" transform="translate(0 -9.15)" style="fill:#39b54a"/><path d="M89.8,179.69,87,160.31a95.84,95.84,0,0,0,12.82-.18l1-.07,2.77,19.37-1,.08A95.84,95.84,0,0,1,89.8,179.69Z" transform="translate(0 -9.15)" style="fill:#39b54a"/><path d="M100.82,160.06c4.23-.36,7.5-.88,11-1.42q1.38,9.69,2.77,19.38c-3.45.54-6.72,1.06-11,1.41Z" transform="translate(0 -9.15)" style="fill:#8cc63f"/><path d="M132,176.21q-1.06-7.36-2.11-14.71,1.05,7.35,2.11,14.71Z" transform="translate(0 -9.15)" style="fill:#8cc63f"/><path d="M252.73,156.11l2.77,19.38c-.21-1.47-1.65-2.64-5.93-3.29-3.38-.51-6.2-.38-10.89-.15a169.09,169.09,0,0,1-19,.09c-13-.75-17.41-2.86-20.95-4.56-3.3-1.57-5.12-2.32-10.52-2a62.55,62.55,0,0,0-7.44,1c-4.62.78-10.95,1.84-21.75,3.08-9.32,1.06-18.55,1.85-27.46,2.36l-2.77-19.38c8.91-.5,18.14-1.3,27.46-2.36C167.07,149,173.4,148,178,147.2a60,60,0,0,1,7.44-1c5.4-.33,7.22.42,10.52,2,3.54,1.69,8,3.8,21,4.55a169.09,169.09,0,0,0,19-.09c4.68-.23,7.51-.36,10.88.15C251.07,153.48,252.52,154.64,252.73,156.11Z" transform="translate(0 -9.15)" style="fill:#39b54a"/><path d="M135.21,175.12l-2.77-19.38c8.09.76,19.47,2.14,29.38,4.85L164.59,180C154.69,177.26,143.3,175.87,135.21,175.12Z" transform="translate(0 -9.15)" style="fill:#8cc63f"/><path d="M132.44,155.74l4.45,1.52,2.77,19.38-4.45-1.52C134.38,169.31,133.27,161.56,132.44,155.74Z" transform="translate(0 -9.15)" style="fill:#d9e021"/><path d="M136.89,157.26q1.38,9.69,2.77,19.38a40.55,40.55,0,0,0-7.67-.43q-1.38-9.69-2.78-19.37,1.39,9.67,2.78,19.37A122.47,122.47,0,0,0,114.54,178q-1.4-9.69-2.77-19.38a123.94,123.94,0,0,1,17.45-1.81A40.55,40.55,0,0,1,136.89,157.26Z" transform="translate(0 -9.15)" style="fill:#8cc63f"/><path d="M52.71,189.43l-2.77-19.38c-.09-.59.29-1.31,1.65-2.13A18.28,18.28,0,0,1,55,166.41a64.27,64.27,0,0,1,14.61-2.8L72.38,183a64.27,64.27,0,0,0-14.61,2.8,18.28,18.28,0,0,0-3.41,1.51C53,188.12,52.62,188.84,52.71,189.43Z" transform="translate(0 -9.15)" style="fill:#39b54a"/><path d="M136.89,157.26a10.21,10.21,0,0,1,3.51,1.2l2.77,19.38a10.21,10.21,0,0,0-3.51-1.2C138.83,170.82,137.72,163.07,136.89,157.26Z" transform="translate(0 -9.15)" style="fill:#d9e021"/><path d="M49.94,170.05c.14,1,1.55,1.6,1.8,1.7l2.77,19.38c-.25-.1-1.66-.72-1.8-1.7C51.88,183.61,50.77,175.86,49.94,170.05Z" transform="translate(0 -9.15)" style="fill:#009245"/><polygon points="54.51 181.98 51.74 162.6 51.94 162.68 54.71 182.06 54.51 181.98" style="fill:#009245"/><path d="M140.4,158.46l4.5,1.53,2.77,19.38-4.5-1.53C142.34,172,141.23,164.27,140.4,158.46Z" transform="translate(0 -9.15)" style="fill:#d9e021"/><path d="M140.4,158.46a10.51,10.51,0,0,1,.92.6q1.4,9.69,2.77,19.38a10.51,10.51,0,0,0-.92-.6l-1.38-9.68Q141.08,163.3,140.4,158.46Z" transform="translate(0 -9.15)" style="fill:#8cc63f"/><polygon points="54.71 182.06 51.94 162.68 52.06 162.78 54.83 182.16 54.71 182.06" style="fill:#009245"/><path d="M36.85,191.7l-2.77-19.38c.18,1.29,1.75,2.16,2.65,2.56l2.77,19.37C38.6,193.86,37,193,36.85,191.7Z" transform="translate(0 -9.15)" style="fill:#39b54a"/><path d="M144.9,160c.37.25.76.51,1.19.77l2.77,19.38c-.42-.27-.82-.52-1.19-.77C146.84,173.55,145.73,165.8,144.9,160Z" transform="translate(0 -9.15)" style="fill:#d9e021"/><path d="M146.09,160.76q1.38,9.69,2.77,19.38a8.84,8.84,0,0,1-4.77-1.7q-1.38-9.69-2.77-19.38A8.72,8.72,0,0,0,146.09,160.76Z" transform="translate(0 -9.15)" style="fill:#8cc63f"/><path d="M140.4,158.46l4.5,1.53c.37.25.76.51,1.19.77a8.72,8.72,0,0,1-4.77-1.7A10.51,10.51,0,0,0,140.4,158.46Z" transform="translate(0 -9.15)" style="fill:#8cc63f"/><path d="M54.32,174.14a3.4,3.4,0,0,1,.09.64c.23,1.65.47,3.29.7,4.94q.41,2.79.8,5.58c.39,2.74.79,5.48,1.18,8.22a11.33,11.33,0,0,0-2.26-2.21l-2.77-19.38A11.33,11.33,0,0,1,54.32,174.14Z" transform="translate(0 -9.15)" style="fill:#009245"/><path d="M146.09,160.76c.68.09,1.47.16,2.4.21q1.38,9.69,2.77,19.37c-.93,0-1.72-.11-2.4-.2C148,174.33,146.92,166.58,146.09,160.76Z" transform="translate(0 -9.15)" style="fill:#d9e021"/><path d="M38.64,176.78A10.53,10.53,0,0,1,39,179l.17,1.19c.1.73.24,1.71.35,2.45l.54,3.79,1.38,9.68a10.41,10.41,0,0,0-1.91-1.9l-2.77-19.37A9.82,9.82,0,0,1,38.64,176.78Z" transform="translate(0 -9.15)" style="fill:#39b54a"/><path d="M41.41,196.15l-2.77-19.37c4.1-.65,8.36-1.18,12.59-1.55L54,194.6C49.77,195,45.51,195.51,41.41,196.15Z" transform="translate(0 -9.15)" style="fill:#39b54a"/><polygon points="54 185.46 51.23 166.08 53.11 165.91 55.88 185.29 54 185.46" style="fill:#39b54a"/><path d="M54.32,174.14a9.9,9.9,0,0,1,.64,1l2.77,19.37a9.2,9.2,0,0,0-.64-1Q55.69,183.83,54.32,174.14Z" transform="translate(0 -9.15)" style="fill:#009245"/><polygon points="55.88 185.29 53.11 165.91 54.59 165.97 57.36 185.35 55.88 185.29" style="fill:#39b54a"/><path d="M252.74,156.15v0l2.77,19.38v0q-.94-6.54-1.87-13.09C253.34,160.34,253,158.25,252.74,156.15Z" transform="translate(0 -9.15)" style="fill:#8cc63f"/><path d="M220,164.82a1,1,0,0,1,0,.24c.09.63.18,1.25.26,1.87s.21,1.41.31,2.11l2.16,15.16c-.77-1-2.21-2-4.85-3-6.95-2.51-17.51-2.77-21.74-2.77-3.19,0-5.2.12-9.2.35l-6.1.34c-6.44.34-11.88.63-16.31.84l-2.77-19.37q6.65-.33,16.3-.85l6.11-.34c4-.23,6-.34,9.2-.35,4.22,0,14.79.26,21.74,2.77C217.81,162.78,219.25,163.81,220,164.82Z" transform="translate(0 -9.15)" style="fill:#8cc63f"/><path d="M220,164.82a4,4,0,0,1,.83,2l2.77,19.37a3.94,3.94,0,0,0-.83-1.94Q221.41,174.51,220,164.82Z" transform="translate(0 -9.15)" style="fill:#8cc63f"/><path d="M220.88,168.22a7.14,7.14,0,0,0,0-1.45l2.77,19.38a7.14,7.14,0,0,1,0,1.45c0,.2,0,.4,0,.57l-2.77-19.38A5.6,5.6,0,0,1,220.88,168.22Z" transform="translate(0 -9.15)" style="fill:#39b54a"/><path d="M252.74,156.15q1.38,9.69,2.77,19.38a7.84,7.84,0,0,1-.92,3.6,18.4,18.4,0,0,0-.83,2.28,6.54,6.54,0,0,0-.15,2.48l-2.77-19.38A6.54,6.54,0,0,1,251,162a20.09,20.09,0,0,1,.82-2.28A7.74,7.74,0,0,0,252.74,156.15Z" transform="translate(0 -9.15)" style="fill:#8cc63f"/><path d="M253.61,183.89l-2.77-19.38q.85,5.93,13.35,10.59L267,194.48C258.65,191.38,254.18,187.84,253.61,183.89Z" transform="translate(0 -9.15)" style="fill:#39b54a"/><path d="M258.25,175.07q1.39,9.69,2.77,19.38a156.33,156.33,0,0,1-22.08-1.64q-1.38-9.67-2.77-19.37A158,158,0,0,0,258.25,175.07Z" transform="translate(0 -9.15)" style="fill:#8cc63f"/><path d="M234.31,173.11a49,49,0,0,1-10.51-3.18c-1-.39-1.9-.78-2.93-1.14a5.6,5.6,0,0,1,0-.57c.09-1.7.21-4.26-5.71-6.4-6.95-2.51-17.52-2.77-21.74-2.77-3.19,0-5.2.12-9.2.35l-6.11.34q-9.65.51-16.3.85c-9.91-2.71-21.29-4.09-29.38-4.85l4.45,1.52a40.55,40.55,0,0,0-7.67-.43,123.94,123.94,0,0,0-17.45,1.81c-3.45.54-6.72,1.06-11,1.42.87-.42,1.89-.86,3.07-1.32.69-.27,1.41-.52,2.14-.78a148.76,148.76,0,0,1,22.78-5.32c8.91-.5,18.14-1.3,27.46-2.36C167.07,149,173.4,148,178,147.2a60,60,0,0,1,7.44-1c5.4-.33,7.22.42,10.52,2,3.54,1.69,8,3.8,21,4.55a169.09,169.09,0,0,0,19-.09c4.68-.23,7.51-.36,10.88.15,7.44,1.14,6.33,3.83,5,6.93A20.09,20.09,0,0,0,251,162c-1.26,4.95,3.17,9.33,13.2,13.07C251.45,175.14,241.44,174.47,234.31,173.11Z" transform="translate(0 -9.15)" style="fill:#8cc63f"/><path d="M132.44,155.74c8.09.76,19.47,2.14,29.38,4.85-6.87.33-11.32.48-13.33.38-.93-.05-1.72-.12-2.4-.21-.43-.26-.82-.52-1.19-.77l-4.5-1.53a10.21,10.21,0,0,0-3.51-1.2Z" transform="translate(0 -9.15)" style="fill:#d9e021"/><path d="M148.49,161c2,.1,6.46-.05,13.33-.38L164.59,180c-6.87.34-11.32.49-13.33.38Q149.88,170.66,148.49,161Z" transform="translate(0 -9.15)" style="fill:#d9e021"/><path d="M26.81,204.66,24,185.28c-.06-.38.2-.81,1-1.3a15.48,15.48,0,0,1,3.12-1.39,88.93,88.93,0,0,1,17.79-3.48l2.77,19.37A89.71,89.71,0,0,0,30.91,202a15.48,15.48,0,0,0-3.12,1.39C27,203.85,26.75,204.28,26.81,204.66Z" transform="translate(0 -9.15)" style="fill:#39b54a"/><path d="M26.21,186.74q1.38,9.69,2.77,19.38c-.81-.24-2.08-.72-2.18-1.45L24,185.29C24.13,186,25.4,186.5,26.21,186.74Z" transform="translate(0 -9.15)" style="fill:#8cc63f"/><path d="M26.21,186.74c.29.09.53.14.62.16l2.77,19.38-.62-.16Q27.6,196.43,26.21,186.74Z" transform="translate(0 -9.15)" style="fill:#8cc63f"/><path d="M11,206.91,8.2,187.54c.23,1.6,3.31,2.51,4.63,2.83l2.78,19.38C14.28,209.43,11.2,208.52,11,206.91Z" transform="translate(0 -9.15)" style="fill:#39b54a"/><path d="M203.43,166.55q1.38,9.69,2.77,19.38a11.37,11.37,0,0,0-2.88-1.45c-5.39-1.95-13.42-2.09-15.76-2.09-1.73,0-2.49,0-6.23.25L175,183c-19.89,1.05-29,1.54-34.38,1.26-8.35-.44-10.4-1.87-11.89-2.91-1.33-.92-1.92-1.24-4.6-1.19a55.6,55.6,0,0,0-8,.94c-4.32.68-10.25,1.61-17.9,2.2A128.94,128.94,0,0,1,72.38,183l-2.77-19.38a128.94,128.94,0,0,0,25.81.31c7.65-.58,13.57-1.52,17.9-2.2a55.6,55.6,0,0,1,8-.94c2.68-.05,3.27.27,4.6,1.19,1.49,1,3.54,2.47,11.88,2.91,5.42.28,14.5-.21,34.39-1.26l6.33-.35c3.74-.22,4.5-.26,6.23-.26,2.34,0,10.37.14,15.76,2.09A11.37,11.37,0,0,1,203.43,166.55Z" transform="translate(0 -9.15)" style="fill:#39b54a"/><path d="M57.73,194.51,55,175.14a176.38,176.38,0,0,0,23.12-.73c8-.76,13.29-1.73,18.86-2.75a198.47,198.47,0,0,1,21.94-3.1c12.38-1,17.63,0,22.26.8A69.38,69.38,0,0,0,158,170.53a156.54,156.54,0,0,0,19.54-1.82,181.22,181.22,0,0,1,24.77-2.15h1.12l2.77,19.38h-1.12a179.64,179.64,0,0,0-24.77,2.15,156.54,156.54,0,0,1-19.54,1.82,69.43,69.43,0,0,1-16.86-1.17c-4.63-.83-9.88-1.77-22.26-.8A198.47,198.47,0,0,0,99.71,191c-5.57,1-10.82,2-18.86,2.75A176.3,176.3,0,0,1,57.73,194.51Z" transform="translate(0 -9.15)" style="fill:#009245"/><path d="M206.2,185.93l-2.77-19.38c9.35,0,13.88,1,17.44,2.24l2.77,19.38C220.08,186.91,215.55,185.92,206.2,185.93Z" transform="translate(0 -9.15)" style="fill:#39b54a"/><path d="M220.87,168.79c1,.36,2,.75,2.93,1.14q1.39,9.69,2.77,19.38c-1-.39-1.9-.78-2.93-1.14Z" transform="translate(0 -9.15)" style="fill:#8cc63f"/><path d="M223.8,169.93a49,49,0,0,0,10.51,3.18l2.77,19.38a49.55,49.55,0,0,1-10.51-3.18Q225.19,179.62,223.8,169.93Z" transform="translate(0 -9.15)" style="fill:#8cc63f"/><path d="M236.17,173.44q1.38,9.69,2.77,19.37c-.64-.1-1.26-.21-1.86-.32l-2.77-19.38Z" transform="translate(0 -9.15)" style="fill:#8cc63f"/><path d="M269.45,181.63l-2.77-19.38a5.54,5.54,0,0,1,.13-2.21,17,17,0,0,1,.78-2.14,8,8,0,0,0,1-4l2.77,19.38a8,8,0,0,1-.95,4,17,17,0,0,0-.78,2.14A5.53,5.53,0,0,0,269.45,181.63Z" transform="translate(0 -9.15)" style="fill:#39b54a"/><path d="M258.25,175.07q2.87,0,5.94,0L267,194.48q-3.07,0-5.94,0Q259.64,184.76,258.25,175.07Z" transform="translate(0 -9.15)" style="fill:#8cc63f"/><path d="M285.46,174.52q1.38,9.69,2.78,19.38-11.67.56-21.28.58l-2.77-19.38Q273.79,175.09,285.46,174.52Z" transform="translate(0 -9.15)" style="fill:#39b54a"/><path d="M48.7,198.48l-2.77-19.37a234.44,234.44,0,0,0,28.95-1c11.42-1.07,19.28-2.52,25.59-3.69a124.05,124.05,0,0,1,14.15-2.06,41.82,41.82,0,0,1,13.3.66c4.49.8,10.08,1.8,22.65,1.47A225.43,225.43,0,0,0,177.7,172,116.75,116.75,0,0,1,194,170.51c8.33-.07,11,1,15,2.63a55.17,55.17,0,0,0,11.92,3.57c10.72,2.06,26.73,2.77,47.69,2.12l2.77,19.38c-21,.64-37-.07-47.69-2.12a55.36,55.36,0,0,1-11.92-3.57c-4-1.63-6.66-2.7-15-2.63a115.26,115.26,0,0,0-16.33,1.49,225.44,225.44,0,0,1-27.12,2.47c-12.58.33-18.17-.67-22.66-1.47a42.06,42.06,0,0,0-13.3-.67,126.37,126.37,0,0,0-14.15,2.07c-6.31,1.16-14.17,2.62-25.59,3.69A232.4,232.4,0,0,1,48.7,198.48Z" transform="translate(0 -9.15)" style="fill:#39b54a"/><path d="M48,205.14l-2.77-19.38,28.41-1.25,2.77,19.38Z" transform="translate(0 -9.15)" style="fill:#8cc63f"/><path d="M55,166.41a64.27,64.27,0,0,1,14.61-2.8,128.94,128.94,0,0,0,25.81.31c7.65-.58,13.57-1.52,17.9-2.2a55.6,55.6,0,0,1,8-.94c2.68-.05,3.27.27,4.6,1.19,1.49,1,3.54,2.47,11.88,2.91,5.42.28,14.5-.21,34.39-1.26l6.33-.35c3.74-.22,4.5-.26,6.23-.26,2.34,0,10.37.14,15.76,2.09a11.37,11.37,0,0,1,2.88,1.45h-1.12a181.22,181.22,0,0,0-24.77,2.15A156.54,156.54,0,0,1,158,170.53a69.38,69.38,0,0,1-16.86-1.17c-4.63-.83-9.88-1.77-22.26-.8a198.47,198.47,0,0,0-21.94,3.1c-5.57,1-10.82,2-18.86,2.75a176.38,176.38,0,0,1-23.12.73,10.23,10.23,0,0,0-2.9-3.21l-.12-.1-.2-.08c-.4-.16-3.78-1.65-.15-3.83A18.28,18.28,0,0,1,55,166.41Z" transform="translate(0 -9.15)" style="fill:#009245"/><path d="M73.67,184.51c11.32-.91,27-2.07,45.12-3q1.38,9.69,2.77,19.38c-18.1.93-33.8,2.08-45.12,3C75.61,198.08,74.5,190.33,73.67,184.51Z" transform="translate(0 -9.15)" style="fill:#8cc63f"/><path d="M34.54,192.19a4.13,4.13,0,0,1,.46,1.36l2.77,19.38a4.33,4.33,0,0,0-.45-1.36c-1-1.94-3.43-3.66-7.72-5.29L26.83,186.9C31.11,188.53,33.52,190.25,34.54,192.19Z" transform="translate(0 -9.15)" style="fill:#8cc63f"/><path d="M19.17,195.82l2.77,19.38a3.39,3.39,0,0,0-.39-1.13c-.86-1.63-2.85-3.08-5.94-4.32l-2.78-19.38c3.1,1.24,5.09,2.69,6,4.32A3.63,3.63,0,0,1,19.17,195.82Z" transform="translate(0 -9.15)" style="fill:#39b54a"/><path d="M36.18,217.25l-2.77-19.38c0-.24.17-.55.51-1.05A4.53,4.53,0,0,0,35,193.55l2.77,19.38a4.53,4.53,0,0,1-1.08,3.27C36.35,216.7,36.15,217,36.18,217.25Z" transform="translate(0 -9.15)" style="fill:#39b54a"/><path d="M33.41,197.87c0,.19.2.33.57.49q1.38,9.69,2.77,19.38c-.37-.16-.54-.3-.57-.49Z" transform="translate(0 -9.15)" style="fill:#8cc63f"/><path d="M118.79,181.51c13.36-.68,31.49-1.41,63.05-1.68q1.4,9.69,2.77,19.38c-31.56.27-49.69,1-63.05,1.68Q120.18,191.2,118.79,181.51Z" transform="translate(0 -9.15)" style="fill:#8cc63f"/><polygon points="288.24 184.75 285.46 165.37 287.19 165.29 289.96 184.67 288.24 184.75" style="fill:#39b54a"/><path d="M263.8,180.5q1.38,9.69,2.77,19.38h-.05l-2.77-19.38Z" transform="translate(0 -9.15)" style="fill:#39b54a"/><polygon points="266.52 190.73 263.75 171.35 268.63 169.69 271.4 189.06 266.52 190.73" style="fill:#8cc63f"/><path d="M181.84,179.83c21.59-.18,49.82-.15,81.91.67l2.77,19.38c-32.09-.82-60.32-.86-81.91-.67Q183.23,189.52,181.84,179.83Z" transform="translate(0 -9.15)" style="fill:#8cc63f"/><path d="M266.47,180.57q1.38,9.69,2.77,19.38l-2.67-.07q-1.4-9.69-2.77-19.38Z" transform="translate(0 -9.15)" style="fill:#39b54a"/><path d="M266.47,180.57h.07L269.32,200h-.08Q267.85,190.26,266.47,180.57Z" transform="translate(0 -9.15)" style="fill:#39b54a"/><path d="M48,205.14l-2.77-19.38c9,.5,23.43,1,43.41.38,14.51-.44,21.88-1.15,36-1.77,21.36-.92,34.89-.61,55-.14,17.16.4,39.35,1.31,62.88,3.49l2.52.24,2.77,19.38-2.52-.24c-23.52-2.18-45.71-3.09-62.88-3.49-20.13-.47-33.66-.78-55,.14-14.12.61-21.49,1.33-36,1.77C71.46,206.13,57.05,205.64,48,205.14Z" transform="translate(0 -9.15)" style="fill:#d9e021"/><path d="M28.14,182.59a88.93,88.93,0,0,1,17.79-3.48,234.44,234.44,0,0,0,28.95-1c11.42-1.07,19.28-2.52,25.59-3.69a124.05,124.05,0,0,1,14.15-2.06,41.82,41.82,0,0,1,13.3.66c4.49.8,10.08,1.8,22.65,1.47A225.43,225.43,0,0,0,177.7,172,116.75,116.75,0,0,1,194,170.51c8.33-.07,11,1,15,2.63a55.17,55.17,0,0,0,11.92,3.57c10.72,2.06,26.73,2.77,47.69,2.12l-4.88,1.67c-32.09-.82-60.32-.85-81.91-.67-31.56.27-49.69,1-63,1.68-18.1.93-33.8,2.09-45.12,3l-28.41,1.25c9,.5,23.43,1,43.41.38,14.51-.44,21.88-1.15,36-1.77,21.36-.92,34.89-.61,55-.14,17.16.4,39.35,1.31,62.88,3.49l-2.21.76A758.44,758.44,0,0,0,152.24,196c-3.48.51-7,1.05-10.34,1.57-14.05,2.18-26.18,4.05-36.45,3.89-4.65-.07-5.84-.5-7.8-1.22-2.11-.76-4.72-1.71-11.86-2.35-12-1.09-25-.25-35.4.42-9.7.62-14.45.88-16.41,0-.83-.37-.68-.64-.06-1.55.73-1.07,1.73-2.52.62-4.63-1-1.94-3.43-3.66-7.71-5.29-.49-.11-4.68-1.09-1.81-2.92A15.48,15.48,0,0,1,28.14,182.59Z" transform="translate(0 -9.15)" style="fill:#8cc63f"/><polygon points="243.13 198.71 240.36 179.33 242.57 178.57 245.34 197.95 243.13 198.71" style="fill:#8cc63f"/><path d="M152.24,196a758.44,758.44,0,0,1,88.12-7.55l2.77,19.38A756.26,756.26,0,0,0,155,215.41c-3.48.51-7,1.05-10.34,1.57-14,2.18-26.18,4.05-36.45,3.89-4.65-.07-5.83-.5-7.8-1.22s-4.72-1.71-11.86-2.35c-12-1.09-25-.25-35.4.42-9.7.62-14.45.88-16.41,0h0q-1.38-9.69-2.77-19.38h0c2,.85,6.71.59,16.41,0,10.41-.67,23.38-1.51,35.4-.42,7.14.64,9.75,1.59,11.86,2.35,2,.72,3.15,1.15,7.8,1.22,10.27.16,22.4-1.71,36.45-3.89C145.27,197.08,148.76,196.54,152.24,196Z" transform="translate(0 -9.15)" style="fill:#8cc63f"/><path d="M45.26,185.76l28.41-1.25c11.32-.91,27-2.07,45.12-3,13.36-.68,31.49-1.41,63.05-1.68,21.59-.18,49.82-.15,81.91.67l2.79.07L245.09,188l-2.52-.24c-23.53-2.18-45.72-3.09-62.88-3.49-20.13-.47-33.66-.78-55,.14-14.12.62-21.49,1.33-36,1.77C68.69,186.75,54.28,186.26,45.26,185.76Z" transform="translate(0 -9.15)" style="fill:#d9e021"/><path d="M247.86,207.34,245.09,188l21.45-7.39L269.32,200Z" transform="translate(0 -9.15)" style="fill:#d9e021"/><path d="M21.86,220.91l-2.77-19.38c4.6,2,15.53,1.33,26.1.65,9.64-.63,19.61-1.27,28.94-.43a29.6,29.6,0,0,1,8.9,1.8c2.27.83,4.85,1.76,13.06,1.89,15.07.24,32.12-2.4,47.16-4.73,3.38-.52,6.56-1,9.75-1.48a690.84,690.84,0,0,1,82.29-6.88l2.65-.06,2.77,19.38-2.65.06a690.84,690.84,0,0,0-82.29,6.88c-3.19.47-6.37,1-9.75,1.48-15,2.33-32.09,5-47.16,4.73-8.21-.13-10.78-1.06-13-1.89a29.78,29.78,0,0,0-8.91-1.8c-9.33-.84-19.3-.2-28.94.42C37.39,222.23,26.47,222.94,21.86,220.91Z" transform="translate(0 -9.15)" style="fill:#39b54a"/><polygon points="240.71 202.52 237.94 183.14 243.08 183.03 245.85 202.41 240.71 202.52" style="fill:#39b54a"/><polygon points="242.33 203.79 239.56 184.41 267.41 174.73 270.19 194.11 242.33 203.79" style="fill:#39b54a"/><polygon points="245.85 202.41 243.08 183.03 267.41 174.73 270.18 194.11 245.85 202.41" style="fill:#39b54a"/><path d="M235.29,192.35l2.65-.06,5.14-.12,24.33-8.29-27.85,9.68Z" transform="translate(0 -9.15)" style="fill:#39b54a"/><path d="M19.09,201.53c-2.25-1-1.52-2.06-.82-3.08s1.41-2.06.51-3.76-2.85-3.08-6-4.32c-2-.48-7.79-2.25-2.43-5.67a32.14,32.14,0,0,1,6.49-2.88,135.16,135.16,0,0,1,21.75-5c4.1-.64,8.36-1.17,12.59-1.54l1.88-.17,1.85.08a176.38,176.38,0,0,0,23.12-.73c8-.76,13.29-1.73,18.86-2.75a198.47,198.47,0,0,1,21.94-3.1c12.38-1,17.63,0,22.26.8A69.38,69.38,0,0,0,158,170.53a156.54,156.54,0,0,0,19.54-1.82,181.22,181.22,0,0,1,24.77-2.15h1.12c9.35,0,13.88,1,17.44,2.24,1,.36,2,.75,2.93,1.14a49,49,0,0,0,10.51,3.18c7.13,1.36,17.14,2,29.88,2q9.6,0,21.27-.58l1.73-.08,9.2-.44-29,9.88-24.33,8.29-5.14.12-2.65.06A690.84,690.84,0,0,0,153,199.23c-3.19.47-6.37,1-9.75,1.48-15,2.33-32.09,5-47.16,4.73-8.21-.13-10.79-1.06-13.06-1.89a29.6,29.6,0,0,0-8.9-1.8c-9.33-.84-19.3-.2-28.94.43C34.62,202.86,23.69,203.56,19.09,201.53Zm31.3-3.19c10.41-.67,23.38-1.51,35.4-.42,7.14.64,9.75,1.59,11.86,2.35,2,.72,3.15,1.15,7.8,1.22,10.27.16,22.4-1.71,36.45-3.89,3.37-.52,6.86-1.06,10.34-1.57a758.44,758.44,0,0,1,88.12-7.55l2.21-.76,2.52.24,21.45-7.39-2.79-.07,4.88-1.67c-21,.65-37-.06-47.69-2.12A55.17,55.17,0,0,1,209,173.14c-4-1.63-6.66-2.7-15-2.63A116.75,116.75,0,0,0,177.7,172a225.43,225.43,0,0,1-27.13,2.47c-12.57.33-18.16-.67-22.65-1.47a41.82,41.82,0,0,0-13.3-.66,124.05,124.05,0,0,0-14.15,2.06c-6.31,1.17-14.17,2.62-25.59,3.69a234.44,234.44,0,0,1-28.95,1,88.93,88.93,0,0,0-17.79,3.48A15.48,15.48,0,0,0,25,184c-2.87,1.83,1.32,2.81,2.36,3.08,3.73,1.47,6.14,3.19,7.16,5.13,1.11,2.11.11,3.56-.62,4.63-.62.91-.77,1.18.06,1.55,2,.85,6.71.59,16.41,0" transform="translate(0 -9.15)" style="fill:#39b54a"/><path d="M43.83,165.59c8.56-3,21.42-5.32,33.49-6l2.15-.11,1.36.2c2,.29,4,.5,6.2.62a95.84,95.84,0,0,0,12.82-.18l1-.07c4.23-.36,7.5-.88,11-1.42a123.94,123.94,0,0,1,17.45-1.81,40.55,40.55,0,0,1,7.67.43,10.21,10.21,0,0,1,3.51,1.2,10.51,10.51,0,0,1,.92.6,8.72,8.72,0,0,0,4.77,1.7c.68.09,1.47.16,2.4.21,2,.1,6.46-.05,13.33-.38q6.65-.33,16.3-.85l6.11-.34c4-.23,6-.34,9.2-.35,4.23,0,14.79.26,21.74,2.77,5.92,2.14,5.8,4.7,5.71,6.4a5.6,5.6,0,0,0,0,.57c-3.56-1.26-8.09-2.24-17.44-2.24a11.37,11.37,0,0,0-2.88-1.45c-5.39-1.95-13.42-2.09-15.76-2.09-1.73,0-2.49,0-6.23.26l-6.33.35c-19.89,1-29,1.54-34.39,1.26C129.5,164.44,127.45,163,126,162c-1.33-.92-1.92-1.24-4.6-1.19a55.6,55.6,0,0,0-8,.94c-4.33.68-10.25,1.62-17.9,2.2a128.94,128.94,0,0,1-25.81-.31A64.27,64.27,0,0,0,55,166.41a18.28,18.28,0,0,0-3.41,1.51c-3.63,2.18-.25,3.67.15,3.83l.2.08.12.1a6.15,6.15,0,0,1,2.53,3.19l-1.48-.06-1.88.17c-4.23.37-8.49.9-12.59,1.55a9.82,9.82,0,0,0-1.91-1.9c-1.61-.71-5.3-2.9.41-6.34A35.93,35.93,0,0,1,43.83,165.59Z" transform="translate(0 -9.15)" style="fill:#39b54a"/><path d="M20.35,219.51l-2.77-19.38c.07.48.47,1,1.51,1.4l2.77,19.38C20.83,220.46,20.42,220,20.35,219.51Z" transform="translate(0 -9.15)" style="fill:#39b54a"/><path d="M251,162a20.09,20.09,0,0,1,.82-2.28c1.31-3.1,2.42-5.79-5-6.93-3.37-.51-6.2-.38-10.88-.15a169.09,169.09,0,0,1-19,.09c-13-.75-17.41-2.86-21-4.55-3.3-1.58-5.12-2.33-10.52-2a60,60,0,0,0-7.44,1c-4.62.78-11,1.84-21.75,3.08-9.32,1.06-18.55,1.86-27.46,2.36A148.76,148.76,0,0,0,106,158c-.73.26-1.45.51-2.14.78-1.18.46-2.2.9-3.07,1.32l-1,.07a95.84,95.84,0,0,1-12.82.18c1.33-.65,2.89-1.33,4.73-2,1-.38,2-.76,3.1-1.13,13.15-4.52,29.66-7.18,34.7-7.93l1.76-.26,1.63-.09c8.12-.43,16.54-1.14,25-2.11,8.75-1,13.49-1.79,17.67-2.5a134,134,0,0,1,15.3-1.9c12.71-.76,16.43,1,20,2.74,3.27,1.57,6.67,3.19,16.75,3.77a123.29,123.29,0,0,0,14.38-.09c5.42-.26,11.57-.55,17.52.36,10.93,1.66,9.34,5.44,7.95,8.77a17,17,0,0,0-.78,2.14c-1.43,5.62,5.43,10.46,20.38,14.4l-1.73.08q-11.65.55-21.27.58C254.16,171.36,249.73,167,251,162Z" transform="translate(0 -9.15)" style="fill:#39b54a"/><polygon points="270.18 194.11 267.41 174.73 296.39 164.85 299.16 184.22 270.18 194.11" style="fill:#39b54a"/><polygon points="238.06 202.58 235.29 183.2 239.56 184.41 242.33 203.79 238.06 202.58" style="fill:#39b54a"/></g><g style="isolation:isolate"><path d="M206.27,142v20.1c0-6-3.88-12-11.48-17.31-11.4-8-29.83-13.79-51.86-16.19a206.49,206.49,0,0,0-22.25-1.2,188.5,188.5,0,0,0-42.56,4.67c-27.37,6.43-42.69,18.13-42.69,30.15v-20.1c0-12,15.32-23.72,42.69-30.15a188.5,188.5,0,0,1,42.56-4.67,206.49,206.49,0,0,1,22.25,1.2c22,2.41,40.46,8.15,51.86,16.19C202.39,130.07,206.27,136,206.27,142Z" transform="translate(0 -9.15)" style="fill:#db1c24"/><path d="M121.17,111.43v20.1a163.73,163.73,0,0,0-36.95,4v-20.1A164.3,164.3,0,0,1,121.17,111.43Z" transform="translate(0 -9.15)" style="fill:#f36b57"/><path d="M167.93,138.13c-13.32-4.29-29.92-6.6-46.76-6.6v-20.1c16.84,0,33.44,2.31,46.76,6.6v20.1Z" transform="translate(0 -9.15)" style="fill:#f36b57"/><path d="M112.63,119.5v0Z" transform="translate(0 -9.15)" style="fill:#d3272d"/><path d="M138.6,132.32V121.09c0-.43,0-1,0-1.45h0a12,12,0,0,1,2.63-.28h0v0a8.57,8.57,0,0,1,4.55,1.06v20.1h0a8.57,8.57,0,0,0-4.55-1.07,12,12,0,0,0-2.63.29v-7.42Z" transform="translate(0 -9.15)" style="fill:#d3272d"/><path d="M119.82,140.39a8.56,8.56,0,0,0-4.56-1.07v-20.1a8.56,8.56,0,0,1,4.56,1.07v0a1.35,1.35,0,0,1,.7,1.06v20.1A1.35,1.35,0,0,0,119.82,140.39Z" transform="translate(0 -9.15)" style="fill:#d3272d"/><path d="M112.63,139.6c-1.69.4-2.63,1.12-2.63,1.86v-20.1c0-.74.94-1.46,2.63-1.86v0a11.91,11.91,0,0,1,2.63-.28v20.1A11.91,11.91,0,0,0,112.63,139.6Z" transform="translate(0 -9.15)" style="fill:#d3272d"/><path d="M145.78,140.52v-20.1a1.39,1.39,0,0,1,.71,1.07v20.1A1.39,1.39,0,0,0,145.78,140.52Z" transform="translate(0 -9.15)" style="fill:#d3272d"/><path d="M138.6,139.74c-1.69.4-2.63,1.11-2.63,1.85V121.5c0-.74.94-1.46,2.63-1.86v20.1Z" transform="translate(0 -9.15)" style="fill:#d3272d"/><path d="M120.52,121.35v20.1c0,.74-.94,1.46-2.63,1.86a11.91,11.91,0,0,1-2.63.29,8.56,8.56,0,0,1-4.56-1.08,1.37,1.37,0,0,1-.7-1.06v-20.1a1.4,1.4,0,0,0,.7,1.07,8.66,8.66,0,0,0,4.56,1.07,11.91,11.91,0,0,0,2.63-.29C119.58,122.81,120.52,122.09,120.52,121.35Z" transform="translate(0 -9.15)" style="fill:#ffbb7d"/><path d="M146.49,121.49v20.1c0,.74-.94,1.46-2.63,1.86a11.88,11.88,0,0,1-2.62.28,8.51,8.51,0,0,1-4.56-1.07,1.36,1.36,0,0,1-.71-1.07V121.5a1.39,1.39,0,0,0,.71,1.07,8.61,8.61,0,0,0,4.56,1.06,11.88,11.88,0,0,0,2.62-.28C145.55,123,146.49,122.23,146.49,121.49Z" transform="translate(0 -9.15)" style="fill:#ffbb7d"/><path d="M141.23,119.36a8.57,8.57,0,0,1,4.55,1.06c1.46,1,.6,2.34-1.92,2.93a11.88,11.88,0,0,1-2.62.28,8.61,8.61,0,0,1-4.56-1.06c-1.45-1-.6-2.34,1.92-2.93A12,12,0,0,1,141.23,119.36Z" transform="translate(0 -9.15)" style="fill:#ffbb7d"/><path d="M161.37,126.65h0v1C161.37,127.35,161.35,127,161.37,126.65Z" transform="translate(0 -9.15)" style="fill:#d3272d"/><path d="M55,147.5V127.4a65.85,65.85,0,0,1,16.58-8.05v20.1A65.85,65.85,0,0,0,55,147.5Z" transform="translate(0 -9.15)" style="fill:#f36b57"/><path d="M161.37,146.74a11.31,11.31,0,0,0-2.62.29v-20.1a11.31,11.31,0,0,1,2.62-.29h0v0a8.61,8.61,0,0,1,4.56,1.07v20.1h0A8.51,8.51,0,0,0,161.37,146.74Z" transform="translate(0 -9.15)" style="fill:#d3272d"/><path d="M165.93,147.81v-20.1a1.36,1.36,0,0,1,.71,1.07v20.1A1.36,1.36,0,0,0,165.93,147.81Z" transform="translate(0 -9.15)" style="fill:#d3272d"/><path d="M158.75,147c-1.69.39-2.63,1.11-2.63,1.85v-20.1c0-.74.94-1.45,2.63-1.85Z" transform="translate(0 -9.15)" style="fill:#d3272d"/><path d="M166.64,128.78v20.1c0,.74-.94,1.46-2.63,1.85a11.31,11.31,0,0,1-2.62.29,8.51,8.51,0,0,1-4.56-1.07,1.37,1.37,0,0,1-.71-1.07v-20.1a1.36,1.36,0,0,0,.71,1.07,8.51,8.51,0,0,0,4.56,1.07,11.88,11.88,0,0,0,2.62-.28C165.7,130.24,166.64,129.52,166.64,128.78Z" transform="translate(0 -9.15)" style="fill:#ffbb7d"/><polygon points="111 116.88 111 136.98 106.91 142.38 106.91 122.29 111 116.88" style="fill:#d3272d"/><polygon points="106.91 122.29 106.91 142.38 84.22 126.4 84.22 106.3 106.91 122.29" style="fill:#d3272d"/><polygon points="105.6 126.65 105.6 146.74 71.62 130.3 71.62 110.2 105.6 126.65" style="fill:#f36b57"/><path d="M72.11,152.91A8.5,8.5,0,0,0,67.56,154v-20.1a8.5,8.5,0,0,1,4.55-1.07,11.34,11.34,0,0,1,2.63.29v20.09A11.91,11.91,0,0,0,72.11,152.91Zm0-20.1h0v0" transform="translate(0 -9.15)" style="fill:#d3272d"/><polygon points="126.38 125.66 126.38 145.76 111 136.98 111 116.88 126.38 125.66" style="fill:#d3272d"/><polygon points="152.88 125.49 152.88 145.59 126.38 145.76 126.38 125.66 152.88 125.49" style="fill:#d3272d"/><path d="M67.56,154a1.36,1.36,0,0,0-.71,1.07V135a1.37,1.37,0,0,1,.71-1.07h0V154Z" transform="translate(0 -9.15)" style="fill:#d3272d"/><path d="M77.37,155.05c0-.74-.94-1.46-2.63-1.86V133.1c1.69.39,2.63,1.11,2.63,1.85Z" transform="translate(0 -9.15)" style="fill:#d3272d"/><polygon points="105.6 126.65 105.6 146.74 88.82 145.96 88.82 125.86 105.6 126.65" style="fill:#d3272d"/><path d="M167.93,138.13V118A68.08,68.08,0,0,1,186,126.54c4.33,3.06,7.32,6.4,8.83,9.87v20.1c-1.51-3.48-4.5-6.81-8.83-9.87A67.77,67.77,0,0,0,167.93,138.13Z" transform="translate(0 -9.15)" style="fill:#f36b57"/><path d="M77.37,135v20.1a1.39,1.39,0,0,1-.71,1.07,8.59,8.59,0,0,1-4.55,1.07,11.91,11.91,0,0,1-2.63-.29c-1.69-.4-2.63-1.12-2.63-1.85V135c0,.74.94,1.46,2.63,1.85a11.34,11.34,0,0,0,2.63.29A8.5,8.5,0,0,0,76.66,136,1.39,1.39,0,0,0,77.37,135Z" transform="translate(0 -9.15)" style="fill:#ffbb7d"/><polygon points="152.88 125.49 152.88 145.59 142.83 151.1 142.83 131.01 152.88 125.49" style="fill:#f36b57"/><polygon points="194.83 127.26 194.83 147.36 142.83 151.1 142.83 131.01 194.83 127.26" style="fill:#d3272d"/><rect x="151.55" y="133.23" width="45.38" height="20.1" style="fill:#f36b57"/><path d="M45.15,162.53v-20.1c0-5.13,3.18-10.31,9.89-15v20.1C48.33,152.22,45.15,157.4,45.15,162.53Z" transform="translate(0 -9.15)" style="fill:#f36b57"/><path d="M66.68,161.3V143.55h0V161.3Z" transform="translate(0 -9.15)" style="fill:#d3272d"/><polygon points="102.45 135.12 102.45 155.21 88.82 145.96 88.82 125.86 102.45 135.12" style="fill:#f36b57"/><path d="M66.68,163.65a8.58,8.58,0,0,0-4.57,1.07v-20.1a8.58,8.58,0,0,1,4.57-1.07h0v0a11.31,11.31,0,0,1,2.62.29v20.1A11.31,11.31,0,0,0,66.68,163.65Z" transform="translate(0 -9.15)" style="fill:#d3272d"/><path d="M62.11,164.72a1.36,1.36,0,0,0-.7,1.07v-20.1a1.36,1.36,0,0,1,.7-1.07h0v20.1Z" transform="translate(0 -9.15)" style="fill:#d3272d"/><path d="M71.93,165.79c0-.74-.94-1.46-2.63-1.85v-20.1c1.69.4,2.63,1.11,2.63,1.85Z" transform="translate(0 -9.15)" style="fill:#d3272d"/><polygon points="161.02 137.38 161.02 157.47 151.55 153.33 151.55 133.23 161.02 137.38" style="fill:#d3272d"/><polygon points="161.02 137.38 161.02 157.47 134.63 158.5 134.63 138.4 161.02 137.38" style="fill:#f36b57"/><path d="M71.93,145.69v20.1a1.38,1.38,0,0,1-.7,1.07,8.58,8.58,0,0,1-4.57,1.07,11.31,11.31,0,0,1-2.62-.29c-1.69-.39-2.63-1.11-2.63-1.85v-20.1c0,.74.94,1.46,2.63,1.86a11.88,11.88,0,0,0,2.62.28,8.58,8.58,0,0,0,4.57-1.07A1.38,1.38,0,0,0,71.93,145.69Z" transform="translate(0 -9.15)" style="fill:#ffbb7d"/><path d="M66.68,143.55a11.31,11.31,0,0,1,2.62.29c2.51.59,3.38,1.9,1.93,2.92a8.58,8.58,0,0,1-4.57,1.07,11.88,11.88,0,0,1-2.62-.28c-2.51-.6-3.38-1.9-1.93-2.93A8.58,8.58,0,0,1,66.68,143.55Z" transform="translate(0 -9.15)" style="fill:#ffbb7d"/><path d="M163.58,170.46v-20.1c0-1.18,2.35-2.14,5.25-2.14v0c2.91,0,5.27,1,5.27,2.14v20.1c0-1.18-2.36-2.14-5.27-2.14s-5.25,1-5.25,2.14v0Z" transform="translate(0 -9.15)" style="fill:#d3272d"/><path d="M174.1,150.36v20.1c0,1.18-2.36,2.14-5.27,2.14s-5.25-1-5.25-2.14v-20.1c0,1.18,2.35,2.14,5.25,2.14S174.1,151.54,174.1,150.36Z" transform="translate(0 -9.15)" style="fill:#ffbb7d"/><path d="M168.83,148.22c2.91,0,5.27,1,5.27,2.14s-2.36,2.14-5.27,2.14-5.25-1-5.25-2.14S165.93,148.22,168.83,148.22Z" transform="translate(0 -9.15)" style="fill:#ffbb7d"/><path d="M79.36,172.87a8.56,8.56,0,0,0-4.56,1.07v-20.1a8.56,8.56,0,0,1,4.56-1.07h0v0a11.91,11.91,0,0,1,2.63.28v20.1A11.91,11.91,0,0,0,79.36,172.87Z" transform="translate(0 -9.15)" style="fill:#d3272d"/><polygon points="102.45 135.12 102.45 155.21 91.43 165.02 91.43 144.92 102.45 135.12" style="fill:#d3272d"/><polygon points="104.99 143.66 104.99 163.76 91.43 165.02 91.43 144.92 104.99 143.66" style="fill:#f36b57"/><path d="M74.8,173.94a1.35,1.35,0,0,0-.7,1.06V154.9a1.35,1.35,0,0,1,.7-1.06h0v20.1Z" transform="translate(0 -9.15)" style="fill:#d3272d"/><path d="M84.62,175c0-.74-.94-1.46-2.63-1.86v-20.1h0c1.69.4,2.63,1.12,2.63,1.86Z" transform="translate(0 -9.15)" style="fill:#d3272d"/><polygon points="134.63 138.4 134.63 158.5 121.75 167.92 121.75 147.82 134.63 138.4" style="fill:#f36b57"/><polygon points="121.75 147.82 121.75 167.92 115.02 161.62 115.02 141.52 121.75 147.82" style="fill:#f36b57"/><path d="M84.62,154.91V175a1.37,1.37,0,0,1-.7,1.06,8.56,8.56,0,0,1-4.56,1.08,11.91,11.91,0,0,1-2.63-.29c-1.69-.4-2.63-1.12-2.63-1.86V154.9c0,.74.94,1.46,2.63,1.86a11.91,11.91,0,0,0,2.63.29A8.66,8.66,0,0,0,83.92,156,1.4,1.4,0,0,0,84.62,154.91Z" transform="translate(0 -9.15)" style="fill:#ffbb7d"/><path d="M79.36,152.77a11.91,11.91,0,0,1,2.63.28c2.51.59,3.38,1.9,1.93,2.93a8.66,8.66,0,0,1-4.56,1.07,11.91,11.91,0,0,1-2.63-.29c-2.51-.59-3.38-1.9-1.93-2.92A8.54,8.54,0,0,1,79.36,152.77Z" transform="translate(0 -9.15)" style="fill:#ffbb7d"/><path d="M150.29,179.54v-20.1c0-1.18,2.36-2.14,5.27-2.14v20.1c-2.91,0-5.27.95-5.27,2.14v0Z" transform="translate(0 -9.15)" style="fill:#d3272d"/><path d="M160.81,179.54c0-1.19-2.35-2.14-5.25-2.14V157.3c2.9,0,5.25,1,5.25,2.14Z" transform="translate(0 -9.15)" style="fill:#d3272d"/><path d="M155.56,157.3c2.9,0,5.25,1,5.25,2.14s-2.35,2.14-5.25,2.14-5.27-1-5.27-2.14S152.65,157.3,155.56,157.3Z" transform="translate(0 -9.15)" style="fill:#ffbb7d"/><path d="M160.81,159.44v20.1c0,1.18-2.35,2.13-5.25,2.13s-5.27-.95-5.27-2.13v-20.1c0,1.18,2.36,2.14,5.27,2.14S160.81,160.62,160.81,159.44Z" transform="translate(0 -9.15)" style="fill:#ffbb7d"/><path d="M124.71,183v-20.1c0-1.18,2.35-2.14,5.26-2.14v20.1c-2.91,0-5.26,1-5.26,2.14v0Z" transform="translate(0 -9.15)" style="fill:#d3272d"/><path d="M135.23,183c0-1.18-2.36-2.14-5.26-2.14v-20.1c2.9,0,5.26,1,5.26,2.14Z" transform="translate(0 -9.15)" style="fill:#d3272d"/><path d="M135.23,162.89V183c0,1.18-2.36,2.14-5.26,2.14s-5.26-1-5.26-2.14v-20.1c0,1.18,2.35,2.14,5.26,2.14S135.23,164.07,135.23,162.89Z" transform="translate(0 -9.15)" style="fill:#ffbb7d"/><path d="M130,160.75c2.9,0,5.26,1,5.26,2.14S132.87,165,130,165s-5.26-1-5.26-2.14S127.06,160.75,130,160.75Z" transform="translate(0 -9.15)" style="fill:#ffbb7d"/><path d="M45.15,162.53v-20.1c0,10.5,13.37,20.78,37.16,26.36v20.1C58.52,183.3,45.15,173,45.15,162.53Z" transform="translate(0 -9.15)" style="fill:#d3272d"/><polygon points="104.99 143.66 104.99 163.76 82.31 179.74 82.31 159.64 104.99 143.66" style="fill:#d3272d"/><path d="M196.93,142.38v20.1c0,16.62-33.63,30.3-74.5,30.3A175.91,175.91,0,0,1,97,191v-20.1a175.91,175.91,0,0,0,25.44,1.82C163.3,172.68,196.93,159,196.93,142.38Z" transform="translate(0 -9.15)" style="fill:#d3272d"/><polygon points="115.02 141.52 115.02 161.62 97 181.81 97 161.71 115.02 141.52" style="fill:#f36b57"/><path d="M151.55,142.38h45.38c0,16.62-33.63,30.3-74.5,30.3A175.91,175.91,0,0,1,97,170.86l18-20.19,6.72,6.3,12.89-9.42,26.39-1Zm17.28,10.12c2.91,0,5.27-1,5.27-2.14s-2.36-2.14-5.27-2.14-5.25,1-5.25,2.14,2.35,2.14,5.25,2.14m-13.27,9.08c2.9,0,5.25-1,5.25-2.14s-2.35-2.14-5.25-2.14-5.27,1-5.27,2.14,2.36,2.14,5.27,2.14M130,165c2.9,0,5.26-1,5.26-2.14s-2.36-2.14-5.26-2.14-5.26,1-5.26,2.14S127.06,165,130,165" transform="translate(0 -9.15)" style="fill:#d3272d"/><path d="M46.86,179.55c-7.75-5.45-11.43-11.41-11.43-17.3v-20.1c0,5.89,3.68,11.85,11.43,17.31,15.8,11.13,44.56,17.36,74.11,17.36a188.21,188.21,0,0,0,42.56-4.65c19.76-4.63,33.89-12.13,39.79-21.09a16.37,16.37,0,0,0,3-9.05v20.1a16.39,16.39,0,0,1-3,9.05c-5.9,9-20,16.45-39.79,21.09A188.78,188.78,0,0,1,121,196.92C91.42,196.92,62.66,190.69,46.86,179.55Z" transform="translate(0 -9.15)" style="fill:#f36b57"/><path d="M208.65,121.46c13.54,9.55,17.14,20.66,10.13,31.31s-23.79,19.53-47.25,25A224.12,224.12,0,0,1,121,183.33c-35.08,0-69.24-7.4-88-20.62-28-19.69-11.31-45,37.12-56.34a223.79,223.79,0,0,1,50.54-5.55,245,245,0,0,1,26.41,1.42C173.23,105.1,195.1,111.92,208.65,121.46Zm-5.33,29.62c5.9-9,2.88-18.32-8.53-26.36S165,110.94,142.93,108.53a206.49,206.49,0,0,0-22.25-1.2A188.5,188.5,0,0,0,78.12,112c-40.79,9.58-54.82,30.87-31.26,47.46,15.8,11.13,44.56,17.36,74.11,17.36a188.21,188.21,0,0,0,42.56-4.65c19.76-4.63,33.89-12.13,39.79-21.09" transform="translate(0 -9.15)" style="fill:#db1c24"/><path d="M72.11,132.81a11.34,11.34,0,0,1,2.63.29c2.52.59,3.37,1.9,1.92,2.92a8.5,8.5,0,0,1-4.55,1.07,11.34,11.34,0,0,1-2.63-.29c-2.52-.59-3.38-1.9-1.92-2.92A8.5,8.5,0,0,1,72.11,132.81Z" transform="translate(0 -9.15)" style="fill:#ffbb7d"/><path d="M71.62,119.35A65.85,65.85,0,0,0,55,127.4c-20.44,14.39-8.13,33.08,27.27,41.39l22.68-16-13.56,1.26,11-9.8L88.82,135l16.78.78Zm-.39,27.41a8.58,8.58,0,0,1-4.57,1.07,11.88,11.88,0,0,1-2.62-.28c-2.51-.6-3.38-1.9-1.93-2.93a8.67,8.67,0,0,1,4.57-1.07,11.31,11.31,0,0,1,2.62.29c2.51.59,3.38,1.9,1.93,2.92m-1.75-10c-2.52-.59-3.38-1.9-1.92-2.92a8.5,8.5,0,0,1,4.55-1.07,11.34,11.34,0,0,1,2.63.29c2.52.59,3.37,1.9,1.92,2.92a8.5,8.5,0,0,1-4.55,1.07,11.34,11.34,0,0,1-2.63-.29M83.92,156a8.66,8.66,0,0,1-4.56,1.07,11.91,11.91,0,0,1-2.63-.29c-2.51-.59-3.38-1.9-1.93-2.92a8.54,8.54,0,0,1,4.56-1.07,11.91,11.91,0,0,1,2.63.28c2.51.59,3.38,1.9,1.93,2.93" transform="translate(0 -9.15)" style="fill:#d3272d"/><path d="M192.79,160.83a44.21,44.21,0,0,0,3.65-2.57c.33-.25.64-.5.95-.75.62-.51,1.2-1,1.76-1.55.28-.26.55-.53.81-.79s.77-.8,1.13-1.2.47-.54.7-.82a23.94,23.94,0,0,0,1.53-2.07,17.37,17.37,0,0,0,2.76-6.77,14,14,0,0,0,.18-1.7c0-.14,0-.28,0-.42s0-.57,0-.85a7.93,7.93,0,0,0-.07-.84c0-.43-.11-.85-.19-1.27l-.09-.42a16,16,0,0,0-.82-2.51c-.05-.14-.11-.28-.17-.42-1.74-3.88-5.13-7.65-10.12-11.16a58.18,58.18,0,0,0-7.13-4.27A95.34,95.34,0,0,0,171.18,114c-1.12-.33-2.25-.65-3.41-1l-1.76-.46c-1.17-.3-2.37-.58-3.59-.86l-1.83-.4c-5.55-1.18-11.46-2.12-17.66-2.8-2.76-.3-5.54-.54-8.32-.73s-5.57-.32-8.36-.39c-1.86,0-3.72-.08-5.57-.08q-4.17,0-8.3.17c-1.83.07-3.66.17-5.48.3s-3.63.26-5.43.44-3.58.36-5.36.58a171.84,171.84,0,0,0-18,3.18A111.7,111.7,0,0,0,56,119.47l-.67.33q-2.69,1.31-5,2.7l-1.15.7-1.1.71-1,.72c-.87.61-1.68,1.22-2.45,1.85l-.9.75c-.51.44-1,.89-1.47,1.34-.2.19-.39.38-.58.58h0c-.25.25-.5.51-.73.76s-.36.41-.54.61c-.5.58-1,1.17-1.4,1.77-.2.27-.38.53-.56.8s-.24.37-.35.56A18.81,18.81,0,0,0,36.79,136c-.07.18-.15.35-.22.53-.14.34-.26.68-.37,1a1.18,1.18,0,0,0-.07.2q-.23.74-.39,1.47c0,.17-.07.34-.1.51-.07.4-.12.81-.16,1.21V141a14.38,14.38,0,0,0,.72,5.85l.15.42c1.53,4.19,5,8.34,10.51,12.23,15.8,11.13,44.56,17.36,74.11,17.36a188.21,188.21,0,0,0,42.56-4.65C175.57,169.35,185.52,165.46,192.79,160.83Zm-71.62-49.4c25.83,0,51.09,5.44,64.83,15.11,4.33,3.06,7.32,6.4,8.83,9.87l-52,3.74,10-5.51-26.5.17L111,126l-4.09,5.4-22.69-16a164.3,164.3,0,0,1,37-4M82.31,168.79c-35.4-8.31-47.71-27-27.27-41.39a65.85,65.85,0,0,1,16.58-8.05l34,16.44L88.82,135l13.63,9.26-11,9.8L105,152.81l-22.68,16m40.12,3.89A175.91,175.91,0,0,1,97,170.86l18-20.19,6.72,6.3,12.89-9.42,26.39-1-9.47-4.14h45.38c0,16.62-33.63,30.3-74.5,30.3" transform="translate(0 -9.15)" style="fill:#f36b57"/><path d="M115.26,119.22a8.56,8.56,0,0,1,4.56,1.07c1.45,1,.58,2.33-1.93,2.92a11.91,11.91,0,0,1-2.63.29,8.66,8.66,0,0,1-4.56-1.07c-1.45-1-.58-2.34,1.93-2.93A11.91,11.91,0,0,1,115.26,119.22Z" transform="translate(0 -9.15)" style="fill:#ffbb7d"/><path d="M161.37,126.64a8.61,8.61,0,0,1,4.56,1.07c1.46,1,.6,2.33-1.92,2.93a11.88,11.88,0,0,1-2.62.28,8.51,8.51,0,0,1-4.56-1.07c-1.46-1-.6-2.33,1.92-2.92A11.31,11.31,0,0,1,161.37,126.64Z" transform="translate(0 -9.15)" style="fill:#ffbb7d"/><path d="M194.83,136.41l-52,3.74,10-5.51-26.5.17L111,126l-4.09,5.4-22.69-16a164.3,164.3,0,0,1,37-4c25.83,0,51.09,5.44,64.83,15.11C190.33,129.6,193.32,132.94,194.83,136.41Zm-36.08-9.48c-2.52.59-3.38,1.9-1.92,2.92a8.51,8.51,0,0,0,4.56,1.07,11.88,11.88,0,0,0,2.62-.28c2.52-.6,3.38-1.9,1.92-2.93a8.61,8.61,0,0,0-4.56-1.07,11.31,11.31,0,0,0-2.62.29m-40.86-3.72c2.51-.59,3.38-1.9,1.93-2.92a8.56,8.56,0,0,0-4.56-1.07,11.91,11.91,0,0,0-2.63.28c-2.51.59-3.38,1.9-1.93,2.93a8.66,8.66,0,0,0,4.56,1.07,11.91,11.91,0,0,0,2.63-.29m26,.14c2.52-.59,3.38-1.9,1.92-2.93a8.57,8.57,0,0,0-4.55-1.06,12,12,0,0,0-2.63.28c-2.52.59-3.37,1.9-1.92,2.93a8.61,8.61,0,0,0,4.56,1.06,11.88,11.88,0,0,0,2.62-.28" transform="translate(0 -9.15)" style="fill:#d3272d"/><path d="M222.28,142v20.1a19.42,19.42,0,0,1-3.5,10.74c-7,10.64-23.79,19.54-47.25,25A224.12,224.12,0,0,1,121,203.43c-35.08,0-69.24-7.4-88-20.62-9.2-6.48-13.57-13.56-13.57-20.55v-20.1c0,7,4.37,14.07,13.57,20.55,18.76,13.22,52.92,20.62,88,20.62a224.12,224.12,0,0,0,50.53-5.52c23.46-5.51,40.24-14.4,47.25-25A19.45,19.45,0,0,0,222.28,142Z" transform="translate(0 -9.15)" style="fill:#db1c24"/></g><g style="isolation:isolate"><path d="M299.9,169,295,182.72a16,16,0,0,0,.79-6.94c-2-21.14-40.08-48.11-84.89-60.11-39.47-10.58-71.21-6.06-76.8,9.63L139,111.6c5.6-15.7,37.33-20.22,76.81-9.64,44.8,12,82.88,39,84.89,60.12A15.85,15.85,0,0,1,299.9,169Z" transform="translate(0 -9.15)" style="fill:#db1c24"/><path d="M210.86,120q2.44-6.85,4.88-13.7a176.93,176.93,0,0,1,24.39,8.49l-4.89,13.7A178.6,178.6,0,0,0,210.86,120Z" transform="translate(0 -9.15)" style="fill:#f36b57"/><path d="M273.09,151.23a116.25,116.25,0,0,0-24.53-16.79l4.89-13.7A116.5,116.5,0,0,1,278,137.52C277.24,139.61,277,140.31,273.09,151.23Z" transform="translate(0 -9.15)" style="fill:#f36b57"/><path d="M143.86,128.44l4.89-13.7c4.87-13.67,32.69-17.67,67-8.48L210.86,120C176.56,110.77,148.74,114.77,143.86,128.44Z" transform="translate(0 -9.15)" style="fill:#f36b57"/><path d="M204.49,126.48c-2.43-.65-4.39-.37-4.73.6l4.89-13.71c.34-1,2.29-1.24,4.73-.59h0l-.21.59-.36,1-4.32,12.1,4.89-13.7c2.76.74,5.1,2.4,5.22,3.7a1,1,0,0,1,0,.43l-4.89,13.7a1.16,1.16,0,0,0,.05-.42C209.59,128.88,207.25,127.22,204.49,126.48Z" transform="translate(0 -9.15)" style="fill:#d3272d"/><path d="M257.49,134.45h0l-4.32,12.11Z" transform="translate(0 -9.15)" style="fill:#d3272d"/><path d="M214.56,116.91l-4.89,13.7c-.35,1-2.3,1.25-4.73.6-2.76-.74-5.11-2.4-5.23-3.7a.87.87,0,0,1,0-.43l4.89-13.71a.88.88,0,0,0-.05.43c.12,1.3,2.46,3,5.23,3.7C212.26,118.16,214.21,117.88,214.56,116.91Z" transform="translate(0 -9.15)" style="fill:#ffbb7d"/><path d="M180.51,123.77c-2.44-.65-4.38-.37-4.73.59l4.89-13.7c.34-1,2.29-1.24,4.72-.59q-2.43,6.86-4.88,13.7,2.44-6.84,4.88-13.7c2.77.74,5.11,2.4,5.24,3.7a1.18,1.18,0,0,1,0,.43l-4.89,13.71a1,1,0,0,0,.05-.43C185.62,126.17,183.27,124.52,180.51,123.77Z" transform="translate(0 -9.15)" style="fill:#d3272d"/><path d="M248.37,148.17a1.13,1.13,0,0,0-.51.58L252.75,135a1.15,1.15,0,0,1,.51-.57l-4.89,13.7,4.89-13.7c.86-.51,2.5-.48,4.23,0a12.29,12.29,0,0,1,2.53,1c1.94,1,3,2.29,2.64,3.14l-4.89,13.71c.31-.86-.7-2.12-2.64-3.15l.21-.59.21-.6.22-.62.23-.63.23-.64.23-.65.23-.66.24-.67.4-1.12.4-1.12.4-1.12.4-1.11.39-1.09.38-1.07.36-1,.36-1h0l-.53,1.5-1,2.67-.8,2.23-.4,1.12-2.2,6.18h0a12.25,12.25,0,0,0-2.53-1l.28-.79.07-.2.08-.2.07-.21.07-.2.53-1.48.55-1.54.56-1.56.56-1.57.55-1.56.55-1.53.52-1.47.5-1.4h0l-4.32,12.11-.57,1.6h0C250.87,147.69,249.23,147.66,248.37,148.17Z" transform="translate(0 -9.15)" style="fill:#d3272d"/><path d="M262.66,138.58l-4.89,13.71a1.08,1.08,0,0,1-.5.57c-.86.51-2.51.48-4.24,0a12.43,12.43,0,0,1-2.52-1c-1.95-1-2.95-2.29-2.65-3.14L252.75,135c-.31.86.7,2.12,2.65,3.15a12,12,0,0,0,2.52,1c1.73.47,3.38.49,4.23,0A1.08,1.08,0,0,0,262.66,138.58Z" transform="translate(0 -9.15)" style="fill:#ffbb7d"/><path d="M190.58,114.2l-4.89,13.71c-.34,1-2.3,1.24-4.73.59-2.77-.74-5.1-2.4-5.23-3.71a1,1,0,0,1,.05-.43l4.89-13.7a.88.88,0,0,0,0,.43c.12,1.31,2.46,3,5.22,3.71C188.28,115.45,190.23,115.17,190.58,114.2Z" transform="translate(0 -9.15)" style="fill:#ffbb7d"/><polygon points="253.45 111.59 248.56 125.29 228.65 137.15 233.54 123.45 253.45 111.59" style="fill:#f36b57"/><polygon points="246.31 125.51 241.42 139.21 228.65 137.15 233.54 123.45 246.31 125.51" style="fill:#d3272d"/><path d="M266.21,160q2.15-6,4.31-12.1h0Q268.36,153.9,266.21,160Z" transform="translate(0 -9.15)" style="fill:#d3272d"/><polygon points="240.13 105.6 235.24 119.31 220.21 137 225.1 123.29 240.13 105.6" style="fill:#d3272d"/><polygon points="225.1 123.29 220.21 137 213.15 128.33 218.04 114.62 225.1 123.29" style="fill:#d3272d"/><path d="M261.41,161.58a1.15,1.15,0,0,0-.51.57l4.89-13.7a1.09,1.09,0,0,1,.5-.57q-2.43,6.84-4.88,13.7,2.44-6.86,4.88-13.7c.86-.51,2.5-.48,4.23,0h0q-2.16,6-4.31,12.1l-.57,1.6.06-.19.07-.2.07-.2.08-.2.07-.2.07-.2.07-.2.08-.21.52-1.48.55-1.53.56-1.57.56-1.57.56-1.56.54-1.52.52-1.48.5-1.39a12.29,12.29,0,0,1,2.53,1h0q-2.44,6.84-4.88,13.7h0a12.37,12.37,0,0,0-2.54-1C263.91,161.1,262.27,161.07,261.41,161.58Z" transform="translate(0 -9.15)" style="fill:#d3272d"/><path d="M273.09,151.23,278,137.52c10.87,10,15.63,20.1,12.88,27.81L286,179C288.72,171.33,284,161.26,273.09,151.23Z" transform="translate(0 -9.15)" style="fill:#f36b57"/><path d="M268.17,162.55q2.44-6.86,4.88-13.7c1.95,1,2.95,2.28,2.65,3.14l-4.89,13.7C271.12,164.84,270.11,163.57,268.17,162.55Z" transform="translate(0 -9.15)" style="fill:#d3272d"/><path d="M275.7,152l-4.89,13.7a1.07,1.07,0,0,1-.51.57c-.85.51-2.49.49-4.22,0a12.25,12.25,0,0,1-2.53-1c-1.95-1-3-2.29-2.65-3.15l4.89-13.7c-.31.86.7,2.12,2.64,3.14a12.29,12.29,0,0,0,2.53,1c1.73.46,3.37.49,4.23,0A1.11,1.11,0,0,0,275.7,152Z" transform="translate(0 -9.15)" style="fill:#ffbb7d"/><path d="M270.52,147.86a12.29,12.29,0,0,1,2.53,1c2.45,1.29,3.41,3,2.14,3.71-.86.51-2.5.48-4.23,0a12.29,12.29,0,0,1-2.53-1c-2.45-1.29-3.41-3-2.14-3.71C267.15,147.37,268.79,147.4,270.52,147.86Z" transform="translate(0 -9.15)" style="fill:#ffbb7d"/><path d="M168.83,130.41c-2.44-.65-4.39-.37-4.73.59L169,117.3c.35-1,2.3-1.24,4.74-.59l-4.89,13.7,4.89-13.7c2.76.74,5.1,2.4,5.22,3.7a.88.88,0,0,1-.05.43L174,134.54a1,1,0,0,0,0-.43C173.93,132.81,171.6,131.15,168.83,130.41Z" transform="translate(0 -9.15)" style="fill:#d3272d"/><polygon points="218.04 114.62 213.15 128.33 201.88 135.44 206.77 121.74 218.04 114.62" style="fill:#d3272d"/><polygon points="250.79 147.21 245.9 160.91 231.97 147.23 236.86 133.53 250.79 147.21" style="fill:#d3272d"/><polygon points="246.31 125.51 241.42 139.21 231.97 147.23 236.86 133.53 246.31 125.51" style="fill:#f36b57"/><path d="M178.89,120.84,174,134.54c-.35,1-2.3,1.25-4.73.59-2.77-.74-5.11-2.4-5.23-3.7a.87.87,0,0,1,0-.43L169,117.3a1.18,1.18,0,0,0,0,.43c.13,1.3,2.47,3,5.24,3.7C176.6,122.08,178.55,121.81,178.89,120.84Z" transform="translate(0 -9.15)" style="fill:#ffbb7d"/><polygon points="206.77 121.74 201.88 135.44 176.89 129.85 181.78 116.14 206.77 121.74" style="fill:#d3272d"/><polygon points="191.22 123.14 186.34 136.84 176.89 129.85 181.78 116.14 191.22 123.14" style="fill:#f36b57"/><path d="M257.36,172.05a1.13,1.13,0,0,0-.51.58l4.89-13.71a1.11,1.11,0,0,1,.51-.57l-4.89,13.7,4.89-13.7c.85-.51,2.5-.48,4.23,0L261.59,172l4.89-13.7a12.76,12.76,0,0,1,2.52,1h0a1.25,1.25,0,0,0-.17.49l-1.32,3.69-2.07,5.79c-.44,1.25-.88,2.49-1.33,3.74l.21-.59.22-.6.22-.62.22-.63.23-.65.23-.65.24-.66.24-.66.4-1.12.4-1.12.4-1.13.39-1.11.39-1.09.38-1.06.37-1,.35-1c1.95,1,3,2.29,2.65,3.15l-4.89,13.7c.31-.86-.7-2.12-2.65-3.14a12,12,0,0,0-2.52-1C259.86,171.57,258.22,171.54,257.36,172.05Z" transform="translate(0 -9.15)" style="fill:#d3272d"/><path d="M271.65,162.46l-4.89,13.7a1.12,1.12,0,0,1-.51.58c-.85.5-2.5.48-4.23,0a12.17,12.17,0,0,1-2.52-1c-1.95-1-2.95-2.29-2.65-3.14l4.89-13.71c-.31.86.7,2.12,2.65,3.15a12.52,12.52,0,0,0,2.52,1c1.73.46,3.37.49,4.23,0A1.11,1.11,0,0,0,271.65,162.46Z" transform="translate(0 -9.15)" style="fill:#ffbb7d"/><path d="M290.86,165.33,286,179a15.59,15.59,0,0,1-7.13,8.05c-3.81,2.27-8.86,3.84-14.94,4.65l4.89-13.7a39.75,39.75,0,0,0,14.94-4.65A15.67,15.67,0,0,0,290.86,165.33Z" transform="translate(0 -9.15)" style="fill:#d3272d"/><polygon points="268.79 168.88 263.9 182.58 229.86 155.77 234.75 142.07 268.79 168.88" style="fill:#d3272d"/><polygon points="250.79 147.21 245.9 160.91 229.86 155.77 234.75 142.07 250.79 147.21" style="fill:#f36b57"/><path d="M173.72,116.71c2.76.74,5.1,2.4,5.22,3.7s-2,1.76-4.77,1-5.11-2.4-5.24-3.7S171,116,173.72,116.71Z" transform="translate(0 -9.15)" style="fill:#ffbb7d"/><polygon points="191.22 123.14 186.34 136.84 143.17 125.27 148.06 111.57 191.22 123.14" style="fill:#d3272d"/><path d="M143.86,128.44l4.89-13.7a13.68,13.68,0,0,0-.69,6l-4.89,13.7A13.85,13.85,0,0,1,143.86,128.44Z" transform="translate(0 -9.15)" style="fill:#d3272d"/><path d="M290.24,189.52l4.88-13.7A16.14,16.14,0,0,0,299.9,169L295,182.72A16.29,16.29,0,0,1,290.24,189.52Z" transform="translate(0 -9.15)" style="fill:#f36b57"/><polygon points="199.7 128.25 194.82 141.95 145.74 132.83 150.63 119.13 199.7 128.25" style="fill:#f36b57"/><polygon points="199.7 128.25 194.82 141.95 185.83 145.48 190.72 131.78 199.7 128.25" style="fill:#d3272d"/><polygon points="215.91 138.34 211.03 152.04 185.83 145.48 190.72 131.78 215.91 138.34" style="fill:#f36b57"/><path d="M180.56,142.51l-4.32,12.1,4.32-12.1Z" transform="translate(0 -9.15)" style="fill:#d3272d"/><polygon points="231.47 151.96 226.58 165.66 211.03 152.04 215.91 138.34 231.47 151.96" style="fill:#f36b57"/><polygon points="234.78 147.03 229.9 160.73 226.58 165.66 231.47 151.96 234.78 147.03" style="fill:#f36b57"/><path d="M175.67,156.21c-1.27,0-2,.37-2.26.95l4.89-13.7c.2-.58,1-1,2.26-1l-4.89,13.7.07-.19.07-.2.07-.2.07-.2.07-.2.08-.2.07-.2.07-.21.53-1.48.55-1.53.55-1.57.56-1.57.56-1.56.55-1.52.52-1.48.5-1.39a10.06,10.06,0,0,1,2.46.35h0c-1,2.88-2.05,5.77-3.08,8.65l-1.8,5.06q2.45-6.85,4.88-13.71a10.43,10.43,0,0,1,4.45,2.35c.68.68.91,1.3.74,1.78l-4.89,13.71c.17-.48-.06-1.11-.74-1.79a10.22,10.22,0,0,0-4.44-2.34A9.64,9.64,0,0,0,175.67,156.21Z" transform="translate(0 -9.15)" style="fill:#d3272d"/><path d="M188.21,147l-4.89,13.71c-.2.57-1,.94-2.26.94a9.19,9.19,0,0,1-2.47-.35,10.42,10.42,0,0,1-4.45-2.34c-.67-.68-.9-1.31-.73-1.79l4.89-13.7c-.17.48.06,1.1.73,1.78a10.43,10.43,0,0,0,4.45,2.35,9.61,9.61,0,0,0,2.47.35C187.22,147.93,188,147.57,188.21,147Z" transform="translate(0 -9.15)" style="fill:#ffbb7d"/><path d="M183,142.86a10.43,10.43,0,0,1,4.45,2.35c1.5,1.5.81,2.72-1.52,2.73a9.61,9.61,0,0,1-2.47-.35,10.43,10.43,0,0,1-4.45-2.35c-1.48-1.49-.81-2.72,1.53-2.73A10.06,10.06,0,0,1,183,142.86Z" transform="translate(0 -9.15)" style="fill:#ffbb7d"/><polygon points="258.04 170.46 253.16 184.16 229.9 160.73 234.78 147.03 258.04 170.46" style="fill:#f36b57"/><path d="M227.24,178.86l4.89-13.7c.67.68.9,1.3.73,1.78L228,180.64C228.14,180.16,227.91,179.54,227.24,178.86Z" transform="translate(0 -9.15)" style="fill:#d3272d"/><path d="M220.32,176.16c-1.27,0-2,.38-2.26,1l4.89-13.7c.2-.58,1-.94,2.25-.95l-4.88,13.7,4.88-13.7a9.61,9.61,0,0,1,2.47.35h0L226.18,167l-.4,1.11-.19.56-.41,1.13-.2.56q-1.09,3.09-2.2,6.17l.21-.58.22-.61.22-.61.22-.63.23-.65.23-.65.24-.66.24-.66.39-1.12.41-1.13.4-1.12.39-1.11.39-1.09.38-1.06.37-1,.35-1a10.53,10.53,0,0,1,4.46,2.35l-4.89,13.7h0a10.47,10.47,0,0,0-4.46-2.35A10.06,10.06,0,0,0,220.32,176.16Z" transform="translate(0 -9.15)" style="fill:#d3272d"/><path d="M195.6,169.39c-1.27,0-2,.38-2.26,1l4.89-13.7c.21-.58,1-.94,2.26-.95l-4.89,13.7,4.89-13.7A9.61,9.61,0,0,1,203,156a10.39,10.39,0,0,1,4.44,2.35c.68.68.91,1.3.74,1.78l-4.89,13.7c.17-.47-.05-1.1-.73-1.78a10.43,10.43,0,0,0-4.45-2.35A10.07,10.07,0,0,0,195.6,169.39ZM203,156h0l-.07.2-.07.19-.07.2-.07.2-.08.2-.07.2-.07.21-.07.2-.08.21-.07.21-.08.21-.07.21-.08.21-.08.22-.07.21-.08.22-.23.65-.24.67-.24.66-.24.68-.24.67-.24.67-.24.68-.24.67-.23.66-.24.66-.23.65-.23.65-.23.63-.22.61-.21.61-.21.58.21-.58.21-.61.22-.61.23-.63.23-.65.23-.65.24-.66.23-.66.24-.67.24-.68.24-.67.24-.67.24-.68.24-.66.24-.67.23-.65.08-.22.07-.21.08-.22.08-.21.07-.21.08-.21.07-.21.08-.21.07-.2.07-.21.07-.2.08-.2.07-.2.07-.2.07-.19.07-.2" transform="translate(0 -9.15)" style="fill:#d3272d"/><path d="M232.86,166.94,228,180.64c-.21.58-1,1-2.26,1a9.63,9.63,0,0,1-2.46-.36,10.36,10.36,0,0,1-4.46-2.34c-.67-.68-.9-1.31-.73-1.79l4.89-13.7c-.17.48.05,1.1.73,1.79a10.42,10.42,0,0,0,4.45,2.34,9.19,9.19,0,0,0,2.47.35C231.87,167.89,232.65,167.52,232.86,166.94Z" transform="translate(0 -9.15)" style="fill:#ffbb7d"/><path d="M227.67,162.81a10.53,10.53,0,0,1,4.46,2.35c1.48,1.5.8,2.72-1.53,2.73a9.19,9.19,0,0,1-2.47-.35,10.42,10.42,0,0,1-4.45-2.34c-1.49-1.5-.8-2.73,1.52-2.74A9.61,9.61,0,0,1,227.67,162.81Z" transform="translate(0 -9.15)" style="fill:#ffbb7d"/><path d="M208.14,160.17l-4.89,13.7c-.2.58-1,.95-2.26.95a9.19,9.19,0,0,1-2.47-.35,10.38,10.38,0,0,1-4.44-2.34c-.68-.68-.91-1.31-.74-1.79l4.89-13.7c-.17.48.06,1.1.73,1.78a10.43,10.43,0,0,0,4.45,2.35,10.07,10.07,0,0,0,2.47.35C207.15,161.12,207.93,160.75,208.14,160.17Z" transform="translate(0 -9.15)" style="fill:#ffbb7d"/><path d="M258,179.61l-4.88,13.7a134.83,134.83,0,0,1-34.73-5c-24.57-6.59-49.17-19-63.25-33.2A44.1,44.1,0,0,1,145.74,142l4.89-13.7a43.76,43.76,0,0,0,9.44,13.14c14.08,14.18,38.68,26.62,63.25,33.2A134.41,134.41,0,0,0,258,179.61Z" transform="translate(0 -9.15)" style="fill:#d3272d"/><path d="M133.32,132.24a15.85,15.85,0,0,1,.8-6.94L139,111.6a16,16,0,0,0-.79,6.94c2,21.14,40.09,48.11,84.88,60.11,33,8.85,60.6,7.14,72-2.83q-1.92,5.4-3.85,10.81c-.35,1-.69,1.93-1,2.89-11.43,10-39,11.68-72,2.84C173.41,180.35,135.33,153.39,133.32,132.24Z" transform="translate(0 -9.15)" style="fill:#f36b57"/><path d="M315,174.39l-4.89,13.71c-6.65,18.63-44.31,24-91.2,11.44-53.19-14.25-98.41-46.27-100.79-71.38a18.86,18.86,0,0,1,.94-8.23l4.89-13.71a18.77,18.77,0,0,0-.94,8.24c2.38,25.1,47.6,57.12,100.79,71.38C270.66,198.4,308.33,193,315,174.39Z" transform="translate(0 -9.15)" style="fill:#db1c24"/><path d="M315.92,166.16c-2.38-25.11-47.59-57.13-100.79-71.38S120.6,89.36,123,114.46s47.61,57.12,100.8,71.38S318.31,191.26,315.92,166.16Zm-92.83,12.49c-44.79-12-82.88-39-84.88-60.11S171,90,215.81,102s82.88,39,84.89,60.12-32.8,28.58-77.61,16.57" transform="translate(0 -9.15)" style="fill:#db1c24"/><path d="M255.4,138.19a12,12,0,0,0,2.52,1c1.73.47,3.38.49,4.23,0,1.28-.77.32-2.43-2.13-3.72a12.29,12.29,0,0,0-2.53-1c-1.73-.46-3.37-.49-4.23,0C252,135.23,252.94,136.89,255.4,138.19Z" transform="translate(0 -9.15)" style="fill:#ffbb7d"/><path d="M234.79,156.18,258,179.61a134.41,134.41,0,0,1-34.72-5c-24.57-6.58-49.17-19-63.25-33.2a43.76,43.76,0,0,1-9.44-13.14l49.07,9.12-9,3.53,25.19,6.56,15.56,13.62Zm-4.19,11.71c2.33,0,3-1.23,1.53-2.73a10.53,10.53,0,0,0-4.46-2.35,9.61,9.61,0,0,0-2.47-.35c-2.32,0-3,1.24-1.52,2.74a10.42,10.42,0,0,0,4.45,2.34,9.19,9.19,0,0,0,2.47.35m-24.72-6.77c2.33,0,3-1.23,1.52-2.73A10.39,10.39,0,0,0,203,156a9.61,9.61,0,0,0-2.47-.35c-2.34,0-3,1.24-1.53,2.73a10.43,10.43,0,0,0,4.45,2.35,10.07,10.07,0,0,0,2.47.35M186,147.94c2.33,0,3-1.23,1.52-2.73a10.43,10.43,0,0,0-4.45-2.35,10.06,10.06,0,0,0-2.46-.35c-2.34,0-3,1.24-1.53,2.73a10.43,10.43,0,0,0,4.45,2.35,9.61,9.61,0,0,0,2.47.35" transform="translate(0 -9.15)" style="fill:#d3272d"/><path d="M215.81,102c44.8,12,82.88,39,84.89,60.12s-32.8,28.58-77.61,16.57-82.88-39-84.88-60.11S171,90,215.81,102Zm53,76.07a39.75,39.75,0,0,0,14.94-4.65c17.93-10.69,4.26-34.45-30.28-52.64L233.54,132.6l12.77,2.06-9.45,8,13.93,13.68-16-5.14,34,26.81m-45.47-3.41a134.41,134.41,0,0,0,34.72,5l-23.25-23.43-3.32,4.93-15.56-13.62-25.19-6.56,9-3.53-49.07-9.12a43.76,43.76,0,0,0,9.44,13.14c14.08,14.18,38.68,26.62,63.25,33.2m-7.58-68.36c-38.87-10.42-69.42-3.89-67.68,14.46l43.16,11.56-9.44-7,25,5.6L218,123.77l7.06,8.67,15-17.69a176.93,176.93,0,0,0-24.39-8.49" transform="translate(0 -9.15)" style="fill:#f36b57"/><path d="M185.84,114.8c2.77.74,4.91.28,4.79-1s-2.47-3-5.24-3.7-4.9-.28-4.77,1S183.08,114.05,185.84,114.8Z" transform="translate(0 -9.15)" style="fill:#ffbb7d"/><path d="M151.3,110.43c-.18.2-.34.4-.51.61a15.6,15.6,0,0,0-.89,1.29c-.13.22-.26.44-.38.67a12.65,12.65,0,0,0-.65,1.4c-.09.24-.18.48-.26.73A13.43,13.43,0,0,0,148,119a13.89,13.89,0,0,0,.07,1.69l43.16,11.56-9.44-7h0l25,5.6L218,123.77l7.06,8.67,15-17.69a176.93,176.93,0,0,0-24.39-8.49,133.92,133.92,0,0,0-34.73-5h0C167,101.36,156.39,104.57,151.3,110.43Zm22.87,11c-2.77-.74-5.11-2.4-5.24-3.7s2-1.76,4.79-1,5.1,2.4,5.22,3.7-2,1.76-4.77,1m35.21-8.65c2.76.74,5.1,2.4,5.22,3.7s-2,1.76-4.77,1-5.11-2.4-5.23-3.7,2-1.76,4.78-1m-18.75,1c.12,1.31-2,1.77-4.79,1s-5.1-2.4-5.22-3.71,2-1.76,4.77-1,5.11,2.4,5.24,3.7" transform="translate(0 -9.15)" style="fill:#d3272d"/><path d="M209.38,112.78c-2.76-.74-4.91-.28-4.78,1s2.46,3,5.23,3.7,4.9.29,4.77-1S212.14,113.52,209.38,112.78Z" transform="translate(0 -9.15)" style="fill:#ffbb7d"/><path d="M266.48,158.33a12.76,12.76,0,0,1,2.52,1c2.46,1.3,3.42,3,2.14,3.72-.86.51-2.5.48-4.23,0a12.52,12.52,0,0,1-2.52-1c-2.46-1.3-3.41-3-2.14-3.72C263.1,157.84,264.75,157.87,266.48,158.33Z" transform="translate(0 -9.15)" style="fill:#ffbb7d"/><path d="M253.45,120.74c34.54,18.19,48.21,42,30.28,52.64A39.75,39.75,0,0,1,268.79,178l-34-26.81,16,5.14-13.93-13.68,9.45-8-12.77-2.06Zm2,17.45a12,12,0,0,0,2.52,1c1.73.47,3.38.49,4.23,0,1.28-.77.32-2.43-2.13-3.72a12.29,12.29,0,0,0-2.53-1c-1.73-.46-3.37-.49-4.23,0-1.27.76-.31,2.42,2.14,3.72M271.14,163c1.28-.76.32-2.42-2.14-3.72a12.76,12.76,0,0,0-2.52-1c-1.73-.46-3.38-.49-4.23,0-1.27.76-.32,2.42,2.14,3.72a12.52,12.52,0,0,0,2.52,1c1.73.46,3.37.49,4.23,0m4.05-10.47c1.27-.76.31-2.42-2.14-3.71a12.29,12.29,0,0,0-2.53-1c-1.73-.46-3.37-.49-4.23,0-1.27.76-.31,2.42,2.14,3.71a12.29,12.29,0,0,0,2.53,1c1.73.46,3.37.49,4.23,0" transform="translate(0 -9.15)" style="fill:#d3272d"/><path d="M203,156a10.39,10.39,0,0,1,4.44,2.35c1.5,1.5.81,2.72-1.52,2.73a10.07,10.07,0,0,1-2.47-.35,10.43,10.43,0,0,1-4.45-2.35c-1.48-1.49-.81-2.72,1.53-2.73A9.61,9.61,0,0,1,203,156Z" transform="translate(0 -9.15)" style="fill:#ffbb7d"/></g><g style="isolation:isolate"><path d="M146.57,83.86,149.26,97A78.22,78.22,0,0,0,137,119.06c-3.33,9.92-2.23,15.68-.69,28.9,4.39,37.62,2.14,47.89-.29,55.18A97.56,97.56,0,0,1,127,222.46l-2.69-13.14A97.28,97.28,0,0,0,133.37,190c2.43-7.29,4.68-17.56.29-55.17-1.54-13.23-2.64-19,.7-28.91C137.41,96.81,142.57,89.09,146.57,83.86Z" transform="translate(0 -9.15)" style="fill:#f65656"/><path d="M141,135.09,138.3,122a27.41,27.41,0,0,1,.55-13.94c2.78-10.33,8.86-19.13,13.45-24.86L155,96.29c-4.59,5.73-10.67,14.54-13.45,24.87A27.37,27.37,0,0,0,141,135.09Z" transform="translate(0 -9.15)" style="fill:#c1272d"/><path d="M120.49,146.16,117.8,133a40.63,40.63,0,0,1,.13-16.8c2.63-12.84,9.89-23.83,15.21-30.72l2.68,13.14c-5.31,6.89-12.58,17.88-15.2,30.71A40.63,40.63,0,0,0,120.49,146.16Z" transform="translate(0 -9.15)" style="fill:#eebf77"/><path d="M125.68,158.07l2.68,13.13c-1.92-9.41-6.11-16.4-7.87-25L117.8,133C119.57,141.67,123.75,148.65,125.68,158.07Z" transform="translate(0 -9.15)" style="fill:#f65656"/><path d="M102.59,89.26l2.69,13.14C93,118.94,89.31,131.59,88.14,140c-.92,6.56,0,14.14,1.75,29.3,2.14,18.25,3.92,21.32,3,30.14-1.26,12-6.2,22.1-9.88,28.44l-2.68-13.14c3.67-6.34,8.61-16.49,9.87-28.44.94-8.82-.85-11.89-3-30.14-1.78-15.16-2.67-22.74-1.76-29.29C86.62,118.45,90.35,105.81,102.59,89.26Z" transform="translate(0 -9.15)" style="fill:#c1272d"/><path d="M116,87.61l2.69,13.14a110.48,110.48,0,0,0-12,32.65c-3.82,20.9,2.34,29.8,1.29,49.91-.5,9.77-2.81,24.26-11.54,42.9l-2.69-13.14c8.73-18.64,11-33.13,11.55-42.89,1-20.12-5.12-29-1.3-49.92A110.48,110.48,0,0,1,116,87.61Z" transform="translate(0 -9.15)" style="fill:#f65656"/><path d="M125.68,158.07l2.68,13.13a48.63,48.63,0,0,1,.93,7.17c.54,9.8-1.56,25-15.74,45.74L110.86,211c14.19-20.77,16.28-35.94,15.74-45.74A48.35,48.35,0,0,0,125.68,158.07Z" transform="translate(0 -9.15)" style="fill:#eebf77"/><path d="M133.14,85.51c-5.32,6.89-12.58,17.88-15.21,30.72-4.34,21.17,7.61,29.6,8.67,49,.54,9.8-1.55,25-15.74,45.74l-17.11,2.1c8.73-18.64,11-33.13,11.55-42.89,1-20.12-5.12-29-1.3-49.92a110.48,110.48,0,0,1,12-32.65Z" transform="translate(0 -9.15)" style="fill:#eebf77"/><polygon points="137.13 198.6 139.81 211.74 70.17 220.29 67.49 207.15 137.13 198.6" style="fill:#c1272d"/><polygon points="124.3 200.18 126.99 213.31 83 218.71 80.32 205.58 124.3 200.18" style="fill:#f65656"/><polygon points="110.86 201.82 113.55 214.96 96.44 217.06 93.75 203.93 110.86 201.82" style="fill:#eebf77"/><path d="M146.57,83.86c-4,5.23-9.16,13-12.21,22.06-3.34,9.92-2.24,15.68-.7,28.91,4.39,37.61,2.14,47.88-.29,55.17a97.28,97.28,0,0,1-9.07,19.32l-44,5.4c3.67-6.34,8.61-16.49,9.87-28.44.94-8.82-.85-11.89-3-30.14-1.78-15.16-2.67-22.74-1.76-29.29,1.17-8.4,4.9-21,17.14-37.59L116,87.61a110.48,110.48,0,0,0-12,32.65c-3.82,20.9,2.34,29.8,1.3,49.92-.5,9.76-2.82,24.25-11.55,42.89l17.11-2.1c14.19-20.77,16.28-35.94,15.74-45.74-1.06-19.4-13-27.83-8.67-49,2.63-12.84,9.89-23.83,15.21-30.72Z" transform="translate(0 -9.15)" style="fill:#f65656"/><path d="M141.58,135.7l2.69,13.13c.51,2.51,1,5.35,1.45,8.65a154.9,154.9,0,0,1-.32,39.8,121.9,121.9,0,0,1-5.59,23.6l-2.68-13.13a123,123,0,0,0,5.59-23.61,155.81,155.81,0,0,0,.32-39.8C142.59,141.05,142.09,138.2,141.58,135.7Z" transform="translate(0 -9.15)" style="fill:#c1272d"/><path d="M152.3,83.16c-4.59,5.73-10.67,14.53-13.45,24.86-3.48,12.89,1.45,15.94,4.19,36.32a155.81,155.81,0,0,1-.32,39.8,123,123,0,0,1-5.59,23.61L67.49,216.3a88.56,88.56,0,0,0,9-23.37c2.87-13.09,0-17.46-.47-40.39-.25-12.67-.38-19.08,1.29-28a115.62,115.62,0,0,1,12.44-33.7l12.83-1.58c-12.24,16.55-16,29.19-17.14,37.59-.91,6.55,0,14.13,1.76,29.29,2.13,18.25,3.92,21.32,3,30.14-1.26,11.95-6.2,22.1-9.87,28.44l44-5.4A97.28,97.28,0,0,0,133.37,190c2.43-7.29,4.68-17.56.29-55.17-1.54-13.23-2.64-19,.7-28.91,3-9.11,8.21-16.83,12.21-22.06Z" transform="translate(0 -9.15)" style="fill:#c1272d"/></g><g style="isolation:isolate"><path d="M310.23,167.79l-1.29,13.8a215.83,215.83,0,0,0-22.21-14.66C277.4,161.52,263.16,154,199,128c-22.57-9.13-32.81-13.06-45.47-20.43a135.61,135.61,0,0,1-23.57-17l1.3-13.8a134.28,134.28,0,0,0,23.57,17c12.65,7.37,22.9,11.3,45.46,20.44,64.18,26,78.43,33.47,87.75,38.88A218.09,218.09,0,0,1,310.23,167.79Z" transform="translate(0 -9.15)" style="fill:#c1272d"/><path d="M300.08,170.51l-1.29,13.8c-19.66-16.28-41.87-27.2-58-34-32-13.54-56.77-18.09-86.43-33.5-18-9.34-28.6-17.92-34.55-23.39l1.3-13.8c5.94,5.47,16.56,14,34.55,23.39,29.66,15.41,54.46,20,86.42,33.5C258.21,143.31,280.43,154.24,300.08,170.51Z" transform="translate(0 -9.15)" style="fill:#f65656"/><path d="M121.09,79.58c5.94,5.47,16.56,14,34.55,23.39,29.66,15.41,54.46,20,86.42,33.5,16.15,6.84,38.37,17.77,58,34L287.17,174a435.34,435.34,0,0,0-57.46-31.55c-31.1-14.28-51.17-19.83-80.89-35A316.91,316.91,0,0,1,108.17,83Z" transform="translate(0 -9.15)" style="fill:#eebf77"/><polygon points="300.08 161.36 298.79 175.16 285.88 178.62 287.17 164.82 300.08 161.36" style="fill:#eebf77"/><path d="M287.17,174l-1.29,13.8a436,436,0,0,0-57.47-31.55c-31.09-14.28-51.16-19.84-80.88-35a319.28,319.28,0,0,1-40.65-24.38L108.17,83a316.91,316.91,0,0,0,40.65,24.38c29.72,15.17,49.79,20.72,80.89,35A435.34,435.34,0,0,1,287.17,174Z" transform="translate(0 -9.15)" style="fill:#eebf77"/><path d="M277,176.69l-1.3,13.79c-6.62-4.89-18.12-12.61-36-21.17C226.56,163,220,161,188.81,148.43,162.93,138,150,132.72,140.41,128c-12.29-6-28.91-15.39-43.67-28.45L98,85.76c14.76,13.07,31.39,22.4,43.68,28.45,9.58,4.72,22.52,10,48.4,20.43,31.15,12.6,37.74,14.56,50.93,20.87A220.91,220.91,0,0,1,277,176.69Z" transform="translate(0 -9.15)" style="fill:#f65656"/><polygon points="310.23 158.64 308.94 172.44 275.74 181.34 277.03 167.54 310.23 158.64" style="fill:#f65656"/><path d="M131.24,76.86a134.28,134.28,0,0,0,23.57,17c12.65,7.37,22.9,11.3,45.46,20.44,64.18,26,78.43,33.47,87.75,38.88a218.09,218.09,0,0,1,22.21,14.66l-33.2,8.9a220.91,220.91,0,0,0-36-21.18c-13.19-6.31-19.78-8.27-50.93-20.87-25.88-10.47-38.82-15.71-48.4-20.43-12.29-6-28.92-15.38-43.68-28.45L108.17,83a316.91,316.91,0,0,0,40.65,24.38c29.72,15.17,49.79,20.72,80.89,35A435.34,435.34,0,0,1,287.17,174l12.91-3.46c-19.65-16.27-41.87-27.2-58-34-32-13.54-56.76-18.09-86.42-33.5-18-9.34-28.61-17.92-34.55-23.39Z" transform="translate(0 -9.15)" style="fill:#f65656"/><polygon points="319.92 156.05 318.62 169.84 266.05 183.93 267.35 170.13 319.92 156.05" style="fill:#c1272d"/><path d="M135.55,75.71c4.78,4.56,13.06,11.47,26.88,19.06,17.25,9.48,26.81,11.06,61.93,25.09,17.58,7,39.94,16.7,63.2,28.07,14.64,7.15,25.54,13.28,32.36,17.27l-52.57,14.08a246.79,246.79,0,0,0-28.71-17.49c-18.18-9.56-27.87-12.3-64.9-28.4-20.45-8.88-30.81-13.39-43.45-19.86A332.63,332.63,0,0,1,88.35,88.35L98,85.76c14.76,13.07,31.39,22.4,43.68,28.45,9.58,4.72,22.52,10,48.4,20.43,31.15,12.6,37.74,14.56,50.93,20.87a220.91,220.91,0,0,1,36,21.18l33.2-8.9A218.09,218.09,0,0,0,288,153.13c-9.32-5.41-23.57-12.9-87.75-38.88-22.56-9.14-32.81-13.07-45.46-20.44a134.28,134.28,0,0,1-23.57-17Z" transform="translate(0 -9.15)" style="fill:#c1272d"/><path d="M267.35,179.28l-1.3,13.8a244.77,244.77,0,0,0-28.71-17.5c-18.17-9.55-27.87-12.29-64.9-28.39C152,138.3,141.63,133.8,129,127.33a332.93,332.93,0,0,1-41.95-25.18l1.3-13.8a332.63,332.63,0,0,0,41.94,25.18c12.64,6.47,23,11,43.45,19.86,37,16.1,46.72,18.84,64.9,28.4A246.79,246.79,0,0,1,267.35,179.28Z" transform="translate(0 -9.15)" style="fill:#c1272d"/></g><g style="isolation:isolate"><path d="M126.76,101.08c-2,.55-3.1,1.42-3.19,2.39l1-11c.09-1,1.16-1.84,3.19-2.38A21.84,21.84,0,0,1,137,90q-.51,5.52-1,11A22,22,0,0,0,126.76,101.08Z" transform="translate(0 -9.15)" style="fill:#f6b319"/><path d="M136,101q.53-5.52,1-11a17.83,17.83,0,0,1,4.46,1.44c1.75.89,2.57,1.91,2.48,2.84l-1,11c.09-.92-.73-1.94-2.49-2.83A17.18,17.18,0,0,0,136,101Z" transform="translate(0 -9.15)" style="fill:#f6b319"/><path d="M177.76,100c-6.49,1.74-9.92,4.53-10.22,7.63l1-11c.29-3.09,3.73-5.89,10.21-7.63,9.54-2.55,23-2.09,33.9.76q-.52,5.52-1,11C200.71,97.9,187.29,97.43,177.76,100Z" transform="translate(0 -9.15)" style="fill:#f6b319"/><polygon points="325.4 125.06 324.36 136.1 176.58 61.03 177.62 49.99 325.4 125.06" style="fill:#fbc500"/><path d="M221.52,104.36a50,50,0,0,0-9.87-3.61q.53-5.52,1-11a49.58,49.58,0,0,1,9.87,3.62c5.6,2.85,8.22,6.09,7.94,9.07l-1,11C229.75,110.46,227.13,107.21,221.52,104.36Z" transform="translate(0 -9.15)" style="fill:#f6b319"/><ellipse cx="134.27" cy="93.34" rx="3.72" ry="9.71" transform="translate(28.8 209.16) rotate(-84.64)" style="fill:#f7931e"/><path d="M143.94,94.25l-1,11c-.09,1-1.17,1.84-3.19,2.39a22.21,22.21,0,0,1-13.67-1.37c-1.75-.89-2.57-1.9-2.48-2.83l1-11c-.09.93.73,1.94,2.48,2.83a22.17,22.17,0,0,0,13.66,1.37C142.78,96.09,143.85,95.21,143.94,94.25Z" transform="translate(0 -9.15)" style="fill:#f7931e"/><path d="M230.51,102.4l-1,11c-.29,3.1-3.73,5.9-10.22,7.64-12.71,3.4-32.3,1.45-43.75-4.37-5.62-2.86-8.24-6.1-8-9.08l1-11c-.28,3,2.34,6.22,7.95,9.07,11.46,5.82,31.05,7.78,43.75,4.37C226.77,108.29,230.21,105.49,230.51,102.4Z" transform="translate(0 -9.15)" style="fill:#f7931e"/><path d="M178.79,89c12.71-3.4,32.3-1.44,43.77,4.38s10.44,13.3-2.28,16.7-32.29,1.45-43.75-4.37S166.08,92.36,178.79,89Z" transform="translate(0 -9.15)" style="fill:#f7931e"/><path d="M170.36,121.42q.52-5.52,1-11l.62,0q-.51,5.52-1,11Z" transform="translate(0 -9.15)" style="fill:#f6b319"/><path d="M170.36,121.42a15.28,15.28,0,0,0-2.68.45q.52-5.52,1-11a15.15,15.15,0,0,1,2.68-.44Q170.88,115.9,170.36,121.42Z" transform="translate(0 -9.15)" style="fill:#f6b319"/><path d="M167.68,121.87c-2,.54-3.1,1.42-3.19,2.38l1-11c.09-1,1.17-1.84,3.19-2.39h0q-.53,5.52-1,11Z" transform="translate(0 -9.15)" style="fill:#f6b319"/><path d="M181.34,123.24A22.08,22.08,0,0,0,171,121.38q.51-5.52,1-11a22.24,22.24,0,0,1,10.36,1.86c1.75.89,2.57,1.9,2.48,2.83l-1,11C183.91,125.14,183.09,124.13,181.34,123.24Z" transform="translate(0 -9.15)" style="fill:#f6b319"/><polygon points="177.62 49.99 176.58 61.03 12.66 104.95 13.7 93.91 177.62 49.99" style="fill:#fbc500"/><path d="M70.78,107.7c-7.05,1.89-10.79,4.93-11.11,8.3l1-11c.32-3.37,4.07-6.41,11.12-8.3a64.15,64.15,0,0,1,17.85-1.79q-.51,5.5-1,11A64.65,64.65,0,0,0,70.78,107.7Z" transform="translate(0 -9.15)" style="fill:#f6b319"/><path d="M118.38,112.46c-7.79-3.95-19-6.27-29.74-6.55q.51-5.52,1-11c10.71.27,22,2.59,29.74,6.55,6.11,3.1,9,6.63,8.65,9.87l-1,11C127.34,119.1,124.48,115.56,118.38,112.46Z" transform="translate(0 -9.15)" style="fill:#f6b319"/><ellipse cx="175.19" cy="114.12" rx="3.72" ry="9.71" transform="translate(45.2 268.74) rotate(-84.64)" style="fill:#f7931e"/><path d="M184.86,115l-1,11c-.1,1-1.17,1.84-3.2,2.38A22.18,22.18,0,0,1,167,127.09c-1.75-.89-2.57-1.91-2.48-2.84l1-11c-.08.93.73,1.94,2.49,2.83a22.17,22.17,0,0,0,13.66,1.37C183.7,116.87,184.77,116,184.86,115Z" transform="translate(0 -9.15)" style="fill:#f7931e"/><path d="M153.56,137.12l-.67-.19q.53-5.52,1-11c.22,0,.44.12.66.18Q154.08,131.6,153.56,137.12Z" transform="translate(0 -9.15)" style="fill:#f6b319"/><path d="M153.56,137.12q.51-5.52,1-11A14.88,14.88,0,0,1,157,127h0q-.51,5.5-1,11h0A14.41,14.41,0,0,0,153.56,137.12Z" transform="translate(0 -9.15)" style="fill:#f6b319"/><path d="M128.07,111.29l-1,11c-.32,3.37-4.06,6.41-11.11,8.3-13.83,3.71-35.14,1.58-47.6-4.75-6.11-3.1-9-6.64-8.65-9.87l1-11c-.3,3.24,2.55,6.77,8.65,9.87,12.47,6.33,33.78,8.46,47.61,4.76C124,117.71,127.75,114.66,128.07,111.29Z" transform="translate(0 -9.15)" style="fill:#f7931e"/><path d="M142.31,136.7c-2,.54-3.1,1.41-3.19,2.38l1-11c.09-1,1.17-1.84,3.19-2.38a22.56,22.56,0,0,1,10.59.24q-.52,5.5-1,11A22.51,22.51,0,0,0,142.31,136.7Z" transform="translate(0 -9.15)" style="fill:#f6b319"/><path d="M158.45,140.89c.09-.92-.72-1.94-2.47-2.83q.51-5.52,1-11c1.75.89,2.57,1.9,2.48,2.83C159.18,133.17,158.77,137.58,158.45,140.89Z" transform="translate(0 -9.15)" style="fill:#f6b319"/><path d="M159.49,129.86l-1,11c-.1,1-1.17,1.84-3.2,2.39a22.18,22.18,0,0,1-13.66-1.37c-1.75-.89-2.57-1.9-2.48-2.83l1-11c-.08.93.73,1.94,2.49,2.84a22.24,22.24,0,0,0,13.66,1.36C158.33,131.7,159.4,130.82,159.49,129.86Z" transform="translate(0 -9.15)" style="fill:#f7931e"/><path d="M195.89,144.48c-5,1.35-7.7,3.52-7.93,5.93l1-11c.23-2.4,2.9-4.58,7.94-5.93,6.16-1.65,14.41-1.67,21.9-.36q-.51,5.52-1,11C210.31,142.8,202.06,142.83,195.89,144.48Z" transform="translate(0 -9.15)" style="fill:#f6b319"/><path d="M229.84,147.87a44.14,44.14,0,0,0-12-3.75q.51-5.52,1-11a43.86,43.86,0,0,1,12,3.76c4.35,2.21,6.39,4.73,6.17,7l-1,11C236.23,152.61,234.2,150.09,229.84,147.87Z" transform="translate(0 -9.15)" style="fill:#f6b319"/><path d="M237.05,143.88l-1,11c-.23,2.41-2.9,4.58-7.93,5.93-9.86,2.64-25.07,1.12-34-3.4-4.36-2.21-6.39-4.73-6.17-7l1-11c-.21,2.31,1.82,4.83,6.17,7,8.89,4.51,24.1,6,34,3.39C234.16,148.45,236.83,146.28,237.05,143.88Z" transform="translate(0 -9.15)" style="fill:#f7931e"/><polygon points="325.4 125.06 324.36 136.1 160.45 180.02 161.48 168.99 325.4 125.06" style="fill:#f6b319"/><polygon points="161.48 168.99 160.45 180.02 12.66 104.95 13.7 93.91 161.48 168.99" style="fill:#f6b319"/><path d="M1,101.8,178.27,54.31l159.79,81.17L160.83,183ZM325.4,134.21,177.62,59.14,13.7,103.06l147.78,75.07L325.4,134.21" transform="translate(0 -9.15)" style="fill:#fbc500"/><path d="M196.93,133.44c9.86-2.64,25.06-1.12,33.95,3.4s8.11,10.32-1.75,13-25.08,1.12-34-3.39S187.06,136.09,196.93,133.44Z" transform="translate(0 -9.15)" style="fill:#f7931e"/><path d="M13.7,103.06l147.78,75.07L325.4,134.21,177.62,59.14ZM117,119.6c-13.82,3.7-35.13,1.57-47.6-4.76S58,100.37,71.82,96.67s35.13-1.58,47.59,4.76,11.37,14.46-2.46,18.17m10.14-24.34c-3.58-1.81-3.26-4.15.71-5.21a22.18,22.18,0,0,1,13.66,1.36c3.58,1.82,3.26,4.16-.71,5.22a22.17,22.17,0,0,1-13.66-1.37m29.21,37a22.24,22.24,0,0,1-13.66-1.36c-3.58-1.82-3.27-4.16.7-5.22A22.27,22.27,0,0,1,157,127c3.58,1.82,3.26,4.16-.71,5.22m25.37-14.82A22.17,22.17,0,0,1,168,116.05c-3.58-1.82-3.27-4.15.7-5.22a22.21,22.21,0,0,1,13.67,1.37c3.58,1.82,3.26,4.15-.71,5.22m47.46,32.38c-9.87,2.64-25.08,1.12-34-3.39s-8.1-10.32,1.77-13,25.06-1.12,33.95,3.4,8.11,10.32-1.75,13m-6.57-56.47C234,99.15,233,106.63,220.28,110s-32.29,1.45-43.75-4.37S166.08,92.36,178.79,89s32.3-1.44,43.77,4.38" transform="translate(0 -9.15)" style="fill:#f6b319"/><path d="M71.82,96.67c-13.83,3.7-14.93,11.84-2.47,18.17s33.78,8.46,47.61,4.76,14.92-11.84,2.45-18.17S85.64,93,71.82,96.67Z" transform="translate(0 -9.15)" style="fill:#f7931e"/><ellipse cx="149.82" cy="128.95" rx="3.72" ry="9.71" transform="translate(7.44 256.92) rotate(-84.64)" style="fill:#f7931e"/><polygon points="160.83 173.82 159.79 184.86 0 103.68 1.04 92.65 160.83 173.82" style="fill:#fbc500"/><polygon points="338.06 126.33 337.03 137.37 159.79 184.86 160.83 173.82 338.06 126.33" style="fill:#fbc500"/></g><g style="isolation:isolate"><polygon points="128.2 27.49 127.04 59.01 127.08 57.97 128.23 26.44 128.2 27.49" style="fill:#f1a463"/><path d="M241.4,39.73l-1.15,31.52c.17-4.81-2.94-9.69-9-13.94-16.9-11.88-52-16.22-78.22-9.68-15.95,4-25.65,11.26-25.95,19.49l1.15-31.53c.31-8.23,10-15.51,26-19.49,26.24-6.54,61.33-2.2,78.23,9.68C238.46,30,241.58,34.91,241.4,39.73Z" transform="translate(0 -9.15)" style="fill:#8c6239"/><path d="M250.4,40.05l-1.16,31.53a11.49,11.49,0,0,1-.24,2l1.16-31.53A13.77,13.77,0,0,0,250.4,40.05Z" transform="translate(0 -9.15)" style="fill:#8c6239"/><polygon points="319.35 88.75 318.19 120.28 239.72 65.11 240.88 33.59 319.35 88.75" style="fill:#8c6239"/><path d="M240.25,71.25a10.94,10.94,0,0,1-.35,2.33l1.16-31.53a10.33,10.33,0,0,0,.34-2.33C241.06,49.18,240.59,61.79,240.25,71.25Z" transform="translate(0 -9.15)" style="fill:#f1a463"/><polygon points="241.06 32.9 239.9 64.43 239.72 65.11 240.88 33.59 241.06 32.9" style="fill:#f1a463"/><polygon points="104.12 33.49 102.96 65.02 100.76 64.53 101.92 33.01 104.12 33.49" style="fill:#8c6239"/><polygon points="128.2 27.49 127.04 59.01 102.96 65.02 104.12 33.49 128.2 27.49" style="fill:#8c6239"/><path d="M21.53,93.45l1.16-31.52C23,54,32.11,46.54,48.62,42.42c15.95-4,35.87-4.07,53.3-.26l-1.16,31.52C83.33,69.87,63.42,70,47.47,74,31,78.07,21.82,85.53,21.53,93.45Z" transform="translate(0 -9.15)" style="fill:#8c6239"/><path d="M30.52,107.35c-6.26-4.4-9.16-9.23-9-13.89l1.16-31.53c-.17,4.67,2.73,9.49,9,13.9,5.83,4.1,14.17,7.47,23.89,9.7Q55,101.3,54.41,117.06C44.69,114.83,36.36,111.46,30.52,107.35Z" transform="translate(0 -9.15)" style="fill:#f1a463"/><path d="M54.41,117.06q.59-15.77,1.16-31.53c2,.46,4.06.87,6.16,1.23l-1.16,31.53C58.47,117.93,56.41,117.52,54.41,117.06Z" transform="translate(0 -9.15)" style="fill:#f1a463"/><polygon points="63.26 77.87 62.1 109.4 60.57 109.14 61.73 77.61 63.26 77.87" style="fill:#f1a463"/><path d="M12.54,93.13,13.7,61.6c-.2,5.41,3.15,11,10.41,16.11,7.86,5.53,19.65,9.91,33.3,12.41l-1.15,31.52c-13.66-2.49-25.44-6.88-33.3-12.4C15.7,104.14,12.34,98.54,12.54,93.13Z" transform="translate(0 -9.15)" style="fill:#8c6239"/><polygon points="319.35 88.75 318.19 120.28 140.58 164.57 141.73 133.04 319.35 88.75" style="fill:#f1a463"/><polygon points="141.73 133.04 140.58 164.57 62.1 109.4 63.26 77.87 141.73 133.04" style="fill:#f1a463"/><path d="M154.18,16.1c26.24-6.54,61.33-2.2,78.23,9.68,7,4.95,10.1,10.72,8.65,16.27l-.18.69L319.35,97.9,141.73,142.19,63.26,87l-1.53-.26c-12.34-2.11-23-6-30-10.93C14.78,64,22.39,49,48.62,42.42c15.95-4,35.87-4.07,53.3-.26l2.2.48,24.08-6,0-1C128.54,27.36,138.23,20.08,154.18,16.1Z" transform="translate(0 -9.15)" style="fill:#f1a463"/><polygon points="331.78 90.29 330.63 121.82 137.88 169.88 139.04 138.35 331.78 90.29" style="fill:#8c6239"/><path d="M149.31,12.68C179.72,5.1,220.39,10.13,240,23.89c7.86,5.53,11.46,12,10.19,18.17l81.62,57.38L139,147.5,57.41,90.12C43.76,87.62,32,83.24,24.11,77.71,4.53,64,13.34,46.58,43.75,39c17.8-4.44,39.87-4.71,59.51-.78l16.06-4C120.43,25.11,131.51,17.12,149.31,12.68Zm91.75,29.37c1.45-5.55-1.62-11.32-8.65-16.27-16.9-11.88-52-16.22-78.23-9.68-16,4-25.64,11.26-26,19.49l0,1-24.08,6-2.2-.48c-17.43-3.81-37.35-3.71-53.3.26C22.39,49,14.78,64,31.68,75.83c7,4.94,17.71,8.82,30.05,10.93l1.53.26,78.47,55.17L319.35,97.9,240.88,42.74l.18-.69" transform="translate(0 -9.15)" style="fill:#8c6239"/><polygon points="139.04 138.35 137.88 169.88 56.26 112.49 57.41 80.97 139.04 138.35" style="fill:#8c6239"/></g></g></g></g></svg>