<svg xmlns="http://www.w3.org/2000/svg" viewBox="0 0 290.97 82.67"><g id="Layer_2" data-name="Layer 2"><g id="Animation"><g style="isolation:isolate"><path d="M92.63,138.41l1.2,8.42q.78,5.47,1.57,10.95l-1,.08a95.8,95.8,0,0,1-12.82.18l-2.77-19.38a95.8,95.8,0,0,0,12.82-.18Z" transform="translate(0 -120.52)" style="fill:#39b54a"/><path d="M97.84,136.31A148.76,148.76,0,0,1,120.62,131l2.77,19.38a148.76,148.76,0,0,0-22.78,5.32c-.73.25-1.44.51-2.14.78-1.18.46-2.19.89-3.07,1.31l-2.77-19.37c.87-.42,1.89-.86,3.07-1.32C96.39,136.82,97.11,136.57,97.84,136.31Z" transform="translate(0 -120.52)" style="fill:#39b54a"/><path d="M92.63,138.41c4.23-.36,7.5-.88,10.94-1.42q1.4,9.69,2.77,19.38c-3.44.54-6.71,1.06-10.94,1.41Z" transform="translate(0 -120.52)" style="fill:#8cc63f"/><path d="M123.8,154.56c-.34-2.39-.69-4.77-1-7.16l-1.08-7.55q1.05,7.35,2.11,14.71Z" transform="translate(0 -120.52)" style="fill:#8cc63f"/><path d="M244.54,134.46l2.77,19.38c-.21-1.47-1.65-2.63-5.94-3.29-3.36-.51-6.19-.38-10.88-.15a169.09,169.09,0,0,1-19,.09c-13-.75-17.4-2.86-20.95-4.56-3.3-1.57-5.13-2.32-10.52-2a62.55,62.55,0,0,0-7.44,1c-4.62.78-10.95,1.84-21.74,3.08-9.33,1.06-18.55,1.85-27.47,2.36L120.62,131c8.91-.5,18.14-1.3,27.46-2.36,10.8-1.24,17.13-2.3,21.75-3.08a60,60,0,0,1,7.44-1c5.39-.33,7.22.42,10.52,2,3.55,1.69,8,3.8,21,4.55a169.09,169.09,0,0,0,19-.09c4.69-.23,7.52-.36,10.88.15C242.88,131.83,244.33,133,244.54,134.46Z" transform="translate(0 -120.52)" style="fill:#39b54a"/><path d="M153.63,138.94c.91,6.41,1.84,12.93,2.77,19.37-9.9-2.7-21.29-4.09-29.38-4.84l-2.77-19.38C132.34,134.85,143.72,136.23,153.63,138.94Z" transform="translate(0 -120.52)" style="fill:#8cc63f"/><path d="M124.25,134.09l4.45,1.52L131.47,155,127,153.47C126.19,147.66,125.08,139.91,124.25,134.09Z" transform="translate(0 -120.52)" style="fill:#d9e021"/><path d="M128.7,135.61q1.38,9.69,2.77,19.38a40.55,40.55,0,0,0-7.67-.43q-1.38-9.69-2.77-19.38,1.38,9.69,2.77,19.38a122.47,122.47,0,0,0-17.45,1.81h0Q105,146.68,103.57,137h0A123.94,123.94,0,0,1,121,135.18,40.55,40.55,0,0,1,128.7,135.61Z" transform="translate(0 -120.52)" style="fill:#8cc63f"/><path d="M44.52,167.78,41.75,148.4c-.09-.59.29-1.31,1.65-2.13a18.28,18.28,0,0,1,3.41-1.51A64.36,64.36,0,0,1,61.43,142l2.77,19.38a64.36,64.36,0,0,0-14.62,2.8,18.28,18.28,0,0,0-3.41,1.51C44.81,166.47,44.43,167.19,44.52,167.78Z" transform="translate(0 -120.52)" style="fill:#39b54a"/><path d="M128.7,135.61a10.21,10.21,0,0,1,3.51,1.2L135,156.18a10.46,10.46,0,0,0-3.51-1.19Z" transform="translate(0 -120.52)" style="fill:#d9e021"/><path d="M41.75,148.4c.14,1,1.55,1.6,1.8,1.7l2.77,19.38c-.25-.1-1.66-.72-1.8-1.7C43.69,162,42.58,154.21,41.75,148.4Z" transform="translate(0 -120.52)" style="fill:#009245"/><polygon points="46.32 48.96 43.55 29.58 43.75 29.66 46.52 49.04 46.32 48.96" style="fill:#009245"/><polygon points="46.52 49.04 43.75 29.66 43.87 29.76 46.64 49.14 46.52 49.04" style="fill:#009245"/><path d="M28.66,170.05l-2.77-19.38c.19,1.29,1.75,2.16,2.66,2.56l2.77,19.37C30.41,172.21,28.85,171.34,28.66,170.05Z" transform="translate(0 -120.52)" style="fill:#39b54a"/><path d="M132.21,136.81l4.5,1.53,2.77,19.38-4.5-1.54-2.77-19.37Z" transform="translate(0 -120.52)" style="fill:#d9e021"/><path d="M136.71,138.34l1.2.78q1.38,9.69,2.77,19.38l-1.2-.78C138.65,151.9,137.54,144.15,136.71,138.34Z" transform="translate(0 -120.52)" style="fill:#d9e021"/><path d="M137.91,139.12q1.38,9.69,2.77,19.38a8.79,8.79,0,0,1-4.78-1.71h0l-2.76-19.29,2.76,19.29a10.51,10.51,0,0,0-.92-.6l-2.76-19.34L135,156.19h0l-2.77-19.37a10.51,10.51,0,0,1,.92.6A8.79,8.79,0,0,0,137.91,139.12Z" transform="translate(0 -120.52)" style="fill:#8cc63f"/><path d="M132.21,136.81l4.5,1.53,1.2.78a8.79,8.79,0,0,1-4.78-1.71A10.51,10.51,0,0,0,132.21,136.81Z" transform="translate(0 -120.52)" style="fill:#8cc63f"/><path d="M140.68,158.5q-1.4-9.69-2.77-19.38l2.77,19.38Z" transform="translate(0 -120.52)" style="fill:#d9e021"/><path d="M46.13,152.49a5.66,5.66,0,0,1,.18,1.3l.1.69.51,3.59q.4,2.79.8,5.58c.39,2.74.79,5.48,1.18,8.22a11.33,11.33,0,0,0-2.26-2.21l-2.77-19.38A11.33,11.33,0,0,1,46.13,152.49Z" transform="translate(0 -120.52)" style="fill:#009245"/><path d="M137.91,139.12c.67.08,1.46.15,2.39.2q1.38,9.69,2.77,19.38c-.93,0-1.72-.12-2.39-.2C139.85,152.68,138.74,144.93,137.91,139.12Z" transform="translate(0 -120.52)" style="fill:#d9e021"/><path d="M31.32,172.6l-2.77-19.37a9.82,9.82,0,0,1,1.91,1.9l2.77,19.37A10.41,10.41,0,0,0,31.32,172.6Z" transform="translate(0 -120.52)" style="fill:#39b54a"/><path d="M43,153.58q1.38,9.69,2.77,19.38c-4.23.37-8.48.9-12.58,1.54l-2.77-19.37C34.56,154.48,38.81,154,43,153.58Z" transform="translate(0 -120.52)" style="fill:#39b54a"/><polygon points="45.81 52.44 43.04 33.06 44.93 32.89 47.7 52.27 45.81 52.44" style="fill:#39b54a"/><path d="M46.13,152.49a8.41,8.41,0,0,1,.64,1l2.77,19.37a9.2,9.2,0,0,0-.64-1Q47.51,162.18,46.13,152.49Z" transform="translate(0 -120.52)" style="fill:#009245"/><polygon points="47.7 52.27 44.93 32.89 46.4 32.95 49.17 52.33 47.7 52.27" style="fill:#39b54a"/><path d="M140.3,139.32c2,.1,6.46,0,13.33-.38l2.77,19.37c-6.87.34-11.32.49-13.33.39Q141.67,149,140.3,139.32Z" transform="translate(0 -120.52)" style="fill:#d9e021"/><path d="M124.25,134.09c8.09.76,19.47,2.14,29.38,4.85-6.87.33-11.32.48-13.33.38-.93,0-1.72-.12-2.39-.2l-1.2-.78-4.5-1.53a10.21,10.21,0,0,0-3.51-1.2Z" transform="translate(0 -120.52)" style="fill:#d9e021"/><path d="M207,140.17c4.41,1.59,5.46,3.42,5.68,5l2.77,19.37c-.21-1.52-1.27-3.35-5.68-4.94-6.95-2.51-17.51-2.77-21.74-2.77-3.19,0-5.19.12-9.2.35l-6.1.34c-6.44.34-11.88.63-16.31.84l-2.77-19.37q6.65-.33,16.31-.85l6.09-.34c4-.23,6-.34,9.21-.35C189.47,137.4,200,137.66,207,140.17Z" transform="translate(0 -120.52)" style="fill:#8cc63f"/><path d="M195.24,144.9q1.39,9.69,2.77,19.38a11.37,11.37,0,0,0-2.88-1.45c-5.39-2-13.42-2.09-15.75-2.09-1.74,0-2.5,0-6.24.26l-6.33.35c-19.89,1.06-29,1.54-34.38,1.25-8.35-.43-10.4-1.86-11.89-2.9-1.33-.92-1.92-1.24-4.6-1.19a55.75,55.75,0,0,0-8,.94c-4.32.68-10.25,1.61-17.89,2.2a128.9,128.9,0,0,1-25.81-.31L61.43,142a128.81,128.81,0,0,0,25.8.31c7.65-.58,13.58-1.52,17.9-2.2a55.75,55.75,0,0,1,8-.94c2.68,0,3.27.27,4.6,1.19,1.49,1,3.54,2.47,11.89,2.91,5.41.28,14.49-.2,34.38-1.26l6.33-.35c3.74-.22,4.5-.26,6.23-.26,2.34,0,10.37.14,15.76,2.09A11.37,11.37,0,0,1,195.24,144.9Z" transform="translate(0 -120.52)" style="fill:#39b54a"/><path d="M69.88,152.76c2-.19,3.85-.39,5.56-.6q1.38,9.69,2.77,19.38c-1.71.21-3.54.41-5.55.6a176.3,176.3,0,0,1-23.12.72l-2.77-19.37A176.18,176.18,0,0,0,69.88,152.76Z" transform="translate(0 -120.52)" style="fill:#009245"/><path d="M76.84,152q1.38,9.69,2.77,19.38l-1.4.18q-1.38-9.69-2.77-19.38Z" transform="translate(0 -120.52)" style="fill:#009245"/><path d="M76.84,152c1.19-.16,2.32-.33,3.41-.49q1.38,9.69,2.77,19.38c-1.09.16-2.22.33-3.41.49Q78.23,161.67,76.84,152Z" transform="translate(0 -120.52)" style="fill:#009245"/><path d="M116.34,146.58q1.38,9.69,2.77,19.38c-1.7.06-3.57.17-5.64.33a196,196,0,0,0-22,3.1c-2.78.51-5.49,1-8.5,1.48q-1.39-9.69-2.77-19.38c3-.47,5.72-1,8.5-1.48a198.34,198.34,0,0,1,22-3.1C112.77,146.75,114.64,146.64,116.34,146.58Z" transform="translate(0 -120.52)" style="fill:#009245"/><path d="M18.62,183l-2.77-19.38c-.06-.37.21-.81,1-1.3A15.48,15.48,0,0,1,20,160.94a88.81,88.81,0,0,1,17.78-3.48l2.77,19.37a88.88,88.88,0,0,0-17.78,3.49,15.48,15.48,0,0,0-3.12,1.39C18.83,182.2,18.57,182.64,18.62,183Z" transform="translate(0 -120.52)" style="fill:#39b54a"/><path d="M18,165.09q1.38,9.69,2.77,19.38c-.81-.24-2.08-.72-2.18-1.45l-2.77-19.37C15.94,164.37,17.21,164.85,18,165.09Z" transform="translate(0 -120.52)" style="fill:#8cc63f"/><path d="M18,165.09c.3.09.53.14.62.16l2.77,19.38-.62-.16Q19.41,174.78,18,165.09Z" transform="translate(0 -120.52)" style="fill:#8cc63f"/><path d="M2.78,185.26,0,165.89c.23,1.6,3.31,2.51,4.64,2.83L7.42,188.1C6.09,187.78,3,186.87,2.78,185.26Z" transform="translate(0 -120.52)" style="fill:#39b54a"/><path d="M165.2,147.63q1.38,9.69,2.77,19.38a139,139,0,0,1-15.39,1.25,69.43,69.43,0,0,1-16.86-1.17A66.77,66.77,0,0,0,119.11,166q-1.38-9.69-2.77-19.38A66.82,66.82,0,0,1,133,147.71a69.38,69.38,0,0,0,16.86,1.17A139,139,0,0,0,165.2,147.63Z" transform="translate(0 -120.52)" style="fill:#009245"/><path d="M169.35,147.06c1.74-.24,3.54-.49,5.41-.73q1.4,9.69,2.77,19.38c-1.87.24-3.67.49-5.41.73L168,167q-1.38-9.69-2.77-19.38Z" transform="translate(0 -120.52)" style="fill:#009245"/><path d="M178.3,145.9q1.38,9.69,2.77,19.38c-1.21.14-2.39.28-3.54.43q-1.38-9.69-2.77-19.38C175.91,146.18,177.09,146,178.3,145.9Z" transform="translate(0 -120.52)" style="fill:#009245"/><path d="M178.3,145.9c.76-.08,1.54-.17,2.33-.24q1.4,9.68,2.77,19.37l-2.33.25Q179.69,155.59,178.3,145.9Z" transform="translate(0 -120.52)" style="fill:#009245"/><path d="M183.05,145.43q1.38,9.69,2.77,19.38l-2.42.22q-1.38-9.69-2.77-19.37Z" transform="translate(0 -120.52)" style="fill:#009245"/><path d="M194.13,144.91h1.11L198,164.28H196.9c-4,0-7.67.23-11.08.52q-1.38-9.69-2.77-19.38C186.46,145.14,190.13,144.94,194.13,144.91Z" transform="translate(0 -120.52)" style="fill:#009245"/><path d="M198,164.28l-2.77-19.38c9.34,0,13.88,1,17.44,2.24l2.77,19.38C211.89,165.26,207.35,164.28,198,164.28Z" transform="translate(0 -120.52)" style="fill:#39b54a"/><path d="M212.69,146.57a7.14,7.14,0,0,0,0-1.45l2.77,19.38a6.48,6.48,0,0,1,0,1.45c0,.2,0,.4,0,.57l-2.77-19.38C212.68,147,212.69,146.78,212.69,146.57Z" transform="translate(0 -120.52)" style="fill:#39b54a"/><path d="M243.63,138.1a7.51,7.51,0,0,0,.91-3.64l2.77,19.38a7.51,7.51,0,0,1-.91,3.64,18.4,18.4,0,0,0-.83,2.28,6.54,6.54,0,0,0-.15,2.48l-2.77-19.38a6.54,6.54,0,0,1,.15-2.48A18.4,18.4,0,0,1,243.63,138.1Z" transform="translate(0 -120.52)" style="fill:#8cc63f"/><path d="M226.12,151.46c.12.81,2.65,18.56,2.77,19.38a49.42,49.42,0,0,1-10.5-3.18h0l-2.76-19.3,2.76,19.3c-1-.39-1.9-.78-2.93-1.14l-2.77-19.38c1,.36,2,.75,2.93,1.14A49,49,0,0,0,226.12,151.46Z" transform="translate(0 -120.52)" style="fill:#8cc63f"/><path d="M261.26,160l-2.77-19.38a5.54,5.54,0,0,1,.13-2.21,14.47,14.47,0,0,1,.79-2.14,8.22,8.22,0,0,0,.95-4l2.77,19.38a8.22,8.22,0,0,1-.95,4,15.69,15.69,0,0,0-.79,2.14A5.73,5.73,0,0,0,261.26,160Z" transform="translate(0 -120.52)" style="fill:#39b54a"/><path d="M245.43,162.24l-2.78-19.38c.57,3.95,5,7.49,13.35,10.59l2.77,19.38C250.46,169.73,246,166.19,245.43,162.24Z" transform="translate(0 -120.52)" style="fill:#39b54a"/><path d="M228.89,170.84l-2.77-19.38c7.13,1.36,17.14,2,29.88,2l2.77,19.38C246,172.87,236,172.2,228.89,170.84Z" transform="translate(0 -120.52)" style="fill:#8cc63f"/><path d="M277.28,152.87q1.37,9.69,2.77,19.38-11.67.56-21.28.58L256,153.45Q265.62,153.44,277.28,152.87Z" transform="translate(0 -120.52)" style="fill:#39b54a"/><path d="M40.51,176.83l-2.77-19.37a232.56,232.56,0,0,0,28.95-1c11.42-1.07,19.28-2.52,25.6-3.69a123.56,123.56,0,0,1,14.14-2.06,41.82,41.82,0,0,1,13.3.66c4.49.8,10.08,1.8,22.65,1.47a225.43,225.43,0,0,0,27.13-2.47,116.75,116.75,0,0,1,16.33-1.49c8.33-.07,11,1,15,2.63a55.36,55.36,0,0,0,11.92,3.57c10.72,2.06,26.73,2.77,47.69,2.12l2.77,19.38c-21,.64-37-.07-47.69-2.12a55.54,55.54,0,0,1-11.92-3.57c-4-1.63-6.65-2.7-15-2.63a115.26,115.26,0,0,0-16.33,1.49,225.43,225.43,0,0,1-27.13,2.47c-12.57.33-18.16-.67-22.65-1.47a42.06,42.06,0,0,0-13.3-.67,126.2,126.2,0,0,0-14.14,2.07c-6.32,1.16-14.18,2.62-25.6,3.69A232.4,232.4,0,0,1,40.51,176.83Z" transform="translate(0 -120.52)" style="fill:#39b54a"/><path d="M39.84,183.49l-2.77-19.38,28.41-1.24,2.77,19.38Z" transform="translate(0 -120.52)" style="fill:#8cc63f"/><path d="M46.81,144.76A64.36,64.36,0,0,1,61.43,142a128.81,128.81,0,0,0,25.8.31c7.65-.58,13.58-1.52,17.9-2.2a55.75,55.75,0,0,1,8-.94c2.68,0,3.27.27,4.6,1.19,1.49,1,3.54,2.47,11.89,2.91,5.41.28,14.49-.2,34.38-1.26l6.33-.35c3.74-.22,4.5-.26,6.23-.26,2.34,0,10.37.14,15.76,2.09a11.37,11.37,0,0,1,2.88,1.45h-1.11a181.23,181.23,0,0,0-24.78,2.15,156.54,156.54,0,0,1-19.54,1.82A69.38,69.38,0,0,1,133,147.71c-4.63-.83-9.88-1.77-22.25-.8a198.34,198.34,0,0,0-22,3.1c-5.56,1-10.82,2-18.87,2.75a176.18,176.18,0,0,1-23.11.73,10.23,10.23,0,0,0-2.9-3.21l-.12-.1-.2-.08c-.4-.16-3.78-1.65-.15-3.83A18.28,18.28,0,0,1,46.81,144.76Z" transform="translate(0 -120.52)" style="fill:#009245"/><path d="M65.48,162.87c11.32-.92,27-2.08,45.13-3q1.38,9.69,2.77,19.38c-18.11.93-33.81,2.08-45.13,3C67.42,176.43,66.31,168.68,65.48,162.87Z" transform="translate(0 -120.52)" style="fill:#8cc63f"/><path d="M26.36,170.54a4.33,4.33,0,0,1,.45,1.36l2.77,19.38a4.25,4.25,0,0,0-.45-1.36c-1-1.94-3.43-3.66-7.72-5.29l-2.77-19.38C22.92,166.88,25.34,168.6,26.36,170.54Z" transform="translate(0 -120.52)" style="fill:#8cc63f"/><path d="M11,174.17l2.77,19.38a3.46,3.46,0,0,0-.39-1.13c-.85-1.63-2.85-3.08-5.94-4.32L4.65,168.72c3.09,1.24,5.09,2.69,5.94,4.32A3.46,3.46,0,0,1,11,174.17Z" transform="translate(0 -120.52)" style="fill:#39b54a"/><path d="M242.8,140.38a18.4,18.4,0,0,1,.83-2.28c1.3-3.1,2.42-5.79-5-6.93-3.36-.51-6.19-.38-10.88-.15a169.09,169.09,0,0,1-19,.09c-13-.75-17.4-2.86-21-4.55-3.3-1.58-5.13-2.33-10.52-2a60,60,0,0,0-7.44,1c-4.62.78-11,1.84-21.75,3.08-9.32,1.06-18.55,1.86-27.46,2.36a148.76,148.76,0,0,0-22.78,5.32c-.73.26-1.45.51-2.14.78-1.18.46-2.2.9-3.07,1.32l-1,.07a95.8,95.8,0,0,1-12.82.18c1.33-.65,2.89-1.33,4.73-2,1-.38,2.05-.76,3.1-1.13,13.15-4.52,29.66-7.18,34.71-7.93l1.75-.26,1.63-.09c8.12-.43,16.54-1.14,25-2.11,8.75-1,13.49-1.79,17.67-2.5a133.94,133.94,0,0,1,15.31-1.9c12.7-.76,16.42,1,20,2.74,3.28,1.57,6.68,3.19,16.75,3.77a123.46,123.46,0,0,0,14.39-.09c5.42-.26,11.56-.55,17.52.36,10.91,1.67,9.34,5.44,8,8.77a14.47,14.47,0,0,0-.79,2.14C257.19,144,264,148.85,279,152.79l-1.72.08q-11.67.56-21.28.58C246,149.71,241.54,145.33,242.8,140.38Z" transform="translate(0 -120.52)" style="fill:#39b54a"/><path d="M226.12,151.46a49,49,0,0,1-10.51-3.18c-1-.39-1.9-.78-2.93-1.14,0-.17,0-.36,0-.57.09-1.7.22-4.26-5.71-6.4-6.95-2.51-17.51-2.77-21.74-2.77-3.19,0-5.2.12-9.21.35l-6.09.34q-9.66.51-16.31.85c-9.91-2.71-21.29-4.09-29.38-4.85l4.45,1.52a40.55,40.55,0,0,0-7.67-.43A123.94,123.94,0,0,0,103.58,137c-3.45.54-6.72,1.06-11,1.42.87-.42,1.89-.86,3.07-1.32.69-.27,1.41-.52,2.14-.78A148.76,148.76,0,0,1,120.62,131c8.91-.5,18.14-1.3,27.46-2.36,10.8-1.24,17.13-2.3,21.75-3.08a60,60,0,0,1,7.44-1c5.39-.33,7.22.42,10.52,2,3.55,1.69,8,3.8,21,4.55a169.09,169.09,0,0,0,19-.09c4.69-.23,7.52-.36,10.88.15,7.45,1.14,6.33,3.83,5,6.93a18.4,18.4,0,0,0-.83,2.28c-1.26,5,3.17,9.33,13.2,13.07C243.26,153.49,233.25,152.82,226.12,151.46Z" transform="translate(0 -120.52)" style="fill:#8cc63f"/><path d="M28,195.6l-2.77-19.38c0-.24.17-.55.51-1.05a4.53,4.53,0,0,0,1.08-3.27l2.77,19.38a4.52,4.52,0,0,1-1.07,3.27C28.16,195.05,28,195.36,28,195.6Z" transform="translate(0 -120.52)" style="fill:#39b54a"/><path d="M110.61,159.86c13.35-.68,31.48-1.41,63-1.68q1.4,9.69,2.77,19.38c-31.56.27-49.69,1-63,1.68Q112,169.55,110.61,159.86Z" transform="translate(0 -120.52)" style="fill:#8cc63f"/><polygon points="280.05 51.73 277.27 32.35 279 32.27 281.77 51.65 280.05 51.73" style="fill:#39b54a"/><path d="M97.26,179.84a127.78,127.78,0,0,0,16.8-1.07q1.38,9.69,2.77,19.38a127.78,127.78,0,0,1-16.8,1.07c-4.64-.07-5.84-.5-7.8-1.22s-4.72-1.71-11.86-2.35c-12-1.09-25-.25-35.4.42-9.7.62-14.45.88-16.41,0-.36-.16-.54-.3-.57-.49l-2.77-19.38c0,.19.2.33.57.5,2,.85,6.71.59,16.41,0,10.42-.67,23.38-1.51,35.4-.42,7.14.64,9.76,1.59,11.86,2.35S92.61,179.77,97.26,179.84Z" transform="translate(0 -120.52)" style="fill:#8cc63f"/><path d="M173.65,158.18c21.59-.18,49.82-.15,81.91.67l2.77,19.38c-32.08-.82-60.32-.86-81.91-.67Q175,167.87,173.65,158.18Z" transform="translate(0 -120.52)" style="fill:#8cc63f"/><path d="M255.61,158.85q1.38,9.69,2.77,19.38h-.05l-2.77-19.38Z" transform="translate(0 -120.52)" style="fill:#39b54a"/><polygon points="258.33 57.71 255.56 38.33 260.44 36.67 263.21 56.05 258.33 57.71" style="fill:#8cc63f"/><path d="M258.28,158.92q1.39,9.69,2.77,19.38l-2.67-.07q-1.38-9.69-2.77-19.38Z" transform="translate(0 -120.52)" style="fill:#39b54a"/><path d="M258.28,158.92h.08l2.77,19.38h-.08Q259.67,168.61,258.28,158.92Z" transform="translate(0 -120.52)" style="fill:#39b54a"/><path d="M39.84,183.49l-2.77-19.38c9,.5,23.43,1,43.4.38,14.52-.44,21.89-1.15,36-1.77,21.36-.92,34.89-.61,55-.14,17.17.4,39.36,1.31,62.88,3.49l2.52.24,2.78,19.38-2.52-.24c-23.53-2.18-45.72-3.09-62.89-3.49-20.13-.47-33.66-.78-55,.14-14.12.61-21.49,1.33-36,1.77C63.27,184.48,48.86,184,39.84,183.49Z" transform="translate(0 -120.52)" style="fill:#d9e021"/><path d="M206.44,168q1.38,9.69,2.77,19.38c-21.35,1.29-42.23,3.43-62.38,6.4-3.49.51-7,1.05-10.36,1.57-7,1.09-13.56,2.1-19.64,2.82q-1.38-9.69-2.77-19.38c6.07-.72,12.62-1.73,19.64-2.82,3.38-.52,6.87-1.06,10.35-1.57C164.21,171.42,185.09,169.28,206.44,168Z" transform="translate(0 -120.52)" style="fill:#8cc63f"/><path d="M20,160.94a88.81,88.81,0,0,1,17.78-3.48,232.56,232.56,0,0,0,28.95-1c11.42-1.07,19.28-2.52,25.59-3.69a124.05,124.05,0,0,1,14.15-2.06,41.82,41.82,0,0,1,13.3.66c4.49.8,10.08,1.8,22.65,1.47a225.43,225.43,0,0,0,27.13-2.47,116.75,116.75,0,0,1,16.33-1.49c8.33-.07,11,1,15,2.63a55.36,55.36,0,0,0,11.92,3.57c10.72,2.06,26.73,2.77,47.69,2.12l-4.88,1.67c-32.09-.82-60.32-.85-81.91-.67-31.56.27-49.69,1-63,1.68-18.11.93-33.81,2.09-45.13,3l-28.41,1.24c9,.5,23.43,1,43.4.38,14.52-.44,21.89-1.15,36-1.77,21.36-.92,34.89-.61,55-.14,17.17.4,39.36,1.31,62.88,3.49l-2.22.76a758.46,758.46,0,0,0-88.11,7.55c-3.48.51-7,1.05-10.35,1.57-14,2.18-26.17,4.06-36.44,3.89-4.65-.07-5.84-.5-7.8-1.22s-4.72-1.71-11.86-2.35c-12-1.09-25-.25-35.4.42-9.7.62-14.45.88-16.41,0-.82-.37-.68-.64-.06-1.55.73-1.07,1.73-2.52.63-4.63-1-1.94-3.44-3.66-7.72-5.29-.49-.11-4.69-1.09-1.8-2.92A15.22,15.22,0,0,1,20,160.94Z" transform="translate(0 -120.52)" style="fill:#8cc63f"/><path d="M206.44,168q12.76-.78,25.72-1.15l2.77,19.38q-12.94.38-25.72,1.15Q207.83,177.67,206.44,168Z" transform="translate(0 -120.52)" style="fill:#8cc63f"/><polygon points="234.93 65.69 232.16 46.31 234.38 45.55 237.16 64.93 234.93 65.69" style="fill:#8cc63f"/><path d="M239.68,185.69l-2.78-19.38,21.46-7.39,2.77,19.38Z" transform="translate(0 -120.52)" style="fill:#d9e021"/><path d="M10.9,179.88c-2.25-1-1.53-2-.82-3.08s1.41-2.06.51-3.76S7.74,170,4.65,168.72c-2-.48-7.8-2.25-2.43-5.67a32.32,32.32,0,0,1,6.48-2.88,135.15,135.15,0,0,1,21.76-5c4.1-.65,8.35-1.18,12.58-1.55l1.89-.17,1.84.08a176.18,176.18,0,0,0,23.11-.73C77.93,152,83.19,151,88.75,150a198.34,198.34,0,0,1,22-3.1c12.37-1,17.62,0,22.25.8a69.43,69.43,0,0,0,16.86,1.17,156.54,156.54,0,0,0,19.54-1.82,181.23,181.23,0,0,1,24.78-2.15h1.11c9.34,0,13.88,1,17.44,2.24,1,.36,2,.75,2.93,1.14a49,49,0,0,0,10.51,3.18c7.13,1.36,17.14,2,29.88,2q9.62,0,21.28-.58l1.72-.08,9.2-.44-29,9.88-24.33,8.29-5.14.12-2.63.06a691,691,0,0,0-82.31,6.88c-3.19.47-6.38,1-9.75,1.48-15,2.33-32.09,5-47.15,4.73-8.22-.13-10.8-1.06-13.06-1.89a29.86,29.86,0,0,0-8.91-1.8c-9.33-.84-19.3-.19-28.94.43C26.43,181.21,15.51,181.91,10.9,179.88Zm31.3-3.19c10.42-.67,23.38-1.51,35.4-.42,7.14.64,9.76,1.59,11.86,2.35s3.15,1.15,7.8,1.22c10.27.17,22.4-1.71,36.44-3.89,3.38-.52,6.87-1.06,10.35-1.57a758.46,758.46,0,0,1,88.11-7.55l2.22-.76,2.52.24,21.46-7.39-2.8-.07,4.88-1.67c-21,.65-37-.06-47.69-2.12a55.36,55.36,0,0,1-11.92-3.57c-4-1.63-6.66-2.7-15-2.63a116.75,116.75,0,0,0-16.33,1.49,225.43,225.43,0,0,1-27.13,2.47c-12.57.33-18.16-.67-22.65-1.47a41.82,41.82,0,0,0-13.3-.66,123.56,123.56,0,0,0-14.14,2.06c-6.32,1.17-14.18,2.62-25.6,3.69a232.56,232.56,0,0,1-28.95,1A88.81,88.81,0,0,0,20,160.94a15.48,15.48,0,0,0-3.12,1.39c-2.89,1.83,1.31,2.81,2.35,3.08,3.74,1.47,6.15,3.19,7.17,5.13,1.1,2.11.1,3.56-.63,4.63-.62.91-.76,1.18.06,1.54,2,.86,6.71.6,16.41,0" transform="translate(0 -120.52)" style="fill:#39b54a"/><path d="M35.64,143.94c8.56-2.95,21.42-5.32,33.49-6l2.15-.12,1.36.2q3,.44,6.2.62a95.8,95.8,0,0,0,12.82-.18l1-.07c4.23-.36,7.5-.88,11-1.42A123.94,123.94,0,0,1,121,135.18a40.55,40.55,0,0,1,7.67.43,10.21,10.21,0,0,1,3.51,1.2,10.51,10.51,0,0,1,.92.6,8.79,8.79,0,0,0,4.78,1.71c.67.08,1.46.15,2.39.2,2,.1,6.46,0,13.33-.38q6.65-.33,16.31-.85l6.09-.34c4-.23,6-.34,9.21-.35,4.23,0,14.79.26,21.74,2.77,5.93,2.14,5.8,4.7,5.71,6.4,0,.21,0,.4,0,.57-3.56-1.25-8.1-2.24-17.44-2.24a11.37,11.37,0,0,0-2.88-1.45c-5.39-1.95-13.42-2.09-15.76-2.09-1.73,0-2.49,0-6.23.26L164,142c-19.89,1.06-29,1.54-34.38,1.26-8.35-.44-10.4-1.87-11.89-2.91-1.33-.92-1.92-1.24-4.6-1.19a55.75,55.75,0,0,0-8,.94c-4.32.68-10.25,1.62-17.9,2.2a128.81,128.81,0,0,1-25.8-.31,64.36,64.36,0,0,0-14.62,2.8,18.28,18.28,0,0,0-3.41,1.51c-3.63,2.18-.25,3.67.15,3.83l.2.08.12.1a6.15,6.15,0,0,1,2.53,3.19l-1.47-.06-1.89.17c-4.23.37-8.48.9-12.58,1.55a9.82,9.82,0,0,0-1.91-1.9c-1.62-.71-5.31-2.9.4-6.34A36.23,36.23,0,0,1,35.64,143.94Z" transform="translate(0 -120.52)" style="fill:#39b54a"/><path d="M12.16,197.86,9.39,178.48c.07.48.47,1,1.51,1.4l2.77,19.38C12.64,198.8,12.23,198.33,12.16,197.86Z" transform="translate(0 -120.52)" style="fill:#39b54a"/><path d="M13.67,199.26,10.9,179.88c4.61,2,15.53,1.33,26.1.65,9.64-.62,19.61-1.27,28.94-.43a29.86,29.86,0,0,1,8.91,1.8c2.26.83,4.84,1.76,13.06,1.89,15.06.24,32.11-2.4,47.15-4.73,3.37-.52,6.56-1,9.75-1.48a691,691,0,0,1,82.31-6.88l2.63-.06L232.52,190l-2.63.06a690.83,690.83,0,0,0-82.3,6.88c-3.19.47-6.38,1-9.76,1.48-15,2.33-32.09,5-47.15,4.73-8.22-.13-10.79-1.06-13.06-1.89a29.69,29.69,0,0,0-8.91-1.8c-9.33-.84-19.3-.19-28.93.42C29.2,200.59,18.28,201.29,13.67,199.26Z" transform="translate(0 -120.52)" style="fill:#39b54a"/><polygon points="232.52 69.5 229.75 50.12 234.89 50.01 237.66 69.39 232.52 69.5" style="fill:#39b54a"/><path d="M227.12,170.7l2.63-.06,5.14-.12,24.33-8.29-27.85,9.68Z" transform="translate(0 -120.52)" style="fill:#39b54a"/><polygon points="262 61.09 259.22 41.71 288.2 31.83 290.97 51.21 262 61.09" style="fill:#39b54a"/><path d="M37.07,164.11l28.41-1.24c11.32-.92,27-2.08,45.13-3,13.35-.68,31.48-1.41,63-1.68,21.59-.18,49.82-.15,81.91.67l2.8.07-21.46,7.39-2.52-.24c-23.52-2.18-45.71-3.09-62.88-3.49-20.13-.47-33.66-.78-55,.14-14.12.62-21.49,1.33-36,1.77C60.5,165.1,46.09,164.61,37.07,164.11Z" transform="translate(0 -120.52)" style="fill:#d9e021"/><polygon points="234.15 70.77 231.37 51.39 259.22 41.71 262 61.09 234.15 70.77" style="fill:#39b54a"/><polygon points="237.66 69.39 234.89 50.01 259.22 41.71 262 61.09 237.66 69.39" style="fill:#39b54a"/><polygon points="229.89 69.56 227.12 50.19 231.37 51.39 234.15 70.77 229.89 69.56" style="fill:#39b54a"/></g></g></g></svg>