<?xml version="1.0" encoding="utf-8"?>
<!-- Generator: Adobe Illustrator 24.1.1, SVG Export Plug-In . SVG Version: 6.00 Build 0)  -->
<svg version="1.1" id="Layer_1" xmlns="http://www.w3.org/2000/svg" xmlns:xlink="http://www.w3.org/1999/xlink" x="0px" y="0px"
	 viewBox="0 0 338.1 338" style="enable-background:new 0 0 338.1 338;" xml:space="preserve">
<style type="text/css">
	.st0{fill:#F6B319;}
	.st1{fill:#FBC500;}
	.st2{fill:#F7931E;}
</style>
<g id="Layer_2_1_">
	<g id="Animation">
		<g>
			<path class="st0" d="M142.6,149.1c-0.1-0.1-0.2-0.2-0.3-0.4c0.3-3.7,0.7-7.3,1-11c0.1,0.1,0.2,0.2,0.3,0.4
				C143.3,141.7,143,145.4,142.6,149.1z"/>
			<path class="st0" d="M126.8,145.9c-2,0.5-3.1,1.4-3.2,2.4l1-11c0.1-1,1.2-1.8,3.2-2.4c4.6-1,9.4-0.6,13.7,1.3
				c0.8,0.3,1.4,0.8,2,1.4c-0.4,3.7-0.7,7.3-1,11c-0.6-0.6-1.2-1.1-2-1.4C136.1,145.4,131.4,144.9,126.8,145.9z"/>
			<path class="st0" d="M142.6,149.1c0,0,0-0.1,0-0.2l0.1-1.3l0.1-1.6c0.1-1.4,0.3-2.8,0.4-4.3v-0.5l0.1-0.6l0.1-1.1l0.1-0.5
				c0-0.3,0.1-0.7,0.1-1c0.2,0.3,0.3,0.6,0.3,1l-1,11C142.9,149.7,142.8,149.4,142.6,149.1z"/>
			<polygon class="st1" points="325.4,179.1 324.4,190.1 176.6,115 177.6,104 			"/>
			<path class="st0" d="M177.8,144.8c-6.5,1.7-9.9,4.5-10.2,7.6l1-11c0.3-3.1,3.7-5.9,10.2-7.6c12.7-3.4,32.3-1.4,43.8,4.4
				c5.6,2.9,8.2,6.1,7.9,9.1l-1,11c0.3-3-2.3-6.2-7.9-9.1C210.1,143.4,190.5,141.4,177.8,144.8z"/>
			<path class="st2" d="M143.9,139.1l-1,11c-0.1,1-1.2,1.8-3.2,2.4c-4.6,1-9.4,0.5-13.7-1.4c-1.8-0.9-2.6-1.9-2.5-2.8l1-11
				c-0.1,0.9,0.7,1.9,2.5,2.8c4.3,1.9,9.1,2.4,13.7,1.4C142.8,140.9,143.9,140.1,143.9,139.1z"/>
			<path class="st2" d="M230.5,147.2l-1,11c-0.3,3.1-3.7,5.9-10.2,7.6c-12.7,3.4-32.3,1.4-43.8-4.4c-5.6-2.9-8.2-6.1-7.9-9.1l1-11
				c-0.3,3,2.3,6.2,7.9,9.1c11.5,5.8,31.1,7.8,43.8,4.4C226.8,153.1,230.2,150.3,230.5,147.2z"/>
			<path class="st0" d="M165.8,167.4c0.3-3.7,0.7-7.3,1-11c0.6-0.3,1.2-0.6,1.9-0.7l0,0c-0.4,3.7-0.7,7.3-1,11l0,0
				C167,166.9,166.4,167.1,165.8,167.4z"/>
			<path class="st0" d="M181.3,168.1c-4.3-1.9-9.1-2.4-13.7-1.4c0.3-3.7,0.7-7.3,1-11c4.6-1,9.4-0.5,13.7,1.4c0.8,0.3,1.4,0.8,2,1.4
				c-0.3,3.7-0.7,7.3-1,11C182.8,168.9,182.1,168.4,181.3,168.1z"/>
			<path class="st0" d="M183.3,169.6L183.3,169.6c0.3-3.7,0.7-7.3,1-11l0,0C184,162.2,183.7,165.9,183.3,169.6z"/>
			<path class="st0" d="M165.4,167.7c-0.5,0.3-0.8,0.8-0.9,1.4l1-11c0.1-0.6,0.4-1.1,0.9-1.4c-0.2,1.8-0.4,3.7-0.5,5.5
				C165.7,164,165.6,165.9,165.4,167.7z"/>
			<path class="st0" d="M183.3,169.6C183.3,169.5,183.3,169.5,183.3,169.6v-0.2v-0.2c0.3-3.6,0.7-7.1,1-10.7
				c0.3,0.4,0.5,0.9,0.5,1.4l-1,11C183.8,170.4,183.7,169.9,183.3,169.6z"/>
			<polygon class="st1" points="177.6,104 176.6,115 12.7,158.9 13.7,147.9 			"/>
			<path class="st0" d="M62.8,156.1c-1.7,1.1-2.8,2.8-3.2,4.8l1-11c0.3-2,1.5-3.7,3.2-4.8C63.5,148.7,63.2,152.4,62.8,156.1z"/>
			<path class="st0" d="M70.8,152.6c-2.9,0.7-5.6,1.9-8,3.5c0.3-3.7,0.7-7.3,1-11c2.4-1.7,5.1-2.8,8-3.5c13.9-3.8,35.2-1.6,47.6,4.7
				c6.1,3.1,9,6.6,8.6,9.9l-1,11c0.3-3.2-2.5-6.8-8.6-9.9C105.9,151,84.6,148.9,70.8,152.6z"/>
			<path class="st2" d="M184.9,159.9l-1,11c-0.1,1-1.2,1.8-3.2,2.4c-4.6,1-9.4,0.5-13.7-1.3c-1.8-0.9-2.6-1.9-2.5-2.8l1-11
				c-0.1,0.9,0.7,2,2.5,2.8c4.3,1.9,9.1,2.3,13.7,1.3C183.7,161.7,184.8,160.9,184.9,159.9z"/>
			
				<ellipse transform="matrix(9.341327e-02 -0.9956 0.9956 9.341327e-02 0.5495 318.536)" class="st2" cx="175.2" cy="159" rx="3.7" ry="9.7"/>
			<path class="st2" d="M128.1,156.1l-1,11c-0.3,3.4-4,6.4-11.1,8.3c-13.8,3.7-35.1,1.6-47.6-4.8c-6.1-3.1-9-6.6-8.7-9.9l1-11
				c-0.3,3.2,2.5,6.8,8.7,9.9c12.5,6.3,33.8,8.5,47.6,4.8C124,162.6,127.8,159.5,128.1,156.1z"/>
			<path class="st2" d="M71.8,141.5c13.8-3.7,35.2-1.6,47.6,4.7s11.4,14.5-2.4,18.2s-35.1,1.6-47.6-4.8S58,145.2,71.8,141.5z"/>
			<path class="st0" d="M139.1,183.9C139.1,183.9,139.1,183.9,139.1,183.9l1-10.9c0,0,0,0,0-0.1c-0.2,1.8-0.4,3.7-0.5,5.5l-0.1,1.4
				l-0.1,0.7l-0.1,1.4C139.3,182.6,139.2,183.2,139.1,183.9z"/>
			<path class="st0" d="M142.3,181.6c-2,0.5-3.1,1.4-3.2,2.3c0.3-3.7,0.7-7.3,1-11c0.1-0.9,1.2-1.8,3.2-2.3c4.6-1,9.4-0.6,13.7,1.3
				c1.8,0.9,2.6,1.9,2.5,2.8l-1,11c0.1-0.9-0.7-1.9-2.5-2.8C151.7,181,146.9,180.5,142.3,181.6z"/>
			<path class="st0" d="M195.9,189.3c-1.1,0.3-2.2,0.7-3.3,1.1c0.3-3.7,0.7-7.3,1-11c1.1-0.5,2.2-0.8,3.3-1.1
				c9.9-2.6,25.1-1.1,33.9,3.4c1,0.5,2,1.1,2.9,1.8l-0.5,5.5c-0.2,1.8-0.4,3.7-0.5,5.5c-0.9-0.7-1.9-1.2-2.9-1.8
				C221,188.2,205.8,186.7,195.9,189.3z"/>
			<path class="st2" d="M159.5,174.7l-1,11c-0.1,1-1.2,1.8-3.2,2.4c-4.6,1-9.4,0.5-13.7-1.4c-1.8-0.9-2.6-1.9-2.5-2.8l1-11
				c-0.1,0.9,0.7,1.9,2.5,2.8c4.3,1.9,9.1,2.4,13.7,1.4C158.3,176.6,159.4,175.7,159.5,174.7z"/>
			
				<ellipse transform="matrix(8.963770e-02 -0.996 0.996 8.963770e-02 -35.584 306.4904)" class="st2" cx="149.9" cy="172.7" rx="3.7" ry="9.7"/>
			<path class="st0" d="M192.6,190.5c-2.9,1.3-4.5,3-4.7,4.8l1-11c0.2-1.8,1.7-3.5,4.7-4.8c-0.2,1.8-0.4,3.7-0.5,5.5
				S192.8,188.6,192.6,190.5z"/>
			<path class="st0" d="M236,199.8c0.2-1.7-0.9-3.6-3.3-5.3c0.3-3.7,0.7-7.3,1-11c2.4,1.7,3.4,3.6,3.3,5.3L236,199.8z"/>
			<path class="st2" d="M237.1,188.7l-1,11c-0.2,2.4-2.9,4.6-7.9,5.9c-9.9,2.6-25.1,1.1-34-3.4c-4.4-2.2-6.4-4.7-6.2-7l1-11
				c-0.2,2.3,1.8,4.8,6.2,7c8.9,4.5,24.1,6,34,3.4C234.2,193.3,236.8,191.1,237.1,188.7z"/>
			<path class="st2" d="M196.9,178.3c9.9-2.6,25.1-1.1,33.9,3.4s8.1,10.3-1.8,13s-25.1,1.1-34-3.4S187.1,180.9,196.9,178.3z"/>
			<path class="st0" d="M13.7,147.9L177.6,104l147.8,75.1L161.5,223L13.7,147.9z M69.4,159.7c12.5,6.3,33.8,8.5,47.6,4.8
				c13.8-3.7,14.9-11.8,2.5-18.2s-33.8-8.5-47.6-4.8C58,145.2,56.9,153.4,69.4,159.7 M220.3,154.9c12.7-3.4,13.7-10.9,2.3-16.7
				c-11.4-5.8-31.1-7.8-43.8-4.4s-13.7,10.9-2.3,16.7C188,156.3,207.6,158.3,220.3,154.9 M229.1,194.7c9.9-2.6,10.6-8.4,1.8-13
				s-24.1-6-33.9-3.4s-10.7,8.4-1.8,13S219.3,197.3,229.1,194.7 M181.7,162.2c4-1.1,4.3-3.4,0.7-5.2c-4.3-1.9-9.1-2.4-13.7-1.4
				c-4,1.1-4.3,3.4-0.7,5.2C172.3,162.8,177.1,163.2,181.7,162.2 M140.8,141.5c4-1.1,4.3-3.4,0.7-5.2c-4.3-1.9-9.1-2.4-13.7-1.4
				c-4,1.1-4.3,3.4-0.7,5.2C131.4,142,136.2,142.5,140.8,141.5 M156.3,177.1c4-1.1,4.3-3.4,0.7-5.2c-4.3-1.9-9.1-2.4-13.7-1.4
				c-4,1.1-4.3,3.4-0.7,5.2C146.9,177.6,151.7,178.1,156.3,177.1"/>
			<path class="st2" d="M222.6,138.2c-11.5-5.8-31.1-7.8-43.8-4.4s-13.7,10.9-2.3,16.7c11.4,5.8,31.1,7.8,43.8,4.4
				S234,144,222.6,138.2z"/>
			<polygon class="st0" points="325.4,179.1 324.4,190.1 160.4,234 161.5,223 			"/>
			<polygon class="st0" points="161.5,223 160.4,234 12.7,158.9 13.7,147.9 			"/>
			<path class="st1" d="M178.3,99.2L1,146.6l159.8,81.2L338,180.3L178.3,99.2z M13.7,147.9L177.6,104l147.8,75.1L161.5,223
				L13.7,147.9"/>
			<path class="st2" d="M124.7,137.9c0.2,0.4,0.4,0.8,0.8,1.1c0.3,0.3,0.6,0.5,1,0.7l0.6,0.3c4.3,1.9,9.1,2.4,13.7,1.4
				c0.5-0.1,0.9-0.3,1.3-0.5c1.3-0.6,2-1.4,1.9-2.2c-0.2-0.8-0.7-1.4-1.3-1.8c-0.4-0.3-0.8-0.5-1.2-0.7c-1.5-0.7-3.2-1.2-4.9-1.5
				c-0.3-0.1-0.7-0.1-1-0.2c-0.9-0.1-1.8-0.2-2.6-0.2c-0.3,0-0.7,0-1,0c-1.4,0-2.8,0.2-4.2,0.5C125.3,135.6,124.3,136.7,124.7,137.9
				z"/>
			<polygon class="st1" points="338.1,180.3 337,191.4 159.8,238.9 160.8,227.8 			"/>
			<polygon class="st1" points="160.8,227.8 159.8,238.9 0,157.7 1,146.6 			"/>
		</g>
	</g>
</g>
</svg>
