<?xml version="1.0" encoding="utf-8"?>
<!-- Generator: Adobe Illustrator 24.1.1, SVG Export Plug-In . SVG Version: 6.00 Build 0)  -->
<svg version="1.1" id="Layer_1" xmlns="http://www.w3.org/2000/svg" xmlns:xlink="http://www.w3.org/1999/xlink" x="0px" y="0px"
	 viewBox="0 0 319.3 320" style="enable-background:new 0 0 319.3 320;" xml:space="preserve">
<style type="text/css">
	.st0{fill:#F1A463;}
	.st1{fill:#8C6239;}
</style>
<g id="Layer_2_1_">
	<g id="Animation">
		<g>
			<polygon class="st0" points="115.7,102.5 114.5,134.1 114.6,133 115.7,101.5 			"/>
			<path class="st1" d="M228.9,105.6l-1.2,31.5c0.2-4.8-2.9-9.7-9-14c-16.9-11.9-52-16.2-78.2-9.7c-16,4-25.7,11.3-25.9,19.5
				l1.2-31.5c0.3-8.2,10-15.5,25.9-19.5c26.2-6.5,61.3-2.1,78.2,9.7C225.9,95.9,229.1,100.8,228.9,105.6z"/>
			<path class="st1" d="M237.9,106l-1.2,31.5c0,0.7-0.1,1.3-0.2,2l1.2-31.5C237.8,107.3,237.8,106.6,237.9,106z"/>
			<polygon class="st1" points="306.8,163.8 305.7,195.3 227.2,140.2 228.4,108.6 			"/>
			<path class="st0" d="M227.7,137.2c0,0.1,0,0.1,0,0.2c0.4-10.5,0.8-21,1.1-31.5c0-0.1,0-0.2,0-0.2
				C228.5,115,228.1,127.7,227.7,137.2z"/>
			<path class="st0" d="M227.7,137.4c0,0.7-0.2,1.4-0.3,2.1l1.2-31.5c0.2-0.7,0.3-1.4,0.3-2.1l-0.6,15.8c0,1.2-0.1,2.9-0.2,4.1
				c-0.1,1.2-0.1,2.8-0.1,4l-0.1,2l-0.1,1.9C227.8,134.8,227.8,136.3,227.7,137.4z"/>
			<polygon class="st0" points="228.5,108 227.4,139.5 227.2,140.2 228.4,108.6 			"/>
			<polygon class="st1" points="91.6,108.5 90.4,140.1 88.2,139.6 89.4,108.1 			"/>
			<polygon class="st1" points="115.7,102.5 114.5,134.1 90.4,140.1 91.6,108.5 			"/>
			<path class="st1" d="M9,159.3l1.2-31.5c0.3-7.9,9.4-15.4,25.9-19.5c15.9-4,35.9-4.1,53.3-0.3l-1.2,31.5
				c-17.4-3.8-37.3-3.7-53.3,0.3C18.4,144,9.3,151.4,9,159.3z"/>
			<path class="st0" d="M9.6,163.3C9.2,162,9,160.7,9,159.4l1.2-31.5c0,1.3,0.1,2.7,0.6,3.9C10.4,142.3,10,152.8,9.6,163.3z"/>
			<path class="st0" d="M9.6,163.3c0-0.2,0-0.3,0-0.5v-0.3l0.1-1.4c0-0.7,0.1-1.5,0.1-2.2l1-27.1c1.1,3.4,3.9,6.8,8.4,10
				c7,4.9,17.7,8.8,30.1,10.9l-1.2,31.5c-12.4-2.2-23.1-6-30.1-11C13.5,170,10.7,166.7,9.6,163.3z"/>
			<polygon class="st0" points="50.7,152.9 49.6,184.5 48.1,184.2 49.2,152.7 			"/>
			<path class="st1" d="M0,159l1.2-31.6c-0.2,5.4,3.2,11,10.4,16.1c7.9,5.5,19.6,9.9,33.3,12.4l-1.2,31.5
				c-13.6-2.5-25.4-6.9-33.3-12.4C3.2,170-0.2,164.4,0,159z"/>
			<polygon class="st0" points="306.8,163.8 305.7,195.3 128,239.6 129.2,208.1 			"/>
			<polygon class="st0" points="129.2,208.1 128,239.6 49.6,184.5 50.7,152.9 			"/>
			<path class="st0" d="M141.7,82c26.2-6.6,61.4-2.3,78.2,9.6c7,4.9,10.1,10.7,8.7,16.3l-0.2,0.7l78.5,55.2L129.2,208l-78.5-55.1
				l-1.5-0.3c-12.3-2.1-23-6-30.1-10.9c-16.9-11.9-9.3-26.9,16.9-33.4c15.9-4,35.9-4.1,53.3-0.3l2.2,0.5l24.1-6v-1
				C116,93.3,125.7,86,141.7,82z"/>
			<polygon class="st1" points="319.3,165.3 318.1,196.9 125.3,244.9 126.5,213.4 			"/>
			<path class="st1" d="M136.8,78.6c30.4-7.5,71.1-2.5,90.6,11.2c7.9,5.5,11.5,12,10.2,18.2l81.6,57.4l-192.8,48.1L44.9,156
				c-13.7-2.5-25.4-6.9-33.3-12.4C-8,129.8,0.8,112.5,31.2,104.9c17.8-4.4,39.9-4.7,59.5-0.8l16.1-4C107.9,91,119,83,136.8,78.6z
				 M228.5,107.9c1.4-5.5-1.6-11.3-8.7-16.3c-16.9-11.9-52-16.2-78.2-9.6c-16,4-25.7,11.3-25.9,19.5v1l-24.1,6l-2.2-0.5
				c-17.4-3.8-37.4-3.7-53.3,0.3c-26.2,6.5-33.8,21.5-16.9,33.4c7,4.9,17.7,8.8,30.1,10.9l1.5,0.3l78.5,55.1l177.6-44.3l-78.5-55.2
				L228.5,107.9"/>
			<polygon class="st1" points="126.5,213.4 125.3,244.9 43.7,187.5 44.9,156 			"/>
		</g>
	</g>
</g>
</svg>
