<svg xmlns="http://www.w3.org/2000/svg" viewBox="0 0 339.68 808.85"><g id="Layer_2" data-name="Layer 2"><g id="Animation"><g id="LeftStack"><g id="BreadBottom"><g style="isolation:isolate"><path d="M232.44,649.35l-1,31.1c-8-6.1-20.44-10.54-35.16-12.5s-29.9-1.21-42.75,2.11a71.86,71.86,0,0,0-7.93,2.51c-11.44,4.39-18.32,10.86-18.85,18l1-31.09c.52-7.16,7.41-13.64,18.84-18a74.06,74.06,0,0,1,7.93-2.51c12.86-3.32,28-4.07,42.75-2.11S224.49,643.25,232.44,649.35Z" style="fill:#8c6239"/><path d="M240.92,663.62l-1,31.1c.16-4.93-2.76-9.91-8.47-14.27l1-31.1C238.15,653.72,241.08,658.69,240.92,663.62Z" style="fill:#8c6239"/><polygon points="127.76 659.5 126.75 690.6 126.67 691.7 127.67 660.6 127.76 659.5" style="fill:#8c6239"/><path d="M249.91,663.92l-1,31.09a14.26,14.26,0,0,1-.35,2.67l1-31.09A13.58,13.58,0,0,0,249.91,663.92Z" style="fill:#8c6239"/><polygon points="316.55 725.74 315.55 756.84 239.24 698.38 240.24 667.29 316.55 725.74" style="fill:#8c6239"/><path d="M239.91,694.71a12,12,0,0,1-.46,2.95l1-31.1a11.94,11.94,0,0,0,.47-2.95C240.62,672.94,240.21,685.38,239.91,694.71Z" style="fill:#f1a463"/><polygon points="240.45 666.56 239.45 697.66 239.24 698.38 240.24 667.29 240.45 666.56" style="fill:#f1a463"/><polygon points="127.67 660.6 126.67 691.7 102.32 697.98 103.32 666.89 127.67 660.6" style="fill:#8c6239"/><polygon points="103.32 666.89 102.32 697.98 100.13 697.47 101.14 666.37 103.32 666.89" style="fill:#8c6239"/><path d="M19.94,718.68l1-31.1A12.8,12.8,0,0,1,22.46,682c2.69-5.18,8.71-9.65,17.29-12.94a73.31,73.31,0,0,1,8-2.54c16.14-4.17,36.09-4.23,53.38-.17l-1,31.1c-17.29-4.06-37.24-4-53.38.17a75.38,75.38,0,0,0-8,2.53c-8.58,3.3-14.61,7.77-17.3,12.94A13,13,0,0,0,19.94,718.68Z" style="fill:#8c6239"/><path d="M28.43,732.89c-5.76-4.41-8.65-9.31-8.49-14.21l1-31.09c-.16,4.89,2.73,9.79,8.49,14.2,6.85,5.25,17.38,9.37,29.65,11.63l-1,31.09C45.8,742.26,35.28,738.13,28.43,732.89Z" style="fill:#f1a463"/><polygon points="60.59 713.7 59.59 744.79 58.07 744.51 59.08 713.42 60.59 713.7" style="fill:#f1a463"/><path d="M10.94,718.39l1-31.09c-.19,5.67,3.16,11.35,9.84,16.47,7.64,5.86,19.26,10.51,32.82,13.18l-1,31.1c-13.57-2.67-25.18-7.33-32.82-13.18C14.11,729.75,10.76,724.07,10.94,718.39Z" style="fill:#8c6239"/><polygon points="316.55 725.74 315.55 756.84 135.9 803.24 136.9 772.15 316.55 725.74" style="fill:#f1a463"/><polygon points="136.9 772.15 135.9 803.24 59.59 744.79 60.59 713.7 136.9 772.15" style="fill:#f1a463"/><path d="M149.8,635.33c30.74-7.94,71.26-2.54,90.3,12,7.64,5.85,11,12.64,9.46,19.21l79.37,60.8L134,777.75,54.61,717c-13.56-2.67-25.18-7.32-32.82-13.18-9.22-7.06-12.09-15.21-8.08-22.92,3.11-6,10.09-11.18,20-15A85.71,85.71,0,0,1,43,662.91c18-4.65,40.12-4.89,59.62-.7l16.25-4.2c1.21-7.85,9.06-14.91,21.72-19.77A86.49,86.49,0,0,1,149.8,635.33Zm82.64,14c-7.95-6.1-20.44-10.53-35.16-12.5s-29.89-1.21-42.75,2.11a74.06,74.06,0,0,0-7.93,2.51c-11.43,4.39-18.32,10.87-18.84,18l-.09,1.1-24.35,6.29-2.18-.52c-17.29-4.06-37.24-4-53.38.17a73.31,73.31,0,0,0-8,2.54c-8.58,3.29-14.6,7.76-17.29,12.94-3.46,6.65-1,13.68,7,19.77,6.85,5.25,17.38,9.37,29.65,11.63l1.51.28,76.31,58.45,179.65-46.41-76.31-58.45.21-.73c1.68-5.86-1.16-12-8-17.21" style="fill:#8c6239"/><path d="M39.75,669.08a73.31,73.31,0,0,1,8-2.54c16.14-4.17,36.09-4.23,53.38-.17l2.18.52,24.35-6.29.09-1.1c.52-7.16,7.41-13.64,18.84-18a74.06,74.06,0,0,1,7.93-2.51c12.86-3.32,28-4.07,42.75-2.11s27.21,6.4,35.16,12.5c6.85,5.24,9.69,11.35,8,17.21l-.21.73,76.31,58.45L136.9,772.15,60.6,713.7l-1.52-.28c-12.27-2.26-22.8-6.38-29.65-11.63-8-6.09-10.43-13.12-7-19.77C25.15,676.84,31.17,672.37,39.75,669.08Z" style="fill:#f1a463"/><polygon points="328.93 727.39 327.93 758.49 132.99 808.85 134 777.75 328.93 727.39" style="fill:#8c6239"/><polygon points="134 777.75 132.99 808.85 53.61 748.04 54.61 716.95 134 777.75" style="fill:#8c6239"/></g></g><g id="LettuceRight"><g style="isolation:isolate"><path d="M47.45,573.59h0l-1.71,8.76h0Z" style="fill:#39b54a"/><path d="M47.45,573.59l-1.71,8.77L42.85,582l1.71-8.77Z" style="fill:#39b54a"/><path d="M44.56,573.18,42.85,582h0l1.71-8.76Z" style="fill:#39b54a"/><polygon points="36.98 581.1 38.69 572.34 44.53 573.18 42.82 581.94 36.98 581.1" style="fill:#39b54a"/><path d="M270.57,611.93l1.71-8.77a9.38,9.38,0,0,1,3.75,3.55c1.67,2.27,4,5.38,10.27,10.42A130.71,130.71,0,0,0,307,630.38l-1.71,8.77a130.72,130.72,0,0,1-20.73-13.26c-6.32-5-8.6-8.14-10.27-10.42C272.9,613.53,272.41,612.93,270.57,611.93Z" style="fill:#39b54a"/><path d="M49,590.12l1.71-8.76c33.93,4.53,63.06,5.11,86.67,1.71,2.92-.42,5.78-.9,8.54-1.37,11.51-1.94,21.44-3.61,34-1a39.8,39.8,0,0,1,12.15,4.45,106.32,106.32,0,0,0,19.69,7.93c16.87,5.06,30.28,5.94,41.05,6.65,10,.66,15.05,1.08,19.42,3.46l-1.71,8.77c-4.37-2.38-9.38-2.81-19.42-3.47-10.77-.71-24.18-1.59-41.05-6.65a104.91,104.91,0,0,1-19.69-7.93,39.8,39.8,0,0,0-12.15-4.45c-12.59-2.58-22.52-.9-34,1-2.76.47-5.62.95-8.54,1.36C112.08,595.23,83,594.65,49,590.12Z" style="fill:#39b54a"/><path d="M46.37,581.54l-1.71,8.76h0l1.71-8.76Z" style="fill:#39b54a"/><path d="M49.8,582.58l-1.71,8.77-3.43-1.05,1.71-8.76Z" style="fill:#39b54a"/><path d="M49.8,582.58l.09,0-1.71,8.76-.09,0Z" style="fill:#39b54a"/><path d="M236.43,619.3a430.64,430.64,0,0,1,52.44,10.2l-1.71,8.76a434.56,434.56,0,0,0-52.44-10.2Z" style="fill:#8cc63f"/><path d="M256.4,635l1.71-8.76,30.76,3.26-1.71,8.76Z" style="fill:#d9e021"/><path d="M197.88,615.59c15.3,1.64,22.37,1.6,38.55,3.71l-1.71,8.76c-16.18-2.11-23.25-2.07-38.55-3.7Z" style="fill:#8cc63f"/><path d="M317.21,639.28,315.5,648a3,3,0,0,0-.06-1.36c-.93-3.56-8.26-6.71-10.12-7.53l1.71-8.77c1.86.83,9.19,4,10.13,7.53A3.19,3.19,0,0,1,317.21,639.28Z" style="fill:#39b54a"/><path d="M49.89,582.61c33.13,10,61.65,16.88,83,21.48l-1.71,8.77c-21.34-4.61-49.86-11.46-83-21.49C48.7,588.74,49.38,585.24,49.89,582.61Z" style="fill:#8cc63f"/><path d="M132.88,604.09c25,5.4,41.84,9,65,11.5l-1.71,8.77c-23.17-2.48-40-6.11-65-11.5Z" style="fill:#8cc63f"/><path d="M287.6,641.65a161.07,161.07,0,0,1,16.31,2.89l-1.71,8.76a163.91,163.91,0,0,0-16.31-2.89Z" style="fill:#8cc63f"/><path d="M287.6,641.65l-1.71,8.76-.2,0,1.71-8.77Z" style="fill:#8cc63f"/><path d="M36.73,602.53l1.71-8.76,7.89-12.24-1.71,8.76Q40.68,596.41,36.73,602.53Z" style="fill:#39b54a"/><path d="M36.73,602.53l1.71-8.76,3.49.76c40.05,8.77,73.66,14.92,98.86,19.14,36.85,6.17,56.63,8.39,70.87,9.71,19.3,1.78,35.19,2.52,46.45,2.86L256.4,635c-11.26-.34-27.16-1.07-46.45-2.86-14.24-1.31-34-3.53-70.87-9.71-25.2-4.22-58.81-10.36-98.86-19.13Z" style="fill:#d9e021"/><polygon points="27.82 594.82 29.53 586.05 38.69 572.34 36.98 581.1 27.82 594.82" style="fill:#39b54a"/><polygon points="38.38 606.04 40.09 597.28 41.93 594.53 40.22 603.3 38.38 606.04" style="fill:#39b54a"/><path d="M272,640.64c2.47,0,5,.08,7.57.25l-1.71,8.76c-2.57-.17-5.1-.25-7.57-.25a71.27,71.27,0,0,0-21.61,2.92A33.82,33.82,0,0,1,236.75,654a38.75,38.75,0,0,1-4.6-.43l1.71-8.76a39,39,0,0,0,4.6.42,33.79,33.79,0,0,0,11.89-1.66A71,71,0,0,1,272,640.64Z" style="fill:#8cc63f"/><path d="M221.08,640.85c5,1.93,8.52,3.29,12.78,3.95l-1.71,8.76c-4.27-.66-7.78-2-12.78-3.94A123,123,0,0,0,189,641.38h-.09l1.71-8.77.09,0A123.55,123.55,0,0,1,221.08,640.85Z" style="fill:#8cc63f"/><path d="M190.58,632.6l-1.71,8.77a91.13,91.13,0,0,0-26.24-.18,50.88,50.88,0,0,1-11.14.48l1.71-8.76a50.85,50.85,0,0,0,11.14-.48A90.66,90.66,0,0,1,190.58,632.6Z" style="fill:#8cc63f"/><path d="M148.49,632.31c1.76.29,3.3.48,4.71.6l-1.71,8.76c-1.41-.11-3-.31-4.71-.6-9.73-1.62-15.42-4.65-24-9.22a210.18,210.18,0,0,0-22.66-10.71A238.9,238.9,0,0,0,55.38,608.7l1.71-8.76a237.39,237.39,0,0,1,44.69,12.44,210.18,210.18,0,0,1,22.66,10.71C133.07,627.66,138.76,630.68,148.49,632.31Z" style="fill:#8cc63f"/><path d="M311.87,643.4a30.35,30.35,0,0,1-8,1.14,144.63,144.63,0,0,0-32-3.9,71,71,0,0,0-21.61,2.92,33.79,33.79,0,0,1-11.89,1.66c-6.69-.24-10.71-1.79-17.38-4.37a123.55,123.55,0,0,0-30.41-8.23,90.72,90.72,0,0,0-26.33-.19,47.38,47.38,0,0,1-15.85-.12c-9.73-1.63-15.42-4.65-24.05-9.22a210.18,210.18,0,0,0-22.66-10.71c-17.61-7-38.32-12.06-61.69-15.1l1.84-2.75c40.05,8.77,73.66,14.92,98.86,19.14,36.85,6.17,56.63,8.39,70.87,9.71,19.3,1.78,35.19,2.52,46.45,2.86l30.76,3.26a430.64,430.64,0,0,0-52.44-10.2c-16.18-2.11-23.25-2.07-38.55-3.71-23.16-2.48-40-6.1-65-11.5-21.34-4.6-49.86-11.45-83-21.48l.84-1.25c33.93,4.53,63.06,5.11,86.67,1.71,2.92-.42,5.78-.9,8.54-1.36,11.51-2,21.44-3.62,34-1a39.8,39.8,0,0,1,12.15,4.45,106.32,106.32,0,0,0,19.69,7.93c16.88,5.06,30.28,5.94,41.05,6.65,10,.66,15.05,1.08,19.42,3.46a9.38,9.38,0,0,1,3.75,3.55c1.67,2.27,4,5.38,10.27,10.42a131.28,131.28,0,0,0,21.75,13.73c.84.35,8.17,3.5,9.11,7C317.77,640.26,315.7,642.23,311.87,643.4Z" style="fill:#8cc63f"/><path d="M49.89,582.61l.56.17.28-1.42-.84,1.25-1.71,8.76h0C48.7,588.74,49.38,585.24,49.89,582.61Z" style="fill:#39b54a"/><path d="M311.87,643.4c3.06-.93,5-2.38,5.34-4.12L315.5,648c-.34,1.74-2.28,3.19-5.34,4.12C310.68,649.54,311.36,646,311.87,643.4Z" style="fill:#8cc63f"/><path d="M311.87,643.4l-1.71,8.76a29.93,29.93,0,0,1-8,1.14l1.71-8.76A30.35,30.35,0,0,0,311.87,643.4Z" style="fill:#8cc63f"/><path d="M283.17,641.17q2.1.2,4.23.45l-1.71,8.77c-1.42-.18-2.83-.33-4.23-.46Z" style="fill:#8cc63f"/><path d="M283.17,641.17l-1.71,8.76c-1.22-.11-2.44-.2-3.64-.28l1.71-8.76C280.73,641,282,641.06,283.17,641.17Z" style="fill:#8cc63f"/><path d="M54.05,599.39l3,.55-1.71,8.76c-1-.18-2-.37-3-.54Z" style="fill:#8cc63f"/><path d="M54.05,599.39l-1.71,8.77q-6.81-1.18-14-2.11l1.71-8.77Q47.25,598.21,54.05,599.39Z" style="fill:#8cc63f"/><path d="M332.91,642.28l-1.71,8.77c-.67,3.44-4.34,6.27-10.08,8a38.34,38.34,0,0,1-4.71,1.12,61,61,0,0,1-11.26.83l1.71-8.77a60.15,60.15,0,0,0,11.26-.83,38.38,38.38,0,0,0,4.71-1.11C328.57,648.56,332.24,645.73,332.91,642.28Z" style="fill:#39b54a"/><polygon points="303.31 660.99 305.02 652.23 306.86 652.25 305.15 661.02 303.31 660.99" style="fill:#39b54a"/><path d="M288.87,629.5l-30.76-3.26c-11.26-.34-27.15-1.08-46.45-2.86-14.24-1.32-34-3.54-70.87-9.71-25.2-4.22-58.81-10.37-98.86-19.14l-3.49-.76,7.89-12.24,3.56,1.08c33.13,10,61.65,16.88,83,21.48,25,5.4,41.84,9,65,11.5,15.3,1.64,22.37,1.6,38.55,3.71A430.64,430.64,0,0,1,288.87,629.5Z" style="fill:#d9e021"/><path d="M28.66,612.27l1.71-8.76q12.52,1.23,23.88,3.24a207.12,207.12,0,0,1,40.23,11,184.18,184.18,0,0,1,20,9.51c2.07,1.1,4.11,2.18,6.2,3.23a90.12,90.12,0,0,0,26,8.85l1.31.23a75.52,75.52,0,0,0,24.3.41,62.56,62.56,0,0,1,18.88,0c10.13,1.4,16.28,3.77,22.8,6.29,7.47,2.89,15.94,6.17,28.33,6.61a54.58,54.58,0,0,0,18.7-2.34,51.36,51.36,0,0,1,15.85-2.23,113,113,0,0,1,25.73,3.32l-1.71,8.76a112.92,112.92,0,0,0-25.73-3.31,51.11,51.11,0,0,0-15.85,2.22,54.33,54.33,0,0,1-18.7,2.34c-12.39-.44-20.86-3.71-28.33-6.6-6.52-2.52-12.68-4.9-22.8-6.3a63.23,63.23,0,0,0-18.88,0,74.94,74.94,0,0,1-24.3-.41l-1.32-.23a90.36,90.36,0,0,1-26-8.84c-2.09-1-4.13-2.14-6.2-3.23a186.85,186.85,0,0,0-20-9.52,207.84,207.84,0,0,0-40.23-11Q41.19,613.51,28.66,612.27Z" style="fill:#39b54a"/><path d="M323.85,670.35l-1.71,8.76a3.76,3.76,0,0,0,0-1.49c-.88-4.2-8.45-8.33-9.3-8.79l1.71-8.76c.86.46,8.42,4.58,9.31,8.78A3.8,3.8,0,0,1,323.85,670.35Z" style="fill:#39b54a"/><path d="M319.49,674.05c2.47-.76,4-2,4.36-3.7l-1.71,8.76c-.33,1.67-1.89,2.95-4.36,3.7C318.29,680.18,319,676.68,319.49,674.05Z" style="fill:#009245"/><path d="M312.67,674.81a21.74,21.74,0,0,0,6.82-.76l-1.71,8.76a21.74,21.74,0,0,1-6.82.76C311.48,680.94,312.16,677.44,312.67,674.81Z" style="fill:#009245"/><path d="M339.55,673.43l-1.71,8.76c-.65,3.36-3.89,6-8.95,7.53L330.6,681C335.66,679.41,338.9,676.79,339.55,673.43Z" style="fill:#39b54a"/><path d="M301.41,660.54l1.72-8.77a92.4,92.4,0,0,0,10.6,7.84L312,668.37A94.18,94.18,0,0,1,301.41,660.54Z" style="fill:#39b54a"/><polygon points="300.94 660.42 302.65 651.66 305.02 652.23 303.31 660.99 300.94 660.42" style="fill:#39b54a"/><polygon points="312.01 668.37 313.73 659.61 314.1 659.85 312.39 668.61 312.01 668.37" style="fill:#39b54a"/><polygon points="312.39 668.61 314.1 659.85 314.52 660.07 312.81 668.83 312.39 668.61" style="fill:#39b54a"/><path d="M145,648.08l1.72-8.76a75.38,75.38,0,0,0,6.88,3.94,90.76,90.76,0,0,0,23.67,8.15,58.18,58.18,0,0,0,6.8.76c1.7.14,3.83.31,6.69.56,21.09,1.86,30.72,2.71,37.83,4.52a65.56,65.56,0,0,1,21,9.19c3.76,2.38,5.22,3.23,8.28,3.7,2.55.39,4,.17,7.31-.42a67.13,67.13,0,0,1,16-1.16,112.15,112.15,0,0,1,31.38,6.25L311,683.57a112.14,112.14,0,0,0-31.39-6.25,67.09,67.09,0,0,0-16,1.16c-3.32.59-4.76.81-7.31.43-3.06-.47-4.52-1.32-8.28-3.71A65.79,65.79,0,0,0,226.91,666c-7.11-1.81-16.74-2.66-37.84-4.52-2.86-.25-5-.42-6.68-.56a58.18,58.18,0,0,1-6.8-.76A90.36,90.36,0,0,1,151.92,652,74.66,74.66,0,0,1,145,648.08Z" style="fill:#009245"/><path d="M299.84,678.59c2.85.74,5.81,1.66,8.84,2.75L307,690.11q-4.56-1.64-8.85-2.76a70.67,70.67,0,0,0-14.8-2.35l-1,0a43.61,43.61,0,0,0-9.64.88,45.23,45.23,0,0,1-15.26.54l1.71-8.76a44.92,44.92,0,0,0,15.26-.55,44.3,44.3,0,0,1,9.64-.87l1,0A70.2,70.2,0,0,1,299.84,678.59Z" style="fill:#39b54a"/><path d="M339.51,670.54c-1.4-6.61-11-12.41-14.6-14.37-2.38-1.55-4.64-3.14-6.79-4.75a60.15,60.15,0,0,1-11.26.83l-1.84,0-1.89-.46h0l1.89.46-.2,1a106.72,106.72,0,0,0,8.91,6.39l.37.24.42.22c.86.46,8.42,4.58,9.3,8.78.51,2.4-1.16,4.23-4.33,5.2a21.74,21.74,0,0,1-6.82.76,112.15,112.15,0,0,0-31.38-6.25,67.13,67.13,0,0,0-16,1.16c-3.31.59-4.76.81-7.31.42-3.06-.47-4.52-1.32-8.28-3.7a65.56,65.56,0,0,0-21-9.19c-7.11-1.81-16.74-2.66-37.83-4.52-2.86-.25-5-.42-6.69-.56a58.18,58.18,0,0,1-6.8-.76,90.76,90.76,0,0,1-23.67-8.15,75.38,75.38,0,0,1-6.88-3.94,90.12,90.12,0,0,1-26-8.85l1.34,1.3a80.65,80.65,0,0,0,22,15.83,122,122,0,0,0,32.4,11,89,89,0,0,0,10.11,1.19l6.44.54c6.83.61,12.6,1.11,17.35,1.58,7.36.71,12.28,1.32,14.92,2,1.21.31,2.31.64,3.32,1a40.23,40.23,0,0,1,9.72,4.91c.81.51,1.65,1,2.55,1.58a44,44,0,0,0,7,3.47A47.56,47.56,0,0,0,258,677.46a45.17,45.17,0,0,0,16.41-.38,44.3,44.3,0,0,1,9.64-.87l1,0a70.2,70.2,0,0,1,14.81,2.35q4.28,1.11,8.84,2.75l2.1.76,2.26.19A47.91,47.91,0,0,0,330.6,681C337,679,340.51,675.29,339.51,670.54Z" style="fill:#39b54a"/><path d="M38.69,572.34l-9.16,13.71,10-16.12,7.93,3.67-3-.42Z" style="fill:#39b54a"/><path d="M104.46,643.27,102.75,652c-1.09-1.27-2.23-2.56-3.42-3.84-10.3-11-26-22-46.79-32.68l1.71-8.76c20.8,10.69,36.5,21.64,46.79,32.68C102.24,640.71,103.37,642,104.46,643.27Z" style="fill:#8cc63f"/><path d="M273.05,686c4.13-1.27,8.9-3.53,10.49-7.45l-1.71,8.76c-1.59,3.92-6.36,6.19-10.49,7.45Z" style="fill:#8cc63f"/><path d="M268.47,687.11a43.45,43.45,0,0,0,4.58-1.11l-1.71,8.76h0L273,686l-1.71,8.75a42.3,42.3,0,0,1-4.58,1.11C267.27,693.24,268,689.74,268.47,687.11Z" style="fill:#8cc63f"/><path d="M319.49,674.05a21.74,21.74,0,0,1-6.82.76,112.15,112.15,0,0,0-31.38-6.25,67.13,67.13,0,0,0-16,1.16c-3.31.59-4.76.81-7.31.42-3.06-.47-4.52-1.32-8.28-3.7a65.56,65.56,0,0,0-21-9.19c-7.11-1.81-16.74-2.66-37.83-4.52-2.86-.25-5-.42-6.69-.56a58.18,58.18,0,0,1-6.8-.76,90.76,90.76,0,0,1-23.67-8.15,75.38,75.38,0,0,1-6.88-3.94l1.31.23a75.52,75.52,0,0,0,24.3.41,62.56,62.56,0,0,1,18.88,0c10.13,1.4,16.28,3.77,22.8,6.29,7.47,2.89,15.94,6.17,28.33,6.61a54.58,54.58,0,0,0,18.7-2.34,51.36,51.36,0,0,1,15.85-2.23,113,113,0,0,1,25.73,3.32q5.12,4.07,11.08,8l.37.24.42.22c.86.46,8.42,4.58,9.31,8.78C324.33,671.25,322.66,673.08,319.49,674.05Z" style="fill:#009245"/><path d="M210.37,661.89q3.33.32,6,.62l-1.71,8.76c-1.78-.2-3.78-.4-6-.62-4.75-.46-10.52-1-17.35-1.57-2.76-.25-4.81-.41-6.44-.54a89.5,89.5,0,0,1-10.12-1.19,122.21,122.21,0,0,1-32.39-11,80.67,80.67,0,0,1-22-15.82c-.48-.48-.92-.91-1.34-1.3l1.71-8.77,1.34,1.3a80.65,80.65,0,0,0,22,15.83,122,122,0,0,0,32.4,11,89,89,0,0,0,10.11,1.19l6.44.54C199.85,660.92,205.62,661.42,210.37,661.89Z" style="fill:#39b54a"/><path d="M159.43,666.87l-1.71,8.77a122.84,122.84,0,0,0-13.9-2.41l1.71-8.76A122.11,122.11,0,0,1,159.43,666.87Z" style="fill:#8cc63f"/><path d="M168.7,669.34,167,678.1c-1.65-.49-3.37-1-5.17-1.45-1.44-.37-2.8-.71-4.1-1l1.71-8.77c1.3.31,2.67.64,4.1,1Q166.23,668.6,168.7,669.34Z" style="fill:#8cc63f"/><path d="M130.53,662.2q-.85,4.38-1.72,8.76c-.81-.24-1.67-.53-2.59-.87A42.9,42.9,0,0,1,111,661l1.71-8.76a42.9,42.9,0,0,0,15.24,9.11C128.86,661.67,129.71,662,130.53,662.2Z" style="fill:#8cc63f"/><path d="M258,677.46l1.15.17-1.71,8.76-1.15-.16a46.93,46.93,0,0,1-10.16-2.65,44,44,0,0,1-7-3.46l-.09-.06,1.71-8.76.09.05a44,44,0,0,0,7,3.47A47.56,47.56,0,0,0,258,677.46Z" style="fill:#39b54a"/><path d="M246.15,683.58l1.71-8.76,8.91,4.43L255.06,688Z" style="fill:#8cc63f"/><path d="M238.33,669.77c.78.49,1.59,1,2.46,1.53l-1.71,8.76c-.87-.52-1.68-1-2.46-1.53a41,41,0,0,0-9.72-4.91c-1-.34-2.11-.67-3.33-1a75.5,75.5,0,0,0-8.91-1.37l1.71-8.76a74,74,0,0,1,8.92,1.37c1.21.31,2.31.64,3.32,1A40.23,40.23,0,0,1,238.33,669.77Z" style="fill:#39b54a"/><path d="M226.9,673.62l1.71-8.76c1.15.7,2.24,1.38,3.27,2l-1.71,8.76C229.14,675,228.05,674.32,226.9,673.62Z" style="fill:#8cc63f"/><path d="M239.46,670.65l-1.71,8.76-7.58-3.76,1.71-8.76Z" style="fill:#8cc63f"/><path d="M239.46,670.65l1.42.7-1.71,8.77-1.42-.71,1.44-7.38Z" style="fill:#8cc63f"/><path d="M210.37,661.89a375.81,375.81,0,0,0,46.4,17.36L255.06,688a373.58,373.58,0,0,1-46.4-17.36C209.17,668,209.86,664.52,210.37,661.89Z" style="fill:#d9e021"/><path d="M241.49,686.6a208.61,208.61,0,0,1,27,.51l-1.72,8.76a208.55,208.55,0,0,0-27-.51l-2.37.14,1.71-8.77Z" style="fill:#8cc63f"/><path d="M239.11,686.73l-1.71,8.77a99.89,99.89,0,0,0-12.91,1.55l1.71-8.77A101.73,101.73,0,0,1,239.11,686.73Z" style="fill:#8cc63f"/><path d="M222.33,689.08l-1.71,8.77a17.11,17.11,0,0,1-5.83.53,21.9,21.9,0,0,1-2.37-.3l1.71-8.76c.77.13,1.55.23,2.37.29A16.87,16.87,0,0,0,222.33,689.08Z" style="fill:#8cc63f"/><path d="M256.77,679.25a375.81,375.81,0,0,1-46.4-17.36c7.36.71,12.28,1.32,14.92,2,1.21.31,2.31.64,3.32,1,1.15.7,2.24,1.38,3.27,2l9,4.46a44,44,0,0,0,7,3.47Z" style="fill:#d9e021"/><path d="M214.13,689.32l-1.71,8.76c-4.49-.78-8.32-2.85-14.87-6.53A138.3,138.3,0,0,0,167,678.1l1.71-8.76a138.3,138.3,0,0,1,30.56,13.45C205.81,686.47,209.64,688.53,214.13,689.32Z" style="fill:#8cc63f"/><path d="M26.81,612.09l1.71-8.76C55.64,615.52,75.3,628,87,640.55c1.44,1.54,2.77,3.09,4.17,4.73,6.28,7.3,13.39,15.57,30.31,21.72a80.06,80.06,0,0,0,21.66,4.57A95.2,95.2,0,0,1,160,674.46c13.35,3.5,21.24,7.93,28.87,12.22,8.37,4.69,17,9.55,30.31,10.55a41.65,41.65,0,0,0,13.64-1.05,80.49,80.49,0,0,1,15-1.91,180.2,180.2,0,0,1,24.71.58l-1.71,8.76a180.18,180.18,0,0,0-24.71-.57,80.74,80.74,0,0,0-15,1.9A41.59,41.59,0,0,1,217.45,706c-13.29-1-21.94-5.86-30.31-10.56-7.63-4.28-15.52-8.72-28.87-12.22a95,95,0,0,0-16.87-2.88,79.76,79.76,0,0,1-21.66-4.58c-16.92-6.15-24-14.42-30.31-21.72-1.4-1.64-2.73-3.19-4.17-4.73C73.59,636.8,53.93,624.28,26.81,612.09Z" style="fill:#39b54a"/><path d="M284.07,676.21a8.89,8.89,0,0,1-.12,1L282.23,686a6.71,6.71,0,0,0,.13-1Z" style="fill:#39b54a"/><path d="M283.54,678.55a7.4,7.4,0,0,0,.41-1.35L282.23,686a6.28,6.28,0,0,1-.4,1.35C282.34,684.68,282.78,681.11,283.54,678.55Z" style="fill:#8cc63f"/><path d="M112.69,652.22,111,661a92.53,92.53,0,0,1-7.22-7.78l-1-1.17,1.71-8.76,1,1.17A94.11,94.11,0,0,0,112.69,652.22Z" style="fill:#8cc63f"/><path d="M141.21,664c1.35.13,2.78.27,4.32.45l-1.71,8.76-4.32-.45A49.76,49.76,0,0,1,128.81,671q.87-4.38,1.72-8.76A49.56,49.56,0,0,0,141.21,664Z" style="fill:#8cc63f"/><path d="M226.2,688.28l-1.71,8.77-.19,0,1.71-8.76Z" style="fill:#8cc63f"/><path d="M225.77,688.36l.24,0c-.32,1.65-.65,3.3-1,5-.14.74-.29,1.49-.44,2.24l-.2,1.06a3,3,0,0,0-.1.5l-.24,0Z" style="fill:#8cc63f"/><path d="M225.77,688.36l-1.71,8.77c-1,.2-1.95.4-2.8.58l-.64.14,1.71-8.77.65-.14Z" style="fill:#8cc63f"/><path d="M299.06,682.22c-2.29,5.65-9.11,8.89-15,10.69a59.27,59.27,0,0,1-8.32,1.87l-1.47.22-1.74-.15a180.2,180.2,0,0,0-24.71-.58,80.49,80.49,0,0,0-15,1.91,41.65,41.65,0,0,1-13.64,1.05c-13.29-1-21.94-5.86-30.31-10.55-7.63-4.29-15.52-8.72-28.87-12.22a95.2,95.2,0,0,0-16.87-2.89A80.06,80.06,0,0,1,121.45,667c-16.92-6.15-24-14.42-30.31-21.72-1.4-1.64-2.73-3.19-4.17-4.73-11.67-12.51-31.33-25-58.45-37.22l1.85.18q12.52,1.23,23.88,3.24c20.8,10.69,36.49,21.64,46.79,32.68,1.56,1.68,3,3.37,4.43,5,5.86,6.81,10.91,12.7,22.46,16.89,5.22,1.9,8.26,2.2,13.28,2.69a128.56,128.56,0,0,1,22.32,3.87c17.22,4.51,27.49,10.27,35.73,14.9,7.67,4.31,11.62,6.4,17.24,6.82a18.33,18.33,0,0,0,6.48-.67,101.86,101.86,0,0,1,18.51-2.34,208.61,208.61,0,0,1,27,.51,43.45,43.45,0,0,0,4.58-1.11c4.13-1.27,8.9-3.53,10.49-7.45a7.19,7.19,0,0,0,.53-2.34l1,0a70.2,70.2,0,0,1,14.81,2.35A10.44,10.44,0,0,1,299.06,682.22Z" style="fill:#39b54a"/><polygon points="26.81 612.09 28.52 603.33 30.37 603.51 28.66 612.27 26.81 612.09" style="fill:#39b54a"/><polygon points="16.93 611.12 18.64 602.36 28.52 603.33 26.81 612.09 16.93 611.12" style="fill:#39b54a"/><path d="M311.33,691.05l1.71-8.76A47.91,47.91,0,0,0,330.6,681l-1.71,8.76C324.33,691.12,318.3,691.64,311.33,691.05Z" style="fill:#39b54a"/><polygon points="309.07 690.87 310.78 682.1 313.05 682.29 311.33 691.05 309.07 690.87" style="fill:#39b54a"/><polygon points="306.96 690.11 308.68 681.34 310.78 682.1 309.07 690.87 306.96 690.11" style="fill:#39b54a"/><path d="M299.06,682.22a10.67,10.67,0,0,0,.59-2L297.94,689a10.35,10.35,0,0,1-.59,2C297.87,688.35,298.3,684.79,299.06,682.22Z" style="fill:#39b54a"/><path d="M240.88,671.35l-9-4.46c-1-.65-2.12-1.33-3.27-2a40.23,40.23,0,0,1,9.72,4.91C239.14,670.28,240,670.81,240.88,671.35Z" style="fill:#8cc63f"/><path d="M274,703.55l1.72-8.77a59.27,59.27,0,0,0,8.32-1.87c5.88-1.8,12.7-5,15-10.69L297.35,691c-2.29,5.65-9.11,8.89-15,10.69A59.32,59.32,0,0,1,274,703.55Z" style="fill:#39b54a"/><polygon points="272.57 703.76 274.28 695 275.75 694.78 274.04 703.55 272.57 703.76" style="fill:#39b54a"/><polygon points="270.83 703.61 272.54 694.85 274.28 695 272.57 703.76 270.83 703.61" style="fill:#39b54a"/><path d="M283.54,678.55c-1.59,3.92-6.36,6.18-10.49,7.45a43.45,43.45,0,0,1-4.58,1.11,208.61,208.61,0,0,0-27-.51A101.86,101.86,0,0,0,223,688.94a18.33,18.33,0,0,1-6.48.67c-5.62-.42-9.57-2.51-17.24-6.82-8.24-4.63-18.51-10.39-35.73-14.9A128.56,128.56,0,0,0,141.21,664c-5-.49-8.06-.79-13.28-2.69-11.55-4.19-16.6-10.08-22.46-16.89-1.41-1.64-2.87-3.33-4.43-5-10.29-11-26-22-46.79-32.68a207.12,207.12,0,0,1,40.23,11,184.18,184.18,0,0,1,20,9.51c2.07,1.1,4.11,2.18,6.2,3.23l1.34,1.3a80.65,80.65,0,0,0,22,15.83,122,122,0,0,0,32.4,11,89,89,0,0,0,10.11,1.19l6.44.54c6.83.61,12.6,1.11,17.35,1.58a375.81,375.81,0,0,0,46.4,17.36l-8.91-4.43A47.56,47.56,0,0,0,258,677.46a45.17,45.17,0,0,0,16.41-.38,44.3,44.3,0,0,1,9.64-.87A7.19,7.19,0,0,1,283.54,678.55Z" style="fill:#8cc63f"/></g></g><g id="LettuceLeft"><g style="isolation:isolate"><path d="M97.67,573.17l1.2,8.43q.78,5.48,1.57,10.95l-1,.08a99.27,99.27,0,0,1-12.82.18l-2.77-19.38a97.5,97.5,0,0,0,12.82-.18Z" style="fill:#39b54a"/><path d="M102.88,571.08a148.76,148.76,0,0,1,22.78-5.32l2.77,19.38a148.76,148.76,0,0,0-22.78,5.32c-.73.25-1.44.51-2.14.78-1.18.45-2.19.89-3.07,1.31l-2.77-19.38c.87-.42,1.89-.86,3.07-1.31C101.44,571.59,102.15,571.33,102.88,571.08Z" style="fill:#39b54a"/><path d="M97.67,573.17c4.23-.36,7.5-.87,10.94-1.41q1.4,9.69,2.78,19.38c-3.45.54-6.72,1.05-11,1.41Z" style="fill:#8cc63f"/><path d="M128.84,589.32c-.34-2.38-.68-4.77-1-7.15l-1.08-7.56q1,7.35,2.11,14.71Z" style="fill:#8cc63f"/><path d="M249.58,569.22l2.77,19.38c-.2-1.46-1.65-2.63-5.94-3.28-3.36-.52-6.19-.38-10.88-.16a171.17,171.17,0,0,1-19,.1c-13-.75-17.4-2.86-20.94-4.56-3.31-1.58-5.14-2.32-10.52-2a58.44,58.44,0,0,0-7.45,1c-4.62.77-10.95,1.84-21.74,3.07-9.33,1.06-18.55,1.86-27.47,2.37l-2.77-19.38c8.92-.51,18.14-1.3,27.47-2.37,10.79-1.23,17.12-2.3,21.74-3.07a58.57,58.57,0,0,1,7.44-1c5.39-.32,7.22.42,10.52,2,3.55,1.7,8,3.81,20.95,4.56a171.17,171.17,0,0,0,19-.1c4.69-.22,7.52-.36,10.88.16C247.93,566.59,249.37,567.76,249.58,569.22Z" style="fill:#39b54a"/><path d="M158.67,573.7c.91,6.41,1.84,12.93,2.77,19.38-9.9-2.7-21.29-4.09-29.38-4.84l-2.77-19.38C137.38,569.61,148.77,571,158.67,573.7Z" style="fill:#8cc63f"/><path d="M129.29,568.86l4.45,1.51,2.77,19.38-4.45-1.51C131.23,582.42,130.12,574.67,129.29,568.86Z" style="fill:#d9e021"/><path d="M133.74,570.37q1.38,9.69,2.77,19.38a40.49,40.49,0,0,0-7.67-.43q-1.38-9.69-2.77-19.37,1.38,9.69,2.77,19.37a123.94,123.94,0,0,0-17.45,1.81h0q-1.4-9.69-2.78-19.38h0a122.33,122.33,0,0,1,17.45-1.82A40.55,40.55,0,0,1,133.74,570.37Z" style="fill:#8cc63f"/><path d="M49.56,602.54l-2.77-19.38c-.09-.59.29-1.31,1.65-2.13a18.32,18.32,0,0,1,3.41-1.5,64.33,64.33,0,0,1,14.62-2.81l2.77,19.38a63.79,63.79,0,0,0-14.62,2.81,18.32,18.32,0,0,0-3.41,1.5C49.85,601.23,49.48,602,49.56,602.54Z" style="fill:#39b54a"/><path d="M133.74,570.37a10.42,10.42,0,0,1,3.51,1.2L140,591a10.21,10.21,0,0,0-3.51-1.2C135.68,583.94,134.57,576.19,133.74,570.37Z" style="fill:#d9e021"/><path d="M46.79,583.16c.14,1,1.55,1.61,1.8,1.71l2.77,19.38c-.25-.1-1.66-.72-1.8-1.71C48.73,596.73,47.62,589,46.79,583.16Z" style="fill:#009245"/><polygon points="51.37 604.25 48.59 584.87 48.79 584.95 51.56 604.33 51.37 604.25" style="fill:#009245"/><polygon points="51.56 604.33 48.79 584.95 48.91 585.04 51.68 604.42 51.56 604.33" style="fill:#009245"/><path d="M33.7,604.81l-2.77-19.37c.19,1.29,1.75,2.15,2.66,2.55l2.77,19.38C35.45,607,33.89,606.11,33.7,604.81Z" style="fill:#39b54a"/><path d="M137.25,571.57l4.5,1.53,2.77,19.38L140,591l-2.77-19.37Z" style="fill:#d9e021"/><path d="M141.75,573.1l1.2.78q1.38,9.69,2.77,19.38l-1.2-.78C143.69,586.67,142.58,578.92,141.75,573.1Z" style="fill:#d9e021"/><path d="M143,573.88q1.38,9.69,2.77,19.38a8.71,8.71,0,0,1-4.78-1.71h0l-2.76-19.29,2.76,19.29c-.28-.19-.57-.4-.92-.6l-2.76-19.34L140,591h0l-2.77-19.38a10.49,10.49,0,0,1,.92.61A8.81,8.81,0,0,0,143,573.88Z" style="fill:#8cc63f"/><path d="M137.25,571.57l4.5,1.53,1.2.78a8.81,8.81,0,0,1-4.78-1.7A10.49,10.49,0,0,0,137.25,571.57Z" style="fill:#8cc63f"/><path d="M145.72,593.26q-1.4-9.69-2.77-19.38l2.77,19.38Z" style="fill:#d9e021"/><path d="M51.17,587.26a5.58,5.58,0,0,1,.18,1.3l.1.68c.17,1.2.34,2.4.52,3.59.26,1.86.53,3.72.79,5.58.39,2.74.79,5.48,1.18,8.22a11.9,11.9,0,0,0-2.26-2.21L48.91,585A11.64,11.64,0,0,1,51.17,587.26Z" style="fill:#009245"/><path d="M143,573.88c.67.09,1.46.15,2.39.2q1.38,9.69,2.77,19.38c-.93-.05-1.71-.12-2.39-.2C144.89,587.45,143.78,579.7,143,573.88Z" style="fill:#d9e021"/><path d="M36.36,607.37,33.59,588a10.1,10.1,0,0,1,1.91,1.9l2.77,19.38A10.1,10.1,0,0,0,36.36,607.37Z" style="fill:#39b54a"/><path d="M48.08,588.34q1.38,9.69,2.77,19.38c-4.23.38-8.48.91-12.58,1.55L35.5,589.89C39.6,589.25,43.85,588.72,48.08,588.34Z" style="fill:#39b54a"/><polygon points="50.85 607.72 48.08 588.34 49.97 588.17 52.74 607.55 50.85 607.72" style="fill:#39b54a"/><path d="M51.17,587.26a7.57,7.57,0,0,1,.64,1l2.77,19.38a8.41,8.41,0,0,0-.64-1Q52.56,596.94,51.17,587.26Z" style="fill:#009245"/><polygon points="52.74 607.55 49.97 588.17 51.44 588.24 54.21 607.61 52.74 607.55" style="fill:#39b54a"/><path d="M129.29,568.86c8.09.75,19.48,2.14,29.38,4.84-6.87.33-11.32.49-13.33.38-.93-.05-1.72-.11-2.39-.2l-1.2-.78-4.5-1.53a10.42,10.42,0,0,0-3.51-1.2Z" style="fill:#d9e021"/><path d="M145.34,574.08c2,.11,6.46-.05,13.33-.38l2.77,19.38c-6.87.33-11.32.49-13.33.38Q146.72,583.77,145.34,574.08Z" style="fill:#d9e021"/><path d="M212,574.93c4.41,1.6,5.47,3.42,5.68,5l2.78,19.38c-.22-1.53-1.28-3.35-5.69-5-6.94-2.51-17.51-2.77-21.74-2.76-3.19,0-5.19.12-9.2.34l-6.1.34q-9.66.51-16.31.85l-2.77-19.38q6.65-.32,16.31-.85l6.09-.33c4-.23,6-.35,9.21-.35C194.51,572.17,205.07,572.43,212,574.93Z" style="fill:#8cc63f"/><path d="M200.28,579.67q1.4,9.69,2.77,19.38a11,11,0,0,0-2.88-1.46c-5.39-1.94-13.42-2.09-15.75-2.08-1.74,0-2.49,0-6.24.25l-6.33.35c-19.89,1.06-29,1.54-34.38,1.26-8.35-.44-10.4-1.86-11.89-2.91-1.33-.92-1.92-1.24-4.6-1.19a54.67,54.67,0,0,0-8,1c-4.32.68-10.25,1.61-17.89,2.19a128.15,128.15,0,0,1-25.81-.31l-2.77-19.38a128.15,128.15,0,0,0,25.81.31c7.64-.58,13.57-1.51,17.89-2.19a56.11,56.11,0,0,1,8-1c2.68,0,3.27.27,4.6,1.19,1.49,1,3.54,2.47,11.89,2.91,5.41.28,14.49-.2,34.38-1.26l6.33-.35c3.74-.21,4.5-.25,6.24-.25,2.33,0,10.36.14,15.75,2.09A10.75,10.75,0,0,1,200.28,579.67Z" style="fill:#39b54a"/><path d="M74.92,587.53c2-.19,3.85-.4,5.56-.61q1.38,9.69,2.77,19.38c-1.71.21-3.54.42-5.55.6a174.66,174.66,0,0,1-23.12.73l-2.77-19.38A176.1,176.1,0,0,0,74.92,587.53Z" style="fill:#009245"/><path d="M81.88,586.74q1.38,9.69,2.77,19.38l-1.4.18q-1.38-9.69-2.77-19.38Z" style="fill:#009245"/><path d="M81.88,586.74c1.19-.16,2.32-.32,3.41-.49q1.38,9.69,2.77,19.38c-1.09.17-2.22.33-3.41.49Q83.27,596.43,81.88,586.74Z" style="fill:#009245"/><path d="M121.38,581.34q1.38,9.69,2.77,19.38c-1.7.07-3.57.18-5.64.34a196.6,196.6,0,0,0-22,3.09c-2.78.51-5.49,1-8.5,1.48q-1.4-9.69-2.77-19.38c3-.46,5.72-1,8.5-1.48a198.63,198.63,0,0,1,21.95-3.09C117.81,581.52,119.68,581.41,121.38,581.34Z" style="fill:#009245"/><path d="M23.66,617.77,20.89,598.4c-.06-.38.21-.81,1-1.31A15.53,15.53,0,0,1,25,595.71a88,88,0,0,1,17.78-3.49l2.77,19.38a88.18,88.18,0,0,0-17.78,3.49,15.53,15.53,0,0,0-3.12,1.38C23.87,617,23.61,617.4,23.66,617.77Z" style="fill:#39b54a"/><path d="M23.06,599.85q1.39,9.69,2.77,19.38c-.81-.23-2.08-.72-2.18-1.44l-2.77-19.38C21,599.13,22.25,599.62,23.06,599.85Z" style="fill:#8cc63f"/><path d="M23.06,599.85c.3.09.53.14.62.16l2.78,19.38c-.1,0-.33-.07-.63-.16Q24.45,609.54,23.06,599.85Z" style="fill:#8cc63f"/><path d="M7.83,620,5.05,600.65c.23,1.6,3.31,2.51,4.64,2.83l2.77,19.38C11.13,622.54,8.05,621.63,7.83,620Z" style="fill:#39b54a"/><path d="M170.24,582.39q1.38,9.69,2.77,19.38A138.84,138.84,0,0,1,157.62,603a70.55,70.55,0,0,1-16.86-1.17,67.14,67.14,0,0,0-16.61-1.14q-1.38-9.69-2.77-19.38A67.19,67.19,0,0,1,138,582.48a70.5,70.5,0,0,0,16.86,1.17A138.84,138.84,0,0,0,170.24,582.39Z" style="fill:#009245"/><path d="M174.39,581.83c1.74-.24,3.54-.49,5.41-.73q1.39,9.67,2.77,19.37-2.81.36-5.41.74l-4.15.56q-1.38-9.69-2.77-19.38C171.6,582.22,173,582,174.39,581.83Z" style="fill:#009245"/><path d="M183.34,580.67q1.38,9.69,2.77,19.38c-1.21.13-2.39.28-3.54.42q-1.38-9.69-2.77-19.37C181,581,182.13,580.8,183.34,580.67Z" style="fill:#009245"/><path d="M183.34,580.67l2.33-.25q1.4,9.69,2.77,19.38l-2.33.25Q184.73,590.36,183.34,580.67Z" style="fill:#009245"/><path d="M188.09,580.2q1.38,9.69,2.77,19.38l-2.42.22q-1.38-9.69-2.77-19.38Z" style="fill:#009245"/><path d="M199.17,579.67h1.11l2.77,19.38h-1.11c-4,0-7.66.24-11.08.53q-1.38-9.69-2.77-19.38C191.5,579.91,195.17,579.71,199.17,579.67Z" style="fill:#009245"/><path d="M203.05,599.05l-2.77-19.38c9.34,0,13.88,1,17.44,2.24l2.77,19.38C216.93,600,212.39,599,203.05,599.05Z" style="fill:#39b54a"/><path d="M217.73,581.33a7.16,7.16,0,0,0,0-1.45l2.78,19.38a7.11,7.11,0,0,1,0,1.45c0,.21,0,.4,0,.58l-2.77-19.38C217.72,581.73,217.73,581.54,217.73,581.33Z" style="fill:#39b54a"/><path d="M248.67,572.87a7.51,7.51,0,0,0,.91-3.64l2.77,19.37a7.52,7.52,0,0,1-.91,3.65,18.26,18.26,0,0,0-.83,2.27,6.4,6.4,0,0,0-.14,2.49l-2.78-19.38a6.6,6.6,0,0,1,.15-2.49A18.87,18.87,0,0,1,248.67,572.87Z" style="fill:#8cc63f"/><path d="M231.16,586.22c.12.81,2.65,18.56,2.77,19.38a48.84,48.84,0,0,1-10.5-3.18h0l-2.76-19.3,2.76,19.3c-1-.39-1.9-.77-2.93-1.14l-2.77-19.37c1,.36,2,.74,2.93,1.13A48.4,48.4,0,0,0,231.16,586.22Z" style="fill:#8cc63f"/><path d="M266.3,594.74l-2.77-19.38a5.68,5.68,0,0,1,.13-2.2,14.57,14.57,0,0,1,.79-2.15,8.18,8.18,0,0,0,.95-4l2.77,19.38a8.18,8.18,0,0,1-.95,4,17.26,17.26,0,0,0-.79,2.15A5.68,5.68,0,0,0,266.3,594.74Z" style="fill:#39b54a"/><path d="M250.47,597l-2.78-19.38c.57,3.94,5,7.49,13.35,10.59l2.77,19.38C255.5,604.5,251,601,250.47,597Z" style="fill:#39b54a"/><path d="M233.93,605.6l-2.77-19.38c7.13,1.37,17.14,2,29.88,2l2.77,19.38C251.07,607.63,241.06,607,233.93,605.6Z" style="fill:#8cc63f"/><path d="M282.32,587.63q1.37,9.71,2.77,19.38-11.67.57-21.28.59L261,588.22Q270.65,588.19,282.32,587.63Z" style="fill:#39b54a"/><path d="M45.55,611.6l-2.77-19.38a230.65,230.65,0,0,0,29-1c11.42-1.07,19.28-2.52,25.6-3.69a125.82,125.82,0,0,1,14.14-2.06,42.12,42.12,0,0,1,13.3.66c4.49.81,10.08,1.81,22.65,1.48a227.52,227.52,0,0,0,27.13-2.47,113.81,113.81,0,0,1,16.33-1.49c8.33-.08,11,1,15,2.63a55.94,55.94,0,0,0,11.92,3.57c10.72,2,26.73,2.76,47.69,2.12l2.77,19.38c-21,.64-37-.07-47.69-2.12a56.13,56.13,0,0,1-11.92-3.57c-4-1.63-6.65-2.71-15-2.63a115.25,115.25,0,0,0-16.33,1.48A225.11,225.11,0,0,1,150.19,607c-12.57.33-18.16-.67-22.65-1.48a41.82,41.82,0,0,0-13.3-.66,126.15,126.15,0,0,0-14.14,2.06c-6.32,1.17-14.18,2.62-25.6,3.69A230.59,230.59,0,0,1,45.55,611.6Z" style="fill:#39b54a"/><path d="M44.88,618.26l-2.77-19.38,28.41-1.25L73.29,617Z" style="fill:#8cc63f"/><path d="M51.85,579.53a64.33,64.33,0,0,1,14.62-2.81,128.15,128.15,0,0,0,25.81.31c7.64-.58,13.57-1.51,17.89-2.19a56.11,56.11,0,0,1,8-1c2.68,0,3.27.27,4.6,1.19,1.49,1,3.54,2.47,11.89,2.91,5.41.28,14.49-.2,34.38-1.26l6.33-.35c3.74-.21,4.5-.25,6.24-.25,2.33,0,10.36.14,15.75,2.09a10.75,10.75,0,0,1,2.88,1.45h-1.11a181.06,181.06,0,0,0-24.78,2.16,158.46,158.46,0,0,1-19.54,1.82A70.5,70.5,0,0,1,138,582.48c-4.63-.83-9.88-1.77-22.25-.8a198.63,198.63,0,0,0-21.95,3.09c-5.56,1-10.82,2-18.87,2.76a176.1,176.1,0,0,1-23.11.72,10.34,10.34,0,0,0-2.9-3.21l-.12-.09-.2-.08c-.4-.16-3.78-1.65-.15-3.84A18.32,18.32,0,0,1,51.85,579.53Z" style="fill:#009245"/><path d="M70.52,597.63c11.32-.92,27-2.08,45.13-3q1.38,9.69,2.77,19.38c-18.11.92-33.81,2.08-45.13,3C72.46,611.2,71.35,603.45,70.52,597.63Z" style="fill:#8cc63f"/><path d="M31.4,605.31a4.2,4.2,0,0,1,.45,1.35L34.62,626a4.33,4.33,0,0,0-.45-1.36c-1-1.93-3.43-3.66-7.71-5.29L23.68,600C28,601.64,30.38,603.37,31.4,605.31Z" style="fill:#8cc63f"/><path d="M16,608.94l2.77,19.38a3.43,3.43,0,0,0-.39-1.14c-.85-1.62-2.85-3.07-5.94-4.32L9.69,603.48c3.09,1.25,5.09,2.7,5.94,4.32A3.43,3.43,0,0,1,16,608.94Z" style="fill:#39b54a"/><path d="M247.84,575.14a18.87,18.87,0,0,1,.83-2.27c1.3-3.11,2.42-5.8-5-6.93-3.36-.52-6.19-.38-10.88-.16a171.17,171.17,0,0,1-19,.1c-13-.75-17.4-2.86-20.95-4.56-3.3-1.58-5.13-2.32-10.52-2a58.57,58.57,0,0,0-7.44,1c-4.62.77-11,1.84-21.74,3.07-9.33,1.07-18.55,1.86-27.47,2.37a148.76,148.76,0,0,0-22.78,5.32c-.73.25-1.44.51-2.14.78-1.18.45-2.2.89-3.07,1.31l-1,.08a97.5,97.5,0,0,1-12.82.18c1.33-.65,2.89-1.33,4.73-2,1-.39,2-.77,3.11-1.13,13.14-4.53,29.65-7.19,34.7-7.94l1.75-.26,1.63-.08c8.12-.43,16.54-1.14,25-2.11,8.75-1,13.49-1.8,17.67-2.5a131.52,131.52,0,0,1,15.31-1.91c12.7-.76,16.42,1,20,2.74,3.28,1.57,6.68,3.2,16.75,3.78a125.71,125.71,0,0,0,14.39-.09c5.42-.26,11.56-.56,17.52.35,10.91,1.67,9.34,5.44,7.95,8.77a14.57,14.57,0,0,0-.79,2.15c-1.43,5.62,5.42,10.46,20.38,14.39l-1.72.08q-11.67.57-21.28.59C251,584.48,246.58,580.1,247.84,575.14Z" style="fill:#39b54a"/><path d="M231.16,586.22A48.4,48.4,0,0,1,220.65,583c-1-.39-1.9-.77-2.93-1.13,0-.18,0-.37,0-.58.09-1.69.22-4.25-5.71-6.4-7-2.5-17.51-2.76-21.74-2.76-3.19,0-5.2.12-9.21.35l-6.09.33q-9.66.52-16.31.85c-9.9-2.7-21.29-4.09-29.38-4.84l4.45,1.51a40.55,40.55,0,0,0-7.67-.43,122.33,122.33,0,0,0-17.45,1.82c-3.45.54-6.72,1-11,1.41.87-.42,1.89-.86,3.07-1.31.7-.27,1.41-.53,2.14-.78a148.76,148.76,0,0,1,22.78-5.32c8.92-.51,18.14-1.3,27.47-2.37,10.79-1.23,17.12-2.3,21.74-3.07a58.57,58.57,0,0,1,7.44-1c5.39-.32,7.22.42,10.52,2,3.55,1.7,8,3.81,20.95,4.56a171.17,171.17,0,0,0,19-.1c4.69-.22,7.52-.36,10.88.16,7.45,1.13,6.33,3.82,5,6.93a18.87,18.87,0,0,0-.83,2.27c-1.26,5,3.17,9.34,13.2,13.08C248.3,588.25,238.29,587.59,231.16,586.22Z" style="fill:#8cc63f"/><path d="M33,630.36,30.26,611c0-.24.17-.55.51-1.06a4.53,4.53,0,0,0,1.08-3.27L34.63,626a4.53,4.53,0,0,1-1.08,3.27C33.2,629.82,33,630.13,33,630.36Z" style="fill:#39b54a"/><path d="M115.65,594.63c13.35-.68,31.48-1.42,63-1.68q1.4,9.69,2.77,19.37c-31.56.27-49.69,1-63,1.69Q117,604.32,115.65,594.63Z" style="fill:#8cc63f"/><polygon points="285.09 607.01 282.32 587.63 284.04 587.55 286.81 606.93 285.09 607.01" style="fill:#39b54a"/><path d="M102.3,614.61a127.78,127.78,0,0,0,16.8-1.07q1.38,9.69,2.77,19.38a126,126,0,0,1-16.8,1.06c-4.64-.07-5.84-.5-7.8-1.21s-4.72-1.71-11.86-2.36c-12-1.08-25-.25-35.4.42-9.7.63-14.45.89-16.41,0-.36-.16-.54-.31-.57-.5L30.26,611c0,.19.2.33.57.49,2,.86,6.71.6,16.41,0,10.42-.67,23.38-1.5,35.4-.42,7.14.65,9.76,1.6,11.86,2.36S97.65,614.53,102.3,614.61Z" style="fill:#8cc63f"/><path d="M178.69,593c21.59-.19,49.82-.16,81.91.66L263.37,613c-32.08-.82-60.32-.85-81.91-.67Q180.08,602.63,178.69,593Z" style="fill:#8cc63f"/><path d="M260.65,593.62q1.38,9.69,2.77,19.37h-.05l-2.77-19.38Z" style="fill:#39b54a"/><polygon points="263.37 612.99 260.6 593.61 265.48 591.95 268.25 611.33 263.37 612.99" style="fill:#8cc63f"/><path d="M263.32,593.69q1.4,9.69,2.77,19.37l-2.67-.07q-1.38-9.69-2.77-19.37Z" style="fill:#39b54a"/><path d="M263.32,593.69h.08l2.77,19.38h-.08Q264.71,603.37,263.32,593.69Z" style="fill:#39b54a"/><path d="M44.88,618.26l-2.77-19.38c9,.5,23.43,1,43.4.38,14.52-.45,21.89-1.16,36-1.77,21.36-.93,34.89-.61,55-.15,17.17.4,39.36,1.32,62.88,3.5l2.52.23,2.78,19.38-2.52-.24c-23.53-2.17-45.72-3.09-62.89-3.49-20.13-.47-33.66-.78-55,.15-14.11.61-21.49,1.32-36,1.77C68.31,619.24,53.9,618.76,44.88,618.26Z" style="fill:#d9e021"/><path d="M211.48,602.74q1.38,9.69,2.77,19.38c-21.35,1.3-42.23,3.44-62.38,6.4-3.49.51-7,1.05-10.36,1.58-7,1.08-13.56,2.1-19.64,2.82q-1.38-9.69-2.77-19.38c6.07-.72,12.62-1.73,19.64-2.82,3.38-.53,6.87-1.06,10.35-1.58C169.25,606.18,190.13,604,211.48,602.74Z" style="fill:#8cc63f"/><path d="M211.48,602.74q12.77-.76,25.72-1.15L240,621q-12.94.38-25.72,1.15Q212.87,612.43,211.48,602.74Z" style="fill:#8cc63f"/><polygon points="239.97 620.97 237.2 601.6 239.43 600.84 242.2 620.22 239.97 620.97" style="fill:#8cc63f"/><path d="M25,595.71a88,88,0,0,1,17.78-3.49,230.65,230.65,0,0,0,29-1c11.42-1.07,19.28-2.52,25.6-3.69a125.82,125.82,0,0,1,14.14-2.06,42.12,42.12,0,0,1,13.3.66c4.49.81,10.08,1.81,22.65,1.48a227.52,227.52,0,0,0,27.13-2.47,113.81,113.81,0,0,1,16.33-1.49c8.33-.08,11,1,15,2.63a55.94,55.94,0,0,0,11.92,3.57c10.72,2,26.73,2.76,47.69,2.12l-4.88,1.66c-32.09-.82-60.32-.85-81.91-.66-31.56.26-49.69,1-63,1.68-18.11.92-33.81,2.08-45.13,3l-28.41,1.25c9,.5,23.43,1,43.4.38,14.52-.45,21.89-1.16,36-1.77,21.36-.93,34.89-.61,55-.15,17.17.4,39.36,1.32,62.88,3.5l-2.22.75a758.46,758.46,0,0,0-88.11,7.55c-3.48.52-7,1.05-10.35,1.58-14,2.17-26.17,4-36.44,3.89-4.65-.08-5.84-.51-7.8-1.22s-4.72-1.71-11.86-2.36c-12-1.08-25-.25-35.4.42-9.7.63-14.45.89-16.41,0-.82-.36-.68-.64-.06-1.55s1.73-2.52.63-4.62c-1-1.94-3.43-3.67-7.72-5.3-.48-.1-4.69-1.09-1.8-2.92A15.53,15.53,0,0,1,25,595.71Z" style="fill:#8cc63f"/><path d="M244.72,620.45l-2.78-19.38,21.46-7.38,2.77,19.38Z" style="fill:#d9e021"/><path d="M15.94,614.65c-2.25-1-1.53-2.06-.82-3.09s1.41-2,.51-3.76-2.85-3.07-5.94-4.32c-2-.47-7.8-2.25-2.43-5.66a31.71,31.71,0,0,1,6.48-2.89,135.15,135.15,0,0,1,21.76-5c4.1-.64,8.35-1.17,12.58-1.55l1.89-.16,1.84.07a176.3,176.3,0,0,0,23.12-.72c8-.76,13.3-1.73,18.86-2.76a198.63,198.63,0,0,1,21.95-3.09c12.37-1,17.62,0,22.25.8a70.5,70.5,0,0,0,16.86,1.17,158.46,158.46,0,0,0,19.54-1.82,181.06,181.06,0,0,1,24.78-2.16h1.11c9.34,0,13.88,1,17.44,2.24,1,.36,2,.74,2.93,1.13a48.4,48.4,0,0,0,10.51,3.18c7.13,1.37,17.14,2,29.88,2q9.61,0,21.28-.59l1.72-.08,9.2-.44-29,9.88-24.33,8.3-5.14.12-2.63.06a693.14,693.14,0,0,0-82.31,6.87c-3.19.47-6.38,1-9.75,1.49-15,2.33-32.09,5-47.15,4.73-8.22-.13-10.79-1.07-13.06-1.89a29.45,29.45,0,0,0-8.91-1.8c-9.33-.84-19.3-.2-28.94.42C31.47,616,20.55,616.67,15.94,614.65Zm31.3-3.2c10.42-.67,23.38-1.5,35.4-.42,7.14.65,9.76,1.6,11.86,2.36s3.15,1.14,7.8,1.22c10.27.16,22.4-1.72,36.44-3.89,3.38-.53,6.87-1.06,10.35-1.58a758.46,758.46,0,0,1,88.11-7.55l2.23-.75,2.52.23,21.45-7.38-2.8-.08,4.88-1.66c-21,.64-37-.07-47.69-2.12a55.94,55.94,0,0,1-11.92-3.57c-4-1.63-6.66-2.71-15-2.63a113.81,113.81,0,0,0-16.33,1.49,227.52,227.52,0,0,1-27.13,2.47c-12.57.33-18.16-.67-22.65-1.48a42.12,42.12,0,0,0-13.3-.66,125.82,125.82,0,0,0-14.14,2.06c-6.32,1.17-14.18,2.62-25.6,3.69a230.65,230.65,0,0,1-28.95,1A88,88,0,0,0,25,595.71a15.53,15.53,0,0,0-3.12,1.38c-2.89,1.83,1.32,2.82,2.35,3.08,3.74,1.47,6.15,3.2,7.17,5.14,1.1,2.1.1,3.56-.63,4.62s-.76,1.19.06,1.55c2,.86,6.71.6,16.41,0" style="fill:#39b54a"/><path d="M40.68,578.71c8.56-3,21.42-5.32,33.49-6l2.15-.12,1.36.2c2,.3,4,.5,6.2.63a97.5,97.5,0,0,0,12.82-.18l1-.08c4.23-.36,7.5-.87,11-1.41a122.33,122.33,0,0,1,17.45-1.82,40.55,40.55,0,0,1,7.67.43,9.45,9.45,0,0,1,4.43,1.81,8.81,8.81,0,0,0,4.78,1.7c.67.09,1.46.15,2.39.2,2,.11,6.46-.05,13.33-.38q6.65-.32,16.31-.85l6.09-.33c4-.23,6-.35,9.21-.35,4.23,0,14.79.26,21.74,2.76,5.93,2.15,5.8,4.71,5.71,6.4,0,.21,0,.4,0,.58-3.56-1.26-8.1-2.25-17.44-2.24a10.75,10.75,0,0,0-2.88-1.45c-5.39-2-13.42-2.1-15.75-2.09-1.74,0-2.5,0-6.24.25l-6.33.35c-19.89,1.06-29,1.54-34.38,1.26-8.35-.44-10.4-1.86-11.89-2.91-1.33-.92-1.92-1.23-4.6-1.19a56.11,56.11,0,0,0-8,1c-4.32.68-10.25,1.61-17.89,2.19a128.15,128.15,0,0,1-25.81-.31,64.33,64.33,0,0,0-14.62,2.81,18.32,18.32,0,0,0-3.41,1.5c-3.63,2.19-.25,3.68.15,3.84l.2.08.12.09a6.17,6.17,0,0,1,2.53,3.2L50,588.18l-1.89.16c-4.23.38-8.48.91-12.58,1.55a10.1,10.1,0,0,0-1.91-1.9c-1.62-.71-5.31-2.9.4-6.34A36.28,36.28,0,0,1,40.68,578.71Z" style="fill:#39b54a"/><path d="M17.2,632.62l-2.77-19.38c.07.48.48,1,1.51,1.41L18.71,634C17.68,633.57,17.27,633.1,17.2,632.62Z" style="fill:#39b54a"/><path d="M18.71,634l-2.77-19.37c4.61,2,15.53,1.32,26.1.64,9.64-.62,19.61-1.26,28.94-.42a29.45,29.45,0,0,1,8.91,1.8c2.27.82,4.84,1.76,13.06,1.89,15.06.24,32.11-2.4,47.15-4.73,3.37-.52,6.56-1,9.75-1.49a693.14,693.14,0,0,1,82.31-6.87l2.63-.06,2.77,19.37-2.63.07a693,693,0,0,0-82.3,6.87c-3.19.47-6.38,1-9.76,1.49-15,2.33-32.09,5-47.15,4.73-8.22-.13-10.79-1.07-13.06-1.89a29.37,29.37,0,0,0-8.91-1.8c-9.32-.84-19.3-.2-28.93.42C34.24,635.35,23.32,636.05,18.71,634Z" style="fill:#39b54a"/><polygon points="237.56 624.78 234.79 605.41 239.93 605.29 242.71 624.67 237.56 624.78" style="fill:#39b54a"/><path d="M232.16,605.47l2.63-.06,5.14-.12,24.33-8.3-27.85,9.68Z" style="fill:#39b54a"/><polygon points="267.04 616.37 264.26 596.99 293.24 587.11 296.01 606.49 267.04 616.37" style="fill:#39b54a"/><path d="M42.11,598.88l28.41-1.25c11.32-.92,27-2.08,45.13-3,13.35-.68,31.48-1.42,63-1.68,21.59-.19,49.82-.16,81.91.66l2.8.08-21.46,7.38-2.52-.23c-23.52-2.18-45.71-3.1-62.88-3.5-20.13-.46-33.66-.78-55,.15-14.12.61-21.49,1.32-36,1.77C65.54,599.87,51.13,599.38,42.11,598.88Z" style="fill:#d9e021"/><polygon points="239.19 626.05 236.41 606.67 264.26 596.99 267.04 616.37 239.19 626.05" style="fill:#39b54a"/><polygon points="242.71 624.67 239.93 605.29 264.26 596.99 267.04 616.37 242.71 624.67" style="fill:#39b54a"/><polygon points="234.93 624.85 232.16 605.47 236.41 606.67 239.19 626.05 234.93 624.85" style="fill:#39b54a"/></g></g><g id="TomatoLeft"><g style="isolation:isolate"><path d="M206.22,538.1v18.27c0-5.89-3.68-11.86-11.43-17.32-15.8-11.13-44.57-17.36-74.11-17.36a188.78,188.78,0,0,0-42.56,4.65C58.36,531,44.23,538.47,38.33,547.43a16.39,16.39,0,0,0-2.95,9.05V538.21a16.37,16.37,0,0,1,2.95-9.05c5.9-9,20-16.45,39.79-21.09a188.78,188.78,0,0,1,42.56-4.65c29.54,0,58.31,6.23,74.11,17.36C202.54,526.24,206.22,532.21,206.22,538.1Z" style="fill:#db1c24"/><path d="M121.18,507.5v18.27a163.6,163.6,0,0,0-36.95,4V511.52A163.6,163.6,0,0,1,121.18,507.5Z" style="fill:#f36b57"/><path d="M115.26,533.55a12,12,0,0,0-2.63.29V515.57a12,12,0,0,1,2.63-.29,8.63,8.63,0,0,1,4.56,1.07,1.37,1.37,0,0,1,.7,1.07v18.27a1.37,1.37,0,0,0-.7-1.07A8.63,8.63,0,0,0,115.26,533.55Z" style="fill:#d3272d"/><path d="M112.63,533.84c-1.68.4-2.63,1.11-2.63,1.85V517.42c0-.74,1-1.46,2.63-1.85v18.27Z" style="fill:#d3272d"/><path d="M194.84,532.47v18.28c-1.52-3.48-4.5-6.82-8.84-9.87-13.74-9.68-39-15.11-64.82-15.11V507.5c25.83,0,51.08,5.43,64.82,15.11C190.34,525.66,193.32,529,194.84,532.47Z" style="fill:#f36b57"/><path d="M138.6,534c-1.68.39-2.63,1.11-2.63,1.85V517.56c0-.74.95-1.46,2.63-1.85a11.46,11.46,0,0,1,2.63-.29,8.51,8.51,0,0,1,4.56,1.07,1.39,1.39,0,0,1,.71,1.07v18.27a1.39,1.39,0,0,0-.71-1.07,8.61,8.61,0,0,0-4.56-1.07A11.46,11.46,0,0,0,138.6,534Z" style="fill:#d3272d"/><path d="M115.26,515.28a8.63,8.63,0,0,1,4.56,1.07c1.45,1,.59,2.33-1.92,2.92a11.4,11.4,0,0,1-2.63.29,8.54,8.54,0,0,1-4.56-1.07c-1.45-1-.59-2.33,1.92-2.92A12,12,0,0,1,115.26,515.28Z" style="fill:#ffbb7d"/><path d="M120.52,517.42v18.27c0,.74-.94,1.46-2.62,1.85a11.4,11.4,0,0,1-2.63.29,8.54,8.54,0,0,1-4.56-1.07,1.37,1.37,0,0,1-.71-1.07V517.42a1.37,1.37,0,0,0,.71,1.07,8.54,8.54,0,0,0,4.56,1.07,11.4,11.4,0,0,0,2.63-.29C119.58,518.88,120.52,518.16,120.52,517.42Z" style="fill:#ffbb7d"/><path d="M146.5,517.56v18.27c0,.74-.95,1.46-2.64,1.85a11.31,11.31,0,0,1-2.62.29,8.51,8.51,0,0,1-4.56-1.07,1.37,1.37,0,0,1-.71-1.07V517.56a1.37,1.37,0,0,0,.71,1.07,8.51,8.51,0,0,0,4.56,1.07,11.31,11.31,0,0,0,2.62-.29C145.55,519,146.5,518.3,146.5,517.56Z" style="fill:#ffbb7d"/><path d="M141.23,515.42a8.51,8.51,0,0,1,4.56,1.07c1.45,1,.59,2.33-1.93,2.92a11.31,11.31,0,0,1-2.62.29,8.51,8.51,0,0,1-4.56-1.07c-1.45-1-.6-2.33,1.92-2.92A11.46,11.46,0,0,1,141.23,515.42Z" style="fill:#ffbb7d"/><path d="M71.63,515.42v18.27a66.1,66.1,0,0,0-16.59,8V523.47A66.1,66.1,0,0,1,71.63,515.42Z" style="fill:#f36b57"/><path d="M161.37,541a11.73,11.73,0,0,0-2.61.28V523a11.73,11.73,0,0,1,2.61-.28,8.55,8.55,0,0,1,4.57,1.07,1.36,1.36,0,0,1,.71,1.07v18.27a1.37,1.37,0,0,0-.71-1.07A8.55,8.55,0,0,0,161.37,541Z" style="fill:#d3272d"/><path d="M158.76,541.26c-1.69.4-2.63,1.12-2.63,1.86V524.85c0-.74.94-1.46,2.63-1.86Z" style="fill:#d3272d"/><path d="M166.65,524.85v18.27c0,.74-1,1.45-2.64,1.85a11.25,11.25,0,0,1-2.62.29,8.61,8.61,0,0,1-4.56-1.07,1.37,1.37,0,0,1-.7-1.07V524.85a1.37,1.37,0,0,0,.7,1.07,8.61,8.61,0,0,0,4.56,1.07,11.25,11.25,0,0,0,2.62-.29C165.7,526.3,166.65,525.59,166.65,524.85Z" style="fill:#ffbb7d"/><path d="M161.37,522.71a8.55,8.55,0,0,1,4.57,1.07c1.46,1,.59,2.33-1.93,2.92a11.25,11.25,0,0,1-2.62.29,8.61,8.61,0,0,1-4.56-1.07c-1.45-1-.59-2.33,1.93-2.93A11.73,11.73,0,0,1,161.37,522.71Z" style="fill:#ffbb7d"/><polygon points="106.92 527.5 106.92 545.77 84.23 529.79 84.23 511.52 106.92 527.5" style="fill:#d3272d"/><polygon points="111 522.09 111 540.36 106.92 545.77 106.92 527.5 111 522.09" style="fill:#d3272d"/><polygon points="152.89 530.7 152.89 548.97 126.38 549.15 126.38 530.88 152.89 530.7" style="fill:#d3272d"/><polygon points="126.38 530.88 126.38 549.15 111 540.36 111 522.09 126.38 530.88" style="fill:#d3272d"/><polygon points="105.6 531.86 105.6 550.13 71.63 533.69 71.63 515.42 105.6 531.86" style="fill:#f36b57"/><path d="M67.56,548.22a1.36,1.36,0,0,0-.71,1.06V531a1.39,1.39,0,0,1,.71-1.07,8.61,8.61,0,0,1,4.56-1.06,11.82,11.82,0,0,1,2.62.28c1.69.4,2.64,1.12,2.64,1.86v18.27c0-.74-.95-1.46-2.64-1.86a11.82,11.82,0,0,0-2.62-.28A8.51,8.51,0,0,0,67.56,548.22Z" style="fill:#d3272d"/><polygon points="105.6 531.86 105.6 550.13 88.83 549.35 88.83 531.08 105.6 531.86" style="fill:#d3272d"/><path d="M77.38,531v18.27a1.39,1.39,0,0,1-.71,1.07,8.61,8.61,0,0,1-4.56,1.07,12,12,0,0,1-2.63-.29c-1.68-.4-2.63-1.12-2.63-1.86V531c0,.74,1,1.46,2.63,1.86a12,12,0,0,0,2.63.28,8.61,8.61,0,0,0,4.56-1.06A1.39,1.39,0,0,0,77.38,531Z" style="fill:#ffbb7d"/><path d="M72.12,528.88a11.82,11.82,0,0,1,2.62.28c2.52.59,3.38,1.9,1.93,2.93a8.61,8.61,0,0,1-4.56,1.06,12,12,0,0,1-2.63-.28c-2.52-.59-3.38-1.9-1.92-2.93A8.61,8.61,0,0,1,72.12,528.88Z" style="fill:#ffbb7d"/><polygon points="152.89 530.7 152.89 548.97 142.84 554.49 142.84 536.22 152.89 530.7" style="fill:#f36b57"/><path d="M194.84,532.47l-52,3.75,10-5.52-26.51.18L111,522.09l-4.08,5.41-22.69-16a163.6,163.6,0,0,1,37-4c25.83,0,51.08,5.43,64.82,15.11C190.34,525.66,193.32,529,194.84,532.47ZM158.76,523c-2.52.6-3.38,1.9-1.93,2.93a8.61,8.61,0,0,0,4.56,1.07,11.25,11.25,0,0,0,2.62-.29c2.52-.59,3.39-1.9,1.93-2.92a8.55,8.55,0,0,0-4.57-1.07,11.73,11.73,0,0,0-2.61.28m-14.9-3.58c2.52-.59,3.38-1.9,1.93-2.92a8.51,8.51,0,0,0-4.56-1.07,11.46,11.46,0,0,0-2.63.29c-2.52.59-3.37,1.9-1.92,2.92a8.51,8.51,0,0,0,4.56,1.07,11.31,11.31,0,0,0,2.62-.29m-26-.14c2.51-.59,3.37-1.89,1.92-2.92a8.63,8.63,0,0,0-4.56-1.07,12,12,0,0,0-2.63.29c-2.51.59-3.37,1.9-1.92,2.92a8.54,8.54,0,0,0,4.56,1.07,11.4,11.4,0,0,0,2.63-.29" style="fill:#d3272d"/><polygon points="194.84 532.47 194.84 550.75 142.84 554.49 142.84 536.22 194.84 532.47" style="fill:#d3272d"/><rect x="151.56" y="538.44" width="45.38" height="18.27" style="fill:#f36b57"/><path d="M45.16,556.76V538.49c0-5.12,3.18-10.3,9.88-15v18.27C48.34,546.46,45.16,551.64,45.16,556.76Z" style="fill:#f36b57"/><polygon points="102.45 540.33 102.45 558.6 88.83 549.35 88.83 531.08 102.45 540.33" style="fill:#f36b57"/><path d="M62.11,559a1.37,1.37,0,0,0-.7,1.06V541.75a1.37,1.37,0,0,1,.7-1.06,8.58,8.58,0,0,1,4.57-1.07,11.82,11.82,0,0,1,2.62.28c1.69.4,2.63,1.12,2.63,1.86V560c0-.74-.94-1.46-2.63-1.86a11.82,11.82,0,0,0-2.62-.28A8.58,8.58,0,0,0,62.11,559Z" style="fill:#d3272d"/><polygon points="161.02 542.59 161.02 560.86 151.56 556.72 151.56 538.45 161.02 542.59" style="fill:#d3272d"/><polygon points="161.02 542.59 161.02 560.86 134.64 561.88 134.64 543.61 161.02 542.59" style="fill:#f36b57"/><path d="M71.93,541.76V560a1.37,1.37,0,0,1-.7,1.07,8.67,8.67,0,0,1-4.57,1.07,11.89,11.89,0,0,1-2.62-.29c-1.69-.4-2.63-1.12-2.63-1.86V541.75c0,.74.94,1.46,2.63,1.86a11.89,11.89,0,0,0,2.62.29,8.67,8.67,0,0,0,4.57-1.07A1.37,1.37,0,0,0,71.93,541.76Z" style="fill:#ffbb7d"/><path d="M66.68,539.62a11.82,11.82,0,0,1,2.62.28c2.52.59,3.38,1.9,1.93,2.93a8.67,8.67,0,0,1-4.57,1.07,11.89,11.89,0,0,1-2.62-.29c-2.51-.59-3.38-1.9-1.93-2.92A8.58,8.58,0,0,1,66.68,539.62Z" style="fill:#ffbb7d"/><path d="M163.58,550.82v13.87h0V550.82Z" style="fill:#d3272d"/><path d="M163.58,564.69V546.42c0-1.18,2.36-2.14,5.26-2.14s5.26,1,5.26,2.14V564.7c0-1.19-2.36-2.15-5.26-2.15s-5.26,1-5.26,2.15Z" style="fill:#d3272d"/><path d="M174.1,546.42V564.7c0,1.18-2.36,2.13-5.26,2.13s-5.26-1-5.26-2.13V546.42c0,1.19,2.36,2.14,5.26,2.14S174.1,547.61,174.1,546.42Z" style="fill:#ffbb7d"/><path d="M168.84,544.28c2.9,0,5.26,1,5.26,2.14s-2.36,2.14-5.26,2.14-5.26-.95-5.26-2.14S165.94,544.28,168.84,544.28Z" style="fill:#ffbb7d"/><polygon points="102.45 540.33 102.45 558.6 91.44 568.41 91.44 550.14 102.45 540.33" style="fill:#d3272d"/><polygon points="105 548.87 105 567.14 91.44 568.41 91.44 550.14 105 548.87" style="fill:#f36b57"/><path d="M74.81,568.17a1.39,1.39,0,0,0-.71,1.07V551a1.39,1.39,0,0,1,.71-1.07,8.63,8.63,0,0,1,4.56-1.07,11.82,11.82,0,0,1,2.62.29c1.69.4,2.63,1.12,2.63,1.86v18.27c0-.74-.94-1.46-2.63-1.86a11.82,11.82,0,0,0-2.62-.29A8.63,8.63,0,0,0,74.81,568.17Z" style="fill:#d3272d"/><polygon points="121.75 553.04 121.75 571.31 115.03 565.01 115.03 546.74 121.75 553.04" style="fill:#f36b57"/><polygon points="134.64 543.61 134.64 561.88 121.75 571.31 121.75 553.04 134.64 543.61" style="fill:#f36b57"/><path d="M84.62,551v18.27a1.35,1.35,0,0,1-.7,1.06,8.5,8.5,0,0,1-4.55,1.07,11.34,11.34,0,0,1-2.63-.29c-1.69-.39-2.64-1.11-2.64-1.85V551c0,.74,1,1.46,2.64,1.85a11.34,11.34,0,0,0,2.63.29A8.5,8.5,0,0,0,83.92,552,1.35,1.35,0,0,0,84.62,551Z" style="fill:#ffbb7d"/><path d="M150.3,573.77V555.5c0-1.18,2.35-2.13,5.26-2.13s5.27,1,5.27,2.13v18.27c0-1.18-2.36-2.13-5.27-2.13s-5.26,1-5.26,2.13v0Z" style="fill:#d3272d"/><path d="M160.83,555.5v18.27c0,1.19-2.36,2.14-5.27,2.14s-5.26-.95-5.26-2.14V555.5c0,1.19,2.35,2.14,5.26,2.14S160.83,556.69,160.83,555.5Z" style="fill:#ffbb7d"/><path d="M155.56,553.37c2.91,0,5.27,1,5.27,2.13s-2.36,2.14-5.27,2.14-5.26-.95-5.26-2.14S152.65,553.37,155.56,553.37Z" style="fill:#ffbb7d"/><path d="M124.71,577.23V559c0-1.18,2.36-2.14,5.26-2.14s5.26,1,5.26,2.14v18.27c0-1.18-2.36-2.14-5.26-2.14s-5.26,1-5.26,2.14v0Z" style="fill:#d3272d"/><path d="M135.23,559v18.27c0,1.18-2.36,2.14-5.26,2.14s-5.26-1-5.26-2.14V559c0,1.18,2.36,2.14,5.26,2.14S135.23,560.14,135.23,559Z" style="fill:#ffbb7d"/><polygon points="105 548.87 105 567.14 82.31 583.13 82.31 564.86 105 548.87" style="fill:#d3272d"/><path d="M196.93,538.44v18.28c0,16.62-33.63,30.3-74.5,30.3A175.77,175.77,0,0,1,97,585.2V566.93a175.77,175.77,0,0,0,25.43,1.82C163.3,568.75,196.93,555.07,196.93,538.44Z" style="fill:#d3272d"/><polygon points="115.03 546.74 115.03 565.01 97 585.2 97 566.93 115.03 546.74" style="fill:#f36b57"/><path d="M130,556.82c2.9,0,5.26,1,5.26,2.14s-2.36,2.14-5.26,2.14-5.26-1-5.26-2.14S127.07,556.82,130,556.82Z" style="fill:#ffbb7d"/><path d="M151.56,538.44h45.37c0,16.63-33.63,30.31-74.5,30.31A175.77,175.77,0,0,1,97,566.93l18-20.19,6.73,6.3,12.89-9.43,26.38-1ZM130,561.1c2.9,0,5.26-1,5.26-2.14s-2.36-2.14-5.26-2.14-5.26,1-5.26,2.14,2.36,2.14,5.26,2.14m38.87-12.54c2.9,0,5.26-.95,5.26-2.14s-2.36-2.14-5.26-2.14-5.26,1-5.26,2.14,2.36,2.14,5.26,2.14m-13.28,9.08c2.91,0,5.27-.95,5.27-2.14s-2.36-2.13-5.27-2.13-5.26,1-5.26,2.13,2.35,2.14,5.26,2.14" style="fill:#d3272d"/><path d="M194.79,520.78c-15.8-11.13-44.57-17.36-74.11-17.36a188.78,188.78,0,0,0-42.56,4.65c-19.76,4.64-33.89,12.13-39.79,21.09s-2.87,18.33,8.53,26.37,29.82,13.78,51.86,16.18a206.49,206.49,0,0,0,22.25,1.2,188.44,188.44,0,0,0,42.56-4.67C204.32,558.66,218.34,537.37,194.79,520.78ZM121.18,507.5c25.83,0,51.08,5.43,64.82,15.11,4.34,3,7.32,6.39,8.84,9.86l-52,3.75,10-5.52-26.51.18L111,522.09l-4.08,5.41-22.69-16a163.6,163.6,0,0,1,37-4M55,523.47a66.1,66.1,0,0,1,16.59-8.05l34,16.44-16.77-.78,13.62,9.25-11,9.81L105,548.87l-22.69,16c-35.4-8.31-47.71-27-27.27-41.39m67.39,45.28A175.77,175.77,0,0,1,97,566.93l18-20.19,6.73,6.3,12.89-9.43,26.38-1-9.46-4.15h45.37c0,16.63-33.63,30.31-74.5,30.31" style="fill:#f36b57"/><path d="M79.37,548.83a11.82,11.82,0,0,1,2.62.29c2.52.59,3.38,1.9,1.93,2.92a8.5,8.5,0,0,1-4.55,1.07,11.34,11.34,0,0,1-2.63-.29c-2.52-.59-3.39-1.89-1.93-2.92A8.63,8.63,0,0,1,79.37,548.83Z" style="fill:#ffbb7d"/><path d="M102.45,540.33l-11,9.81L105,548.87l-22.69,16c-35.4-8.31-47.71-27-27.27-41.39a66.1,66.1,0,0,1,16.59-8.05l34,16.44-16.77-.78Zm-33-7.46a12,12,0,0,0,2.63.28,8.61,8.61,0,0,0,4.56-1.06c1.45-1,.59-2.34-1.93-2.93a11.82,11.82,0,0,0-2.62-.28,8.61,8.61,0,0,0-4.56,1.06c-1.46,1-.6,2.34,1.92,2.93m1.75,10c1.45-1,.59-2.34-1.93-2.93a11.82,11.82,0,0,0-2.62-.28,8.58,8.58,0,0,0-4.57,1.07c-1.45,1-.58,2.33,1.93,2.92a11.89,11.89,0,0,0,2.62.29,8.67,8.67,0,0,0,4.57-1.07M83.92,552c1.45-1,.59-2.33-1.93-2.92a11.82,11.82,0,0,0-2.62-.29,8.63,8.63,0,0,0-4.56,1.07c-1.46,1-.59,2.33,1.93,2.92a11.34,11.34,0,0,0,2.63.29A8.5,8.5,0,0,0,83.92,552" style="fill:#d3272d"/><path d="M45.16,556.76V538.49c0,10.51,13.36,20.78,37.15,26.37v18.27C58.52,577.54,45.16,567.27,45.16,556.76Z" style="fill:#d3272d"/><path d="M206.22,538.1v18.27c0,12-15.32,23.71-42.69,30.14A188.44,188.44,0,0,1,121,591.18,206.49,206.49,0,0,1,98.72,590c-22-2.4-40.46-8.15-51.86-16.18-7.6-5.36-11.48-11.3-11.48-17.32V538.21c0,6,3.88,12,11.48,17.32,11.4,8,29.82,13.78,51.86,16.18a206.49,206.49,0,0,0,22.25,1.2,188.44,188.44,0,0,0,42.56-4.67C190.9,561.81,206.22,550.11,206.22,538.1Z" style="fill:#f36b57"/><path d="M222.22,538.08v18.27c0,14.27-18.19,28.16-50.68,35.8A224.53,224.53,0,0,1,121,597.69a245,245,0,0,1-26.41-1.42c-26.17-2.86-48-9.68-61.58-19.22-9.2-6.48-13.56-13.56-13.56-20.55V538.22c0,7,4.36,14.08,13.56,20.56,13.54,9.54,35.41,16.36,61.58,19.21A242.47,242.47,0,0,0,121,579.42a224.53,224.53,0,0,0,50.55-5.54C204,566.24,222.22,552.35,222.22,538.08Z" style="fill:#db1c24"/><path d="M208.65,517.53c28,19.7,11.31,45-37.11,56.35A224.53,224.53,0,0,1,121,579.42,242.47,242.47,0,0,1,94.58,578c-26.17-2.85-48-9.67-61.58-19.21-28-19.7-11.3-45,37.12-56.35a224.2,224.2,0,0,1,50.54-5.52C155.73,496.91,189.89,504.31,208.65,517.53Zm-45.12,50.71c40.79-9.58,54.81-30.87,31.26-47.46-15.8-11.13-44.57-17.36-74.11-17.36a188.78,188.78,0,0,0-42.56,4.65c-19.76,4.64-33.89,12.13-39.79,21.09s-2.87,18.33,8.53,26.37,29.82,13.78,51.86,16.18a206.49,206.49,0,0,0,22.25,1.2,188.44,188.44,0,0,0,42.56-4.67" style="fill:#db1c24"/></g></g><g id="TomatoRight"><g style="isolation:isolate"><path d="M299.92,490.39,295,504.09a15.94,15.94,0,0,0,.79-6.93C293.82,476,255.73,449,210.93,437c-39.48-10.58-71.21-6.06-76.81,9.64L139,433c5.59-15.7,37.33-20.22,76.8-9.65,44.81,12,82.89,39,84.9,60.13A16,16,0,0,1,299.92,490.39Z" style="fill:#db1c24"/><path d="M240.13,436.12l-4.89,13.71a178.65,178.65,0,0,0-24.38-8.5l4.89-13.7A178.6,178.6,0,0,1,240.13,436.12Z" style="fill:#f36b57"/><path d="M210.86,441.33a151,151,0,0,0-20.83-4.1l4.89-13.7a151,151,0,0,1,20.83,4.1Z" style="fill:#f36b57"/><path d="M204.5,447.86c-2.44-.65-4.39-.38-4.74.59l4.89-13.7c.34-1,2.3-1.25,4.73-.59,2.76.73,5.1,2.39,5.23,3.7l-4.89,13.7,4.89-13.7a1.16,1.16,0,0,1-.05.42L209.67,452a1,1,0,0,0,.05-.43C209.6,450.26,207.25,448.6,204.5,447.86Z" style="fill:#d3272d"/><path d="M214.56,438.28,209.67,452c-.34,1-2.3,1.24-4.73.59-2.76-.74-5.1-2.4-5.23-3.7a1,1,0,0,1,0-.43l4.89-13.7a.84.84,0,0,0-.05.42c.12,1.31,2.47,3,5.23,3.71C212.26,439.53,214.21,439.25,214.56,438.28Z" style="fill:#ffbb7d"/><path d="M190,437.23c-24.26-3-42.33,1.82-46.17,12.58l4.89-13.7c3.84-10.76,21.91-15.53,46.17-12.58Z" style="fill:#f36b57"/><path d="M180.51,445.15c-2.44-.65-4.38-.38-4.73.59l4.89-13.7c.35-1,2.29-1.25,4.73-.59,2.76.74,5.11,2.39,5.23,3.7a1,1,0,0,1,0,.43l-4.89,13.7a.87.87,0,0,0,.05-.43C185.62,447.55,183.28,445.89,180.51,445.15Z" style="fill:#d3272d"/><path d="M190.58,435.58l-4.89,13.7c-.34,1-2.29,1.25-4.73.59-2.77-.74-5.1-2.4-5.23-3.7a1.18,1.18,0,0,1,.05-.43l4.89-13.7a1,1,0,0,0,0,.43c.13,1.3,2.46,3,5.23,3.7C188.28,436.82,190.24,436.55,190.58,435.58Z" style="fill:#ffbb7d"/><path d="M185.4,431.45c2.76.74,5.11,2.39,5.23,3.7s-2,1.76-4.78,1-5.1-2.4-5.23-3.7S182.63,430.71,185.4,431.45Z" style="fill:#ffbb7d"/><path d="M168.83,451.79c-2.43-.66-4.38-.38-4.72.59L169,438.67c.35-1,2.3-1.24,4.73-.59,2.77.74,5.1,2.4,5.23,3.7a1.18,1.18,0,0,1,0,.43L174,455.92a1,1,0,0,0,.05-.43C173.93,454.18,171.6,452.53,168.83,451.79Z" style="fill:#d3272d"/><path d="M173.72,438.08c2.77.74,5.1,2.4,5.23,3.7s-2,1.77-4.78,1-5.1-2.4-5.22-3.71S171,437.34,173.72,438.08Z" style="fill:#ffbb7d"/><path d="M178.9,442.21,174,455.92c-.35,1-2.29,1.24-4.73.59-2.76-.74-5.1-2.4-5.22-3.7a.87.87,0,0,1,.05-.43L169,438.67a1,1,0,0,0,0,.43c.12,1.31,2.45,3,5.22,3.71C176.61,443.46,178.55,443.18,178.9,442.21Z" style="fill:#ffbb7d"/><polygon points="206.78 452.27 201.89 465.97 176.89 460.37 181.78 446.67 206.78 452.27" style="fill:#d3272d"/><polygon points="191.23 453.66 186.34 467.36 176.89 460.37 181.78 446.67 191.23 453.66" style="fill:#f36b57"/><path d="M215.75,427.63a178.6,178.6,0,0,1,24.38,8.49l-15,17.69L218,445.15l-11.26,7.12-25-5.6,9.45,7-43.17-11.57C146.32,423.74,176.87,417.21,215.75,427.63Zm-29.9,8.54c2.76.74,4.9.28,4.78-1s-2.47-3-5.23-3.7-4.9-.29-4.78,1,2.46,3,5.23,3.7m24,2.71c2.76.74,4.9.28,4.78-1s-2.47-3-5.23-3.7-4.9-.29-4.78,1,2.47,3,5.23,3.71m-35.66,3.93c2.77.74,4.9.28,4.78-1s-2.46-3-5.23-3.7-4.9-.28-4.77,1,2.45,3,5.22,3.71" style="fill:#d3272d"/><path d="M248.37,469.55a1,1,0,0,0-.5.57l4.88-13.7a1.16,1.16,0,0,1,.51-.58,6.18,6.18,0,0,1,4.23,0,12.84,12.84,0,0,1,2.53,1c2,1,3,2.29,2.65,3.15l-4.89,13.7c.3-.86-.7-2.12-2.65-3.14a12.43,12.43,0,0,0-2.52-1C250.87,469.07,249.23,469,248.37,469.55Z" style="fill:#d3272d"/><path d="M262.67,460l-4.89,13.7a1.11,1.11,0,0,1-.51.57c-.86.51-2.5.48-4.23,0a12.84,12.84,0,0,1-2.53-1c-1.94-1-2.95-2.29-2.64-3.15l4.88-13.7c-.3.85.7,2.12,2.65,3.14a12.43,12.43,0,0,0,2.52,1c1.74.46,3.38.49,4.24,0A1.15,1.15,0,0,0,262.67,460Z" style="fill:#ffbb7d"/><path d="M286,500.41c4.33-12.14-9.94-30.13-37.4-44.6l4.89-13.7c27.46,14.47,41.73,32.46,37.4,44.59C289.4,490.82,287.44,496.3,286,500.41Z" style="fill:#f36b57"/><polygon points="253.46 442.11 248.57 455.81 228.66 467.68 233.55 453.97 253.46 442.11" style="fill:#f36b57"/><polygon points="246.31 456.03 241.42 469.73 228.66 467.68 233.55 453.97 246.31 456.03" style="fill:#d3272d"/><path d="M261.42,483l4.89-13.71c.85-.51,2.49-.48,4.22,0a12.51,12.51,0,0,1,2.53,1c1.94,1,2.95,2.29,2.64,3.14l-4.88,13.71c.3-.86-.71-2.12-2.65-3.15a12.25,12.25,0,0,0-2.53-1C263.91,482.47,262.27,482.45,261.42,483Z" style="fill:#d3272d"/><path d="M261.42,483a1.07,1.07,0,0,0-.51.57l4.88-13.7a1.14,1.14,0,0,1,.52-.58L261.42,483Z" style="fill:#d3272d"/><path d="M275.7,473.36l-4.88,13.71a1.15,1.15,0,0,1-.51.57c-.86.51-2.5.48-4.23,0a12.21,12.21,0,0,1-2.52-1c-1.95-1-3-2.28-2.65-3.14l4.88-13.7c-.3.85.7,2.12,2.65,3.14a12.29,12.29,0,0,0,2.53,1c1.73.46,3.37.49,4.22,0A1.08,1.08,0,0,0,275.7,473.36Z" style="fill:#ffbb7d"/><polygon points="240.13 436.12 235.25 449.83 220.21 467.51 225.1 453.81 240.13 436.12" style="fill:#d3272d"/><polygon points="250.79 477.73 245.91 491.44 231.97 477.75 236.86 464.05 250.79 477.73" style="fill:#d3272d"/><polygon points="246.31 456.03 241.42 469.73 231.97 477.75 236.86 464.05 246.31 456.03" style="fill:#f36b57"/><path d="M257.37,493.43a1.07,1.07,0,0,0-.51.57l4.88-13.7a1.13,1.13,0,0,1,.51-.58c.86-.51,2.5-.48,4.23,0a12,12,0,0,1,2.52,1c1.95,1,3,2.29,2.65,3.14l-4.88,13.7c.3-.85-.7-2.11-2.65-3.14a12.25,12.25,0,0,0-2.53-1C259.86,492.94,258.22,492.92,257.37,493.43Z" style="fill:#d3272d"/><polygon points="225.1 453.81 220.21 467.51 213.16 458.85 218.04 445.15 225.1 453.81" style="fill:#d3272d"/><polygon points="218.04 445.15 213.16 458.85 201.89 465.97 206.78 452.27 218.04 445.15" style="fill:#d3272d"/><path d="M143.86,449.82l4.89-13.71a13.85,13.85,0,0,0-.69,6l-4.89,13.7A13.8,13.8,0,0,1,143.86,449.82Z" style="fill:#d3272d"/><polygon points="191.23 453.66 186.34 467.36 143.18 455.8 148.06 442.09 191.23 453.66" style="fill:#d3272d"/><path d="M271.65,483.83l-4.88,13.7a1.1,1.1,0,0,1-.52.58c-.85.51-2.49.48-4.22,0a12.29,12.29,0,0,1-2.53-1c-1.95-1-2.95-2.28-2.64-3.14l4.88-13.7c-.3.85.7,2.11,2.65,3.14a12.29,12.29,0,0,0,2.53,1c1.73.46,3.37.49,4.22,0A1.12,1.12,0,0,0,271.65,483.83Z" style="fill:#ffbb7d"/><polygon points="199.71 458.77 194.82 472.48 145.75 463.36 150.63 449.65 199.71 458.77" style="fill:#f36b57"/><polygon points="199.71 458.77 194.82 472.48 185.84 476 190.72 462.3 199.71 458.77" style="fill:#d3272d"/><polygon points="231.47 482.48 226.58 496.19 211.03 482.57 215.92 468.87 231.47 482.48" style="fill:#f36b57"/><polygon points="234.79 477.55 229.9 491.26 226.58 496.19 231.47 482.48 234.79 477.55" style="fill:#f36b57"/><path d="M175.67,477.59c-1.27,0-2,.37-2.26,1l4.89-13.71c.21-.57,1-.94,2.26-.95l-4.89,13.71Z" style="fill:#d3272d"/><path d="M175.67,477.59l4.89-13.71a9.64,9.64,0,0,1,2.47.36,10.22,10.22,0,0,1,4.44,2.34c.68.68.91,1.31.74,1.79l-4.89,13.7c.18-.48,0-1.11-.73-1.79a10.42,10.42,0,0,0-4.45-2.34A9.61,9.61,0,0,0,175.67,477.59Z" style="fill:#d3272d"/><path d="M188.21,468.37l-4.89,13.7c-.2.58-1,.94-2.25.95a10.07,10.07,0,0,1-2.47-.35,10.43,10.43,0,0,1-4.45-2.35c-.68-.68-.91-1.3-.74-1.78l4.89-13.71c-.17.48.06,1.11.73,1.79a10.41,10.41,0,0,0,4.46,2.34,9.64,9.64,0,0,0,2.47.36C187.23,469.31,188,468.94,188.21,468.37Z" style="fill:#ffbb7d"/><polygon points="258.05 500.98 253.16 514.68 229.9 491.26 234.79 477.55 258.05 500.98" style="fill:#f36b57"/><path d="M220.32,497.54c-1.27,0-2,.37-2.26.95L223,484.78c.21-.57,1-.94,2.26-.95l-4.89,13.71,4.89-13.71a9.63,9.63,0,0,1,2.46.36,10.36,10.36,0,0,1,4.46,2.34c.67.68.9,1.31.73,1.79L228,502c.17-.48-.05-1.1-.73-1.79a10.4,10.4,0,0,0-4.46-2.34A9.07,9.07,0,0,0,220.32,497.54Z" style="fill:#d3272d"/><path d="M195.61,490.77c-1.28,0-2.06.37-2.26.94l4.88-13.7c.21-.57,1-.94,2.26-.94q-2.44,6.84-4.88,13.7Z" style="fill:#d3272d"/><path d="M195.61,490.77q2.43-6.86,4.88-13.7a9.19,9.19,0,0,1,2.47.35,10.32,10.32,0,0,1,4.45,2.34c.68.68.9,1.31.73,1.79l-4.88,13.7c.17-.48-.06-1.1-.74-1.79a10.42,10.42,0,0,0-4.45-2.34A9.18,9.18,0,0,0,195.61,490.77Z" style="fill:#d3272d"/><path d="M232.86,488.32,228,502c-.2.58-1,.94-2.25,1a9.61,9.61,0,0,1-2.47-.35,10.53,10.53,0,0,1-4.45-2.34c-.68-.69-.91-1.31-.74-1.79L223,484.78c-.17.48.06,1.11.74,1.79a10.43,10.43,0,0,0,4.45,2.35,10.06,10.06,0,0,0,2.46.35C231.87,489.26,232.65,488.89,232.86,488.32Z" style="fill:#ffbb7d"/><path d="M227.67,484.19a10.36,10.36,0,0,1,4.46,2.34c1.48,1.5.8,2.72-1.53,2.74a10.06,10.06,0,0,1-2.46-.35,10.43,10.43,0,0,1-4.45-2.35c-1.5-1.5-.81-2.72,1.52-2.74A9.63,9.63,0,0,1,227.67,484.19Z" style="fill:#ffbb7d"/><path d="M208.14,481.55l-4.88,13.7c-.21.58-1,.94-2.27.95a9.63,9.63,0,0,1-2.46-.36,10.32,10.32,0,0,1-4.45-2.34c-.68-.68-.9-1.31-.73-1.79l4.88-13.7c-.17.48.06,1.11.74,1.79a10.28,10.28,0,0,0,4.44,2.34,9.19,9.19,0,0,0,2.47.35C207.16,482.49,207.94,482.12,208.14,481.55Z" style="fill:#ffbb7d"/><path d="M234.79,477.55,258.05,501a134.69,134.69,0,0,1-34.72-5c-24.58-6.59-49.17-19-63.26-33.2a44.1,44.1,0,0,1-9.44-13.15l49.08,9.12-9,3.53,25.2,6.57,15.55,13.61Zm-4.19,11.72c2.33,0,3-1.24,1.53-2.74a10.36,10.36,0,0,0-4.46-2.34,9.63,9.63,0,0,0-2.46-.36c-2.33,0-3,1.24-1.52,2.74a10.43,10.43,0,0,0,4.45,2.35,10.06,10.06,0,0,0,2.46.35m-24.72-6.78c2.34,0,3-1.23,1.53-2.73a10.32,10.32,0,0,0-4.45-2.34,9.19,9.19,0,0,0-2.47-.35c-2.33,0-3,1.23-1.52,2.73a10.28,10.28,0,0,0,4.44,2.34,9.19,9.19,0,0,0,2.47.35M186,469.32c2.32,0,3-1.24,1.51-2.74a10.22,10.22,0,0,0-4.44-2.34,9.64,9.64,0,0,0-2.47-.36c-2.34,0-3,1.24-1.53,2.74a10.41,10.41,0,0,0,4.46,2.34,9.64,9.64,0,0,0,2.47.36" style="fill:#d3272d"/><path d="M190.72,462.3,185.83,476l12,3.13.4-1.12c.21-.57,1-.94,2.26-.94l-.9,2.52h0l.9-2.52a9.19,9.19,0,0,1,2.47.35,10.42,10.42,0,0,1,4.45,2.34c.68.68.9,1.31.73,1.79h0l-.08.24,3,.78,4.89-13.7Z" style="fill:#f36b57"/><path d="M290.86,486.7,286,500.41a15.63,15.63,0,0,1-7.14,8c-3.8,2.27-8.85,3.84-14.93,4.66l4.88-13.71c6.08-.81,11.14-2.38,14.94-4.65A15.59,15.59,0,0,0,290.86,486.7Z" style="fill:#d3272d"/><path d="M295,504.09c-3.61,10.13-18.11,15.61-38.56,15.37.82-2.28,1.63-4.56,2.45-6.85l.64-1.79.62-1.76.61-1.7.57-1.6c20.44.24,34.94-5.24,38.56-15.37Z" style="fill:#f36b57"/><path d="M258.05,501l-4.89,13.7a134.81,134.81,0,0,1-34.72-5c-24.57-6.58-49.17-19-63.25-33.2a43.92,43.92,0,0,1-9.44-13.15l4.88-13.7a44.1,44.1,0,0,0,9.44,13.15c14.09,14.18,38.68,26.61,63.26,33.2A134.69,134.69,0,0,0,258.05,501Z" style="fill:#d3272d"/><path d="M133.32,453.62a15.83,15.83,0,0,1,.8-6.94L139,433a15.81,15.81,0,0,0-.8,6.93c1.51,15.86,23.31,35,53,48.64q-2.44,6.84-4.88,13.7C156.63,488.61,134.83,469.47,133.32,453.62Z" style="fill:#f36b57"/><path d="M218.21,513.73a201.74,201.74,0,0,1-31.87-11.48c.81-2.29,1.63-4.57,2.44-6.85l.64-1.8.63-1.76.6-1.69.57-1.6A202.86,202.86,0,0,0,223.1,500a157.35,157.35,0,0,0,38.26,5.73l-4.89,13.7A156.87,156.87,0,0,1,218.21,513.73Z" style="fill:#f36b57"/><path d="M315,495.77l-4.89,13.7c-6.64,18.64-44.31,24-91.2,11.44-53.19-14.25-98.4-46.27-100.78-71.37a19.07,19.07,0,0,1,.94-8.24l4.89-13.7a18.92,18.92,0,0,0-.94,8.24c2.38,25.1,47.59,57.12,100.78,71.37C270.67,519.78,308.33,514.41,315,495.77Z" style="fill:#db1c24"/><path d="M215.13,416.15c53.2,14.26,98.41,46.27,100.79,71.38S277,521.47,223.78,507.21,125.38,460.94,123,435.84,161.94,401.9,215.13,416.15Zm8,83.88c44.8,12,79.62,4.57,77.61-16.57s-40.09-48.12-84.9-60.13-79.61-4.56-77.6,16.58S178.31,488,223.1,500" style="fill:#db1c24"/><path d="M268.44,473a12.29,12.29,0,0,0,2.53,1c1.73.46,3.37.49,4.22,0,1.28-.76.32-2.43-2.13-3.72a12.51,12.51,0,0,0-2.53-1c-1.73-.46-3.37-.49-4.22,0C265,470,266,471.68,268.44,473Z" style="fill:#ffbb7d"/><path d="M268.79,499.4l-34-26.81-3.47,9.73.19.16,3.32-4.93L258.05,501l-1.65,4.61c.92.05,1.84.1,2.74.12h.19l2,0h4.8l.4,0Z" style="fill:#d3272d"/><polygon points="231.28 482.32 231.47 482.48 234.79 477.55 246.61 489.46 250.79 477.73 234.75 472.59 231.28 482.32" style="fill:#f36b57"/><path d="M253.46,442.11,233.55,454,246.31,456l-9.45,8,13.93,13.68-16-5.14,34,26.81c6.08-.81,11.14-2.38,14.94-4.65C301.66,484.07,288,460.31,253.46,442.11Zm4.46,18.44a12.43,12.43,0,0,1-2.52-1c-2.45-1.29-3.41-2.95-2.14-3.72a6.18,6.18,0,0,1,4.23,0,12.84,12.84,0,0,1,2.53,1c2.45,1.3,3.41,3,2.14,3.72-.86.51-2.5.48-4.24,0m13.22,23.86c-.85.51-2.49.48-4.22,0a12.29,12.29,0,0,1-2.53-1c-2.46-1.3-3.41-3-2.14-3.72.86-.51,2.5-.48,4.23,0a12,12,0,0,1,2.52,1c2.46,1.29,3.42,3,2.14,3.72m4.6-11.19a.85.85,0,0,1-.17.39,1.39,1.39,0,0,1-.38.33,1.61,1.61,0,0,1-.35.16,3.19,3.19,0,0,1-.66.16l-.24,0-.53,0-.57,0-.6-.07-.63-.11L271,474a12.72,12.72,0,0,1-2.22-.83l-.31-.16c-2.3-1.21-3.28-2.75-2.35-3.56a1.4,1.4,0,0,1,.22-.16,3.6,3.6,0,0,1,1.78-.37,8.2,8.2,0,0,1,1.17.09l.62.11.32.07.33.08c.42.12.85.26,1.28.42l.63.27c.21.09.41.19.62.3,1.6.85,2.57,1.86,2.68,2.66a1,1,0,0,1,0,.34" style="fill:#d3272d"/><path d="M255.4,459.56a12.43,12.43,0,0,0,2.52,1c1.74.46,3.38.49,4.24,0,1.27-.76.31-2.42-2.14-3.72a12.84,12.84,0,0,0-2.53-1,6.18,6.18,0,0,0-4.23,0C252,456.61,253,458.27,255.4,459.56Z" style="fill:#ffbb7d"/><path d="M266.48,479.7a12,12,0,0,1,2.52,1c2.46,1.29,3.42,3,2.14,3.72-.85.51-2.49.48-4.22,0a12.29,12.29,0,0,1-2.53-1c-2.46-1.3-3.41-3-2.14-3.72C263.11,479.21,264.75,479.24,266.48,479.7Z" style="fill:#ffbb7d"/><path d="M183,464.24a10.22,10.22,0,0,1,4.44,2.34c1.5,1.5.81,2.73-1.51,2.74a9.64,9.64,0,0,1-2.47-.36,10.41,10.41,0,0,1-4.46-2.34c-1.48-1.5-.81-2.73,1.53-2.74A9.64,9.64,0,0,1,183,464.24Z" style="fill:#ffbb7d"/><path d="M203,477.42a10.32,10.32,0,0,1,4.45,2.34c1.49,1.5.81,2.73-1.53,2.73a9.19,9.19,0,0,1-2.47-.35A10.28,10.28,0,0,1,199,479.8c-1.49-1.5-.81-2.73,1.52-2.73A9.19,9.19,0,0,1,203,477.42Z" style="fill:#ffbb7d"/><path d="M215.81,423.33c44.81,12,82.89,39,84.9,60.13S267.9,512,223.1,500s-82.88-39-84.89-60.12S171,411.33,215.81,423.33Zm53,76.07c6.08-.81,11.14-2.38,14.94-4.65,17.93-10.68,4.26-34.44-30.27-52.64L233.55,454,246.31,456l-9.45,8,13.93,13.68-16-5.14,34,26.81M223.33,496a134.69,134.69,0,0,0,34.72,5l-23.26-23.43-3.32,4.93-15.55-13.61-25.2-6.57,9-3.53-49.08-9.12a44.1,44.1,0,0,0,9.44,13.15c14.09,14.18,38.68,26.61,63.26,33.2m-7.58-68.37c-38.88-10.42-69.43-3.89-67.69,14.46l43.17,11.57-9.45-7,25,5.6L218,445.15l7.06,8.66,15-17.69a178.6,178.6,0,0,0-24.38-8.49" style="fill:#f36b57"/><path d="M209.83,438.88c2.76.74,4.9.28,4.78-1s-2.47-3-5.23-3.7-4.9-.29-4.78,1S207.07,438.14,209.83,438.88Z" style="fill:#ffbb7d"/></g></g><g id="BaconRight"><g style="isolation:isolate"><path d="M310.24,400.91l-1.3,13.79A216.93,216.93,0,0,0,286.73,400c-9.32-5.41-23.56-12.9-87.75-38.88-22.56-9.14-32.81-13.07-45.46-20.44a134.67,134.67,0,0,1-23.57-17L131.24,310a136,136,0,0,0,23.57,16.95c12.66,7.37,22.9,11.3,45.46,20.43,64.19,26,78.43,33.47,87.75,38.89A215.12,215.12,0,0,1,310.24,400.91Z" style="fill:#c1272d"/><path d="M300.1,403.62l-1.3,13.8c-19.66-16.27-41.88-27.2-58-34-32-13.55-56.77-18.1-86.43-33.51-18-9.34-28.61-17.92-34.55-23.39l1.3-13.8c5.94,5.48,16.56,14.05,34.54,23.4,29.66,15.4,54.46,20,86.43,33.5C258.22,376.43,280.44,387.35,300.1,403.62Z" style="fill:#f65656"/><path d="M121.1,312.69c5.94,5.48,16.56,14.05,34.54,23.4,29.66,15.4,54.46,20,86.43,33.5,16.15,6.84,38.37,17.76,58,34l-12.92,3.46a437,437,0,0,0-57.47-31.54c-31.09-14.29-51.17-19.84-80.88-35a318.54,318.54,0,0,1-40.65-24.38Z" style="fill:#eebf77"/><path d="M287.18,407.08l-1.3,13.8a435.34,435.34,0,0,0-57.46-31.55c-31.1-14.28-51.17-19.84-80.88-35A316.48,316.48,0,0,1,106.88,330l1.3-13.79a318.54,318.54,0,0,0,40.65,24.38c29.71,15.16,49.79,20.71,80.88,35A437,437,0,0,1,287.18,407.08Z" style="fill:#eebf77"/><path d="M277,409.8l-1.29,13.8a220.17,220.17,0,0,0-36-21.18c-13.19-6.32-19.78-8.27-50.93-20.87-25.88-10.48-38.81-15.71-48.4-20.43-12.29-6-28.92-15.38-43.68-28.45l1.3-13.8c14.76,13.07,31.39,22.41,43.67,28.45,9.59,4.73,22.53,10,48.4,20.43,31.15,12.6,37.74,14.56,50.94,20.88C258.91,397.19,270.41,404.91,277,409.8Z" style="fill:#f65656"/><path d="M135.56,308.82c4.77,4.57,13.05,11.47,26.87,19.06,17.25,9.48,26.81,11.06,61.93,25.1,17.58,7,39.95,16.7,63.2,28.06,14.65,7.16,25.54,13.28,32.36,17.27L267.35,412.4a244.77,244.77,0,0,0-28.71-17.5c-18.17-9.55-27.87-12.29-64.9-28.39-20.45-8.89-30.81-13.4-43.44-19.86a334.16,334.16,0,0,1-42-25.18l9.69-2.6c14.76,13.07,31.39,22.41,43.67,28.45,9.59,4.73,22.53,10,48.4,20.43,31.15,12.6,37.74,14.56,50.94,20.88,17.86,8.56,29.36,16.28,36,21.17l33.21-8.89A215.12,215.12,0,0,0,288,386.25c-9.32-5.42-23.56-12.91-87.75-38.89-22.56-9.13-32.8-13.06-45.46-20.43A136,136,0,0,1,131.24,310Z" style="fill:#c1272d"/><polygon points="300.1 403.62 298.8 417.42 285.88 420.88 287.18 407.08 300.1 403.62" style="fill:#eebf77"/><polygon points="310.24 400.91 308.94 414.7 275.74 423.6 277.03 409.8 310.24 400.91" style="fill:#f65656"/><path d="M131.24,310a136,136,0,0,0,23.57,16.95c12.66,7.37,22.9,11.3,45.46,20.43,64.19,26,78.43,33.47,87.75,38.89a215.12,215.12,0,0,1,22.22,14.66L277,409.8c-6.62-4.89-18.12-12.61-36-21.17-13.2-6.32-19.79-8.28-50.94-20.88-25.87-10.47-38.81-15.7-48.4-20.43-12.28-6-28.91-15.38-43.67-28.45l10.14-2.71a318.54,318.54,0,0,0,40.65,24.38c29.71,15.16,49.79,20.71,80.88,35a437,437,0,0,1,57.47,31.54l12.92-3.46c-19.66-16.27-41.88-27.19-58-34-32-13.54-56.77-18.1-86.43-33.5-18-9.35-28.6-17.92-34.54-23.4Z" style="fill:#f65656"/><polygon points="319.92 398.31 318.63 412.11 266.06 426.19 267.35 412.4 319.92 398.31" style="fill:#c1272d"/><path d="M267.35,412.4l-1.29,13.79a246.52,246.52,0,0,0-28.71-17.5c-18.18-9.55-27.87-12.29-64.9-28.39C152,371.42,141.64,366.91,129,360.44a332.63,332.63,0,0,1-41.94-25.18l1.29-13.79a334.16,334.16,0,0,0,42,25.18c12.63,6.46,23,11,43.44,19.86,37,16.1,46.73,18.84,64.9,28.39A244.77,244.77,0,0,1,267.35,412.4Z" style="fill:#c1272d"/></g></g><g id="BaconLeft"><g style="isolation:isolate"><path d="M146.54,270l2.69,13.13c-4,5.23-9.16,12.95-12.22,22.06-3.34,9.92-2.24,15.68-.7,28.91,4.4,37.61,2.13,47.89-.29,55.17A96.43,96.43,0,0,1,127,408.57l-2.68-13.13a97.05,97.05,0,0,0,9.06-19.32c2.43-7.29,4.69-17.56.3-55.18-1.55-13.22-2.65-19,.69-28.91A78.29,78.29,0,0,1,146.54,270Z" style="fill:#f65656"/><path d="M141,321.23l-2.69-13.14a27.34,27.34,0,0,1,.55-13.95c2.78-10.33,8.86-19.14,13.45-24.87L155,282.41c-4.59,5.73-10.66,14.53-13.45,24.86A27.37,27.37,0,0,0,141,321.23Z" style="fill:#c1272d"/><path d="M120.45,332.27l-2.69-13.13a40.63,40.63,0,0,1,.13-16.8c2.62-12.83,9.9-23.82,15.21-30.71l2.69,13.13c-5.31,6.89-12.59,17.89-15.21,30.72A40.58,40.58,0,0,0,120.45,332.27Z" style="fill:#eebf77"/><path d="M125.65,344.2l2.68,13.13c-1.93-9.42-6.11-16.41-7.88-25.06l-2.69-13.13C119.53,327.79,123.72,334.77,125.65,344.2Z" style="fill:#f65656"/><path d="M102.55,275.38l2.69,13.13C93,305.06,89.27,317.7,88.1,326.1c-.91,6.55,0,14.13,1.75,29.29,2.14,18.25,3.93,21.32,3,30.14-1.26,12-6.22,22.1-9.89,28.45l-2.68-13.14c3.67-6.34,8.62-16.5,9.88-28.44.94-8.83-.86-11.9-3-30.14-1.77-15.16-2.66-22.74-1.74-29.3C86.59,304.57,90.31,291.92,102.55,275.38Z" style="fill:#c1272d"/><path d="M116,273.73l2.68,13.13a109.94,109.94,0,0,0-12,32.65c-3.83,20.9,2.33,29.8,1.29,49.91-.51,9.77-2.82,24.26-11.55,42.91l-2.69-13.14c8.73-18.64,11.05-33.13,11.56-42.9,1-20.11-5.12-29-1.3-49.92A110.13,110.13,0,0,1,116,273.73Z" style="fill:#f65656"/><path d="M133.1,271.63c-5.31,6.89-12.59,17.88-15.21,30.71-4.33,21.17,7.61,29.6,8.68,49,.54,9.79-1.56,25-15.74,45.74l-17.12,2.1c8.73-18.64,11.05-33.13,11.56-42.9,1-20.11-5.12-29-1.3-49.92a110.13,110.13,0,0,1,12-32.64Z" style="fill:#eebf77"/><path d="M125.65,344.2l2.68,13.13a48.35,48.35,0,0,1,.93,7.15c.54,9.8-1.56,25-15.74,45.74l-2.69-13.13c14.18-20.77,16.28-35.95,15.74-45.74A49.57,49.57,0,0,0,125.65,344.2Z" style="fill:#eebf77"/><polygon points="137.09 393.86 139.78 407 70.13 415.55 67.45 402.42 137.09 393.86" style="fill:#c1272d"/><polygon points="124.27 395.44 126.95 408.57 82.96 413.98 80.28 400.84 124.27 395.44" style="fill:#f65656"/><polygon points="110.83 397.09 113.52 410.22 96.4 412.33 93.71 399.19 110.83 397.09" style="fill:#eebf77"/><path d="M146.54,270a78.29,78.29,0,0,0-12.22,22c-3.34,9.93-2.24,15.69-.69,28.91,4.39,37.62,2.13,47.89-.3,55.18a97.05,97.05,0,0,1-9.06,19.32l-44,5.4c3.67-6.34,8.62-16.5,9.88-28.44.94-8.83-.86-11.9-3-30.14-1.77-15.16-2.66-22.74-1.74-29.3,1.17-8.39,4.89-21,17.13-37.58L116,273.73a110.13,110.13,0,0,0-12,32.64c-3.82,20.9,2.34,29.81,1.3,49.92-.51,9.77-2.83,24.26-11.56,42.9l17.12-2.1c14.18-20.77,16.28-35.95,15.74-45.74-1.07-19.41-13-27.84-8.68-49,2.62-12.83,9.9-23.82,15.21-30.71Z" style="fill:#f65656"/><path d="M141.54,321.8l2.68,13.13c.52,2.51,1,5.36,1.46,8.66a154.9,154.9,0,0,1-.32,39.8A122.33,122.33,0,0,1,139.78,407l-2.68-13.14a122.76,122.76,0,0,0,5.58-23.6,154.83,154.83,0,0,0,.31-39.8C142.55,327.15,142.05,324.3,141.54,321.8Z" style="fill:#c1272d"/><path d="M152.27,269.27c-4.59,5.73-10.67,14.54-13.45,24.87-3.48,12.88,1.44,15.94,4.17,36.32a154.83,154.83,0,0,1-.31,39.8,122.76,122.76,0,0,1-5.58,23.6l-69.65,8.56a88.56,88.56,0,0,0,9-23.37c2.86-13.1,0-17.46-.47-40.4-.26-12.66-.39-19.07,1.29-28A116.27,116.27,0,0,1,89.72,277l12.83-1.57c-12.24,16.54-16,29.19-17.13,37.58-.92,6.56,0,14.14,1.74,29.3,2.14,18.24,3.94,21.31,3,30.14-1.26,11.94-6.21,22.1-9.88,28.44l44-5.4a97.05,97.05,0,0,0,9.06-19.32c2.43-7.29,4.69-17.56.3-55.18-1.55-13.22-2.65-19,.69-28.91a78.29,78.29,0,0,1,12.22-22Z" style="fill:#c1272d"/></g></g><g id="Cheese"><g style="isolation:isolate"><path d="M142.64,204.35a2.11,2.11,0,0,0-.26-.35q.52-5.52,1-11a3.31,3.31,0,0,1,.25.35Q143.16,198.83,142.64,204.35Z" style="fill:#f6b319"/><path d="M126.76,201.2c-2,.54-3.1,1.42-3.19,2.38l1-11c.09-1,1.16-1.85,3.19-2.39a22.17,22.17,0,0,1,13.66,1.37,6.21,6.21,0,0,1,2,1.43q-.53,5.52-1,11a6.25,6.25,0,0,0-2-1.44A22.24,22.24,0,0,0,126.76,201.2Z" style="fill:#f6b319"/><path d="M142.64,204.35a.76.76,0,0,1,0-.15l.13-1.34.15-1.63c.13-1.42.27-2.85.4-4.27l0-.55.05-.54.1-1.06.05-.52c0-.29.08-.68.09-1a1.63,1.63,0,0,1,.27,1.05l-1,11A1.74,1.74,0,0,0,142.64,204.35Z" style="fill:#f6b319"/><polygon points="325.4 234.33 324.37 245.37 176.58 170.29 177.62 159.25 325.4 234.33" style="fill:#fbc500"/><path d="M177.77,200.11c-6.49,1.73-9.93,4.53-10.22,7.63l1-11c.29-3.1,3.73-5.9,10.22-7.64,12.71-3.41,32.3-1.45,43.76,4.37,5.61,2.85,8.23,6.1,7.94,9.08l-1,11c.28-3-2.34-6.22-7.95-9.07C210.06,198.66,190.47,196.7,177.77,200.11Z" style="fill:#f6b319"/><path d="M143.94,194.36l-1,11c-.09,1-1.17,1.84-3.19,2.38a22.27,22.27,0,0,1-13.67-1.36c-1.75-.89-2.56-1.91-2.48-2.84l1-11c-.09.93.73,1.94,2.48,2.83a22.1,22.1,0,0,0,13.66,1.36C142.78,196.2,143.85,195.33,143.94,194.36Z" style="fill:#f7931e"/><path d="M230.51,202.51l-1,11c-.29,3.09-3.73,5.89-10.21,7.63-12.72,3.41-32.31,1.45-43.76-4.37-5.61-2.85-8.23-6.1-7.95-9.07l1-11c-.28,3,2.34,6.21,7.95,9.06,11.46,5.82,31.05,7.78,43.76,4.37C226.78,208.41,230.21,205.61,230.51,202.51Z" style="fill:#f7931e"/><path d="M165.81,222.72q.52-5.52,1-11a7.84,7.84,0,0,1,1.86-.73h0q-.53,5.52-1,11h0A7.74,7.74,0,0,0,165.81,222.72Z" style="fill:#f6b319"/><path d="M181.34,223.35A22.17,22.17,0,0,0,167.68,222q.52-5.52,1-11a22.17,22.17,0,0,1,13.66,1.36,6.16,6.16,0,0,1,2,1.44q-.51,5.5-1,11A6.09,6.09,0,0,0,181.34,223.35Z" style="fill:#f6b319"/><path d="M183.34,224.83l0-.05q.51-5.52,1-11l0,0Q183.86,219.31,183.34,224.83Z" style="fill:#f6b319"/><path d="M165.39,223a2,2,0,0,0-.9,1.38l1-11a2,2,0,0,1,.91-1.38q-.27,2.76-.52,5.52C165.74,219.31,165.56,221.15,165.39,223Z" style="fill:#f6b319"/><path d="M183.34,224.83a.21.21,0,0,1,0-.08v-.09l0-.16c.33-3.57.67-7.14,1-10.71a1.9,1.9,0,0,1,.49,1.36l-1,11A1.85,1.85,0,0,0,183.34,224.83Z" style="fill:#f6b319"/><polygon points="177.62 159.25 176.58 170.29 12.66 214.21 13.7 203.18 177.62 159.25" style="fill:#fbc500"/><path d="M62.82,211.33a7,7,0,0,0-3.15,4.79l1-11a7,7,0,0,1,3.15-4.79Q63.35,205.81,62.82,211.33Z" style="fill:#f6b319"/><path d="M70.79,207.82a23.93,23.93,0,0,0-8,3.51q.52-5.52,1-11a23.77,23.77,0,0,1,8-3.51c13.83-3.7,35.14-1.57,47.6,4.76,6.1,3.1,9,6.63,8.65,9.86l-1,11c.31-3.23-2.54-6.76-8.64-9.86C105.92,206.25,84.61,204.12,70.79,207.82Z" style="fill:#f6b319"/><path d="M184.86,215.15l-1,11c-.1,1-1.17,1.84-3.2,2.39A22.18,22.18,0,0,1,167,227.2c-1.75-.89-2.57-1.9-2.48-2.83l1-11c-.08.93.73,1.94,2.49,2.83a22.17,22.17,0,0,0,13.66,1.37C183.7,217,184.77,216.11,184.86,215.15Z" style="fill:#f7931e"/><ellipse cx="175.19" cy="214.24" rx="3.72" ry="9.71" transform="translate(-54.48 368.65) rotate(-84.64)" style="fill:#f7931e"/><path d="M128.07,211.4l-1,11c-.31,3.37-4,6.42-11.11,8.31-13.83,3.7-35.14,1.57-47.6-4.76-6.1-3.1-8.95-6.63-8.65-9.86l1-11c-.3,3.23,2.55,6.77,8.65,9.87,12.46,6.33,33.77,8.45,47.6,4.75C124,217.82,127.75,214.77,128.07,211.4Z" style="fill:#f7931e"/><path d="M71.82,196.78c13.83-3.7,35.14-1.57,47.6,4.76S130.78,216,117,219.71s-35.14,1.58-47.6-4.75S58,200.49,71.82,196.78Z" style="fill:#f7931e"/><path d="M139.13,239.14a.09.09,0,0,1,0,.05l1-11a.13.13,0,0,1,0-.06q-.27,2.76-.52,5.52l-.14,1.44-.06.71-.14,1.4C139.25,237.83,139.21,238.48,139.13,239.14Z" style="fill:#f6b319"/><path d="M142.31,236.81c-2,.53-3.05,1.38-3.18,2.33q.52-5.52,1-11c.13-.94,1.2-1.79,3.18-2.32A22.1,22.1,0,0,1,157,227.14c1.75.89,2.57,1.91,2.48,2.83l-1,11c.09-.93-.73-1.94-2.48-2.83A22.21,22.21,0,0,0,142.31,236.81Z" style="fill:#f6b319"/><path d="M195.89,244.59a22.58,22.58,0,0,0-3.27,1.13q.52-5.52,1-11a22.58,22.58,0,0,1,3.27-1.13c9.86-2.64,25.06-1.13,33.95,3.39a20.84,20.84,0,0,1,2.88,1.75l-.51,5.52q-.27,2.76-.52,5.52a19.51,19.51,0,0,0-2.89-1.75C221,243.47,205.75,242,195.89,244.59Z" style="fill:#f6b319"/><path d="M159.49,230l-1,11c-.09,1-1.16,1.84-3.19,2.38A22.16,22.16,0,0,1,141.61,242c-1.76-.89-2.57-1.91-2.49-2.83l1-11c-.09.93.73,1.94,2.48,2.83a22.2,22.2,0,0,0,13.67,1.37C158.33,231.82,159.4,230.94,159.49,230Z" style="fill:#f7931e"/><ellipse cx="149.83" cy="229.07" rx="3.72" ry="9.71" transform="matrix(0.09, -1, 1, 0.09, -92.23, 356.84)" style="fill:#f7931e"/><path d="M192.62,245.72c-2.92,1.3-4.49,3-4.66,4.8l1-11c.18-1.81,1.74-3.5,4.67-4.79-.17,1.84-.35,3.67-.52,5.51S192.8,243.88,192.62,245.72Z" style="fill:#f6b319"/><path d="M236,255c.16-1.72-.93-3.55-3.29-5.29q.51-5.52,1-11c2.37,1.74,3.45,3.58,3.29,5.29C236.74,247.31,236.33,251.72,236,255Z" style="fill:#f6b319"/><path d="M237.05,244l-1,11c-.23,2.4-2.9,4.57-7.93,5.92-9.86,2.64-25.07,1.12-34-3.39-4.36-2.21-6.39-4.73-6.17-7l1-11c-.21,2.31,1.82,4.83,6.17,7,8.89,4.52,24.1,6,34,3.4C234.16,248.57,236.83,246.4,237.05,244Z" style="fill:#f7931e"/><path d="M196.93,233.56c9.86-2.64,25.06-1.13,33.95,3.39s8.11,10.32-1.75,13-25.08,1.12-34-3.4S187.06,236.2,196.93,233.56Z" style="fill:#f7931e"/><path d="M13.7,203.18l163.92-43.93L325.4,234.33,161.49,278.25ZM69.36,215c12.46,6.33,33.77,8.46,47.59,4.75s14.93-11.84,2.47-18.17-33.77-8.46-47.6-4.76S56.89,208.62,69.36,215m150.93-4.82c12.71-3.4,13.72-10.88,2.27-16.7s-31.05-7.78-43.76-4.37-13.72,10.88-2.27,16.7,31.05,7.78,43.76,4.37m8.84,39.78c9.86-2.65,10.64-8.45,1.75-13s-24.09-6-33.95-3.39-10.66,8.44-1.77,13,24.1,6,34,3.4m-47.46-32.39c4-1.06,4.29-3.4.71-5.22A22.2,22.2,0,0,0,168.71,211c-4,1.06-4.28,3.4-.7,5.21a22.17,22.17,0,0,0,13.66,1.37m-40.92-20.79c4-1.06,4.29-3.39.71-5.21a22.17,22.17,0,0,0-13.66-1.37c-4,1.07-4.28,3.4-.71,5.22a22.1,22.1,0,0,0,13.66,1.36m15.56,35.62c4-1.07,4.28-3.4.7-5.22a22.1,22.1,0,0,0-13.66-1.36c-4,1.06-4.29,3.39-.71,5.21a22.2,22.2,0,0,0,13.67,1.37" style="fill:#f6b319"/><path d="M222.56,193.44c-11.46-5.82-31.05-7.78-43.76-4.37s-13.72,10.88-2.27,16.7,31.05,7.78,43.76,4.37S234,199.26,222.56,193.44Z" style="fill:#f7931e"/><polygon points="325.4 234.33 324.37 245.37 160.45 289.29 161.49 278.25 325.4 234.33" style="fill:#f6b319"/><polygon points="161.49 278.25 160.45 289.29 12.66 214.21 13.7 203.18 161.49 278.25" style="fill:#f6b319"/><path d="M178.27,154.42,1,201.91l159.79,81.18L338.07,235.6ZM13.7,203.18l163.92-43.93L325.4,234.33,161.49,278.25,13.7,203.18" style="fill:#fbc500"/><path d="M124.7,193.21a2.74,2.74,0,0,0,.79,1.1,5.56,5.56,0,0,0,1,.72c.2.12.41.24.63.35a22.1,22.1,0,0,0,13.66,1.36,8.46,8.46,0,0,0,1.32-.45c1.33-.59,2-1.39,1.87-2.23a2.89,2.89,0,0,0-1.32-1.83,8.66,8.66,0,0,0-1.16-.7,17.84,17.84,0,0,0-4.85-1.51l-1-.16a25.88,25.88,0,0,0-2.63-.21h-1a17.55,17.55,0,0,0-4.2.52C125.32,190.83,124.26,192,124.7,193.21Z" style="fill:#f7931e"/><polygon points="338.07 235.59 337.03 246.63 159.8 294.12 160.83 283.08 338.07 235.59" style="fill:#fbc500"/><polygon points="160.83 283.08 159.8 294.12 0 212.95 1.04 201.91 160.83 283.08" style="fill:#fbc500"/></g></g><g id="BreadTop"><g style="isolation:isolate"><polygon points="130.28 27.49 129.12 59.02 129.15 57.97 130.31 26.45 130.28 27.49" style="fill:#f1a463"/><path d="M243.48,30.58l-1.16,31.53c.18-4.81-2.95-9.69-9-14-16.89-11.88-52-16.22-78.21-9.68-15.95,4-25.65,11.27-25.95,19.49l1.16-31.52c.3-8.23,10-15.52,25.95-19.5,26.23-6.54,61.32-2.2,78.21,9.68C240.53,20.89,243.66,25.77,243.48,30.58Z" style="fill:#8c6239"/><path d="M252.47,30.92l-1.15,31.53a13.51,13.51,0,0,1-.24,2l1.15-31.53A11.26,11.26,0,0,0,252.47,30.92Z" style="fill:#8c6239"/><polygon points="321.42 88.75 320.27 120.28 241.8 65.12 242.95 33.59 321.42 88.75" style="fill:#8c6239"/><path d="M242.32,62.11a1.77,1.77,0,0,1,0,.23q.58-15.77,1.16-31.53c0-.08,0-.15,0-.23C243.13,40,242.67,52.65,242.32,62.11Z" style="fill:#f1a463"/><path d="M242.31,62.34a10.7,10.7,0,0,1-.33,2.09l1.16-31.53a10.7,10.7,0,0,0,.33-2.09q-.28,7.88-.58,15.76c0,1.24-.11,2.89-.15,4.13s-.1,2.83-.15,4l-.07,2-.07,1.93C242.41,59.76,242.36,61.23,242.31,62.34Z" style="fill:#f1a463"/><polygon points="243.14 32.91 241.98 64.43 241.8 65.12 242.95 33.59 243.14 32.91" style="fill:#f1a463"/><polygon points="106.2 33.49 105.04 65.02 102.83 64.54 103.99 33.01 106.2 33.49" style="fill:#8c6239"/><polygon points="130.28 27.49 129.12 59.02 105.04 65.02 106.2 33.49 130.28 27.49" style="fill:#8c6239"/><path d="M23.6,84.3l1.16-31.53c.29-7.92,9.42-15.38,25.93-19.49,16-4,35.88-4.08,53.3-.27l-1.15,31.53c-17.43-3.81-37.36-3.71-53.31.26C33,68.92,23.89,76.38,23.6,84.3Z" style="fill:#8c6239"/><path d="M24.18,88.23a11.38,11.38,0,0,1-.58-3.92l1.16-31.53a10.92,10.92,0,0,0,.58,3.92Q24.76,72.46,24.18,88.23Z" style="fill:#f1a463"/><path d="M24.18,88.23a3,3,0,0,1,0-.52v-.28L24.26,86c0-.74.06-1.48.08-2.22q.5-13.55,1-27.08c1.12,3.4,3.89,6.8,8.41,10,7,4.94,17.72,8.83,30.06,10.94l-1.16,31.52c-12.34-2.1-23-6-30.06-10.94C28.07,95,25.31,91.63,24.18,88.23Z" style="fill:#f1a463"/><polygon points="65.33 77.88 64.17 109.41 62.65 109.14 63.81 77.62 65.33 77.88" style="fill:#f1a463"/><path d="M14.61,84l1.16-31.53c-.2,5.41,3.16,11,10.42,16.11C34.05,74.09,45.83,78.47,59.48,81L58.33,112.5C44.67,110,32.89,105.62,25,100.09,17.77,95,14.41,89.39,14.61,84Z" style="fill:#8c6239"/><polygon points="321.42 88.75 320.27 120.28 142.64 164.57 143.8 133.04 321.42 88.75" style="fill:#f1a463"/><polygon points="143.8 133.04 142.64 164.57 64.17 109.41 65.33 77.88 143.8 133.04" style="fill:#f1a463"/><path d="M156.26,7c26.23-6.54,61.32-2.2,78.21,9.68,7,4.95,10.12,10.73,8.67,16.27l-.19.69,78.47,55.16L143.8,133,65.33,77.88l-1.52-.26c-12.34-2.11-23-6-30.06-10.94-16.89-11.88-9.3-26.86,16.94-33.4,16-4,35.88-4.08,53.3-.27l2.21.48,24.08-6,0-1C130.61,18.22,140.31,10.93,156.26,7Z" style="fill:#f1a463"/><polygon points="333.86 90.29 332.7 121.82 139.95 169.88 141.1 138.35 333.86 90.29" style="fill:#8c6239"/><path d="M151.39,3.53C181.8-4,222.46,1,242,14.74c7.87,5.53,11.46,12,10.2,18.17l81.63,57.38L141.11,138.35,59.48,81c-13.65-2.5-25.43-6.88-33.29-12.41C6.61,54.8,15.42,37.43,45.82,29.85c17.8-4.44,39.87-4.71,59.51-.78l16.07-4C122.5,16,133.58,8,151.39,3.53ZM243.14,32.9c1.45-5.54-1.63-11.32-8.67-16.27C217.58,4.75,182.49.41,156.26,7c-15.95,4-25.65,11.27-25.95,19.5l0,1-24.08,6L104,33c-17.42-3.81-37.35-3.71-53.3.27C24.45,39.82,16.86,54.8,33.75,66.68c7,4.94,17.72,8.83,30.06,10.94l1.52.26L143.8,133,321.42,88.75,243,33.59l.19-.69" style="fill:#8c6239"/><polygon points="141.1 138.35 139.95 169.88 58.33 112.5 59.48 80.97 141.1 138.35" style="fill:#8c6239"/></g></g></g></g></g></svg>