<?xml version="1.0" encoding="utf-8"?>
<!-- Generator: Adobe Illustrator 24.1.1, SVG Export Plug-In . SVG Version: 6.00 Build 0)  -->
<svg version="1.1" id="Layer_1" xmlns="http://www.w3.org/2000/svg" xmlns:xlink="http://www.w3.org/1999/xlink" x="0px" y="0px"
	 viewBox="0 0 232.9 232.6" style="enable-background:new 0 0 232.9 232.6;" xml:space="preserve">
<style type="text/css">
	.st0{fill:#C1272D;}
	.st1{fill:#F65656;}
	.st2{fill:#EEBF77;}
</style>
<g id="Layer_2_1_">
	<g id="Animation">
		<g>
			<path class="st0" d="M223.2,149.7l-1.3,13.8c-7.1-5.3-14.5-10.2-22.2-14.7c-9.3-5.4-23.6-12.9-87.8-38.9
				c-22.6-9.1-32.8-13.1-45.5-20.4C58,84.7,50.1,79,42.9,72.5l1.3-13.8c7.2,6.5,15.1,12.2,23.6,17c12.7,7.4,22.9,11.3,45.5,20.4
				c64.2,26,78.4,33.5,87.8,38.9C208.7,139.5,216.1,144.4,223.2,149.7z"/>
			<path class="st1" d="M213,152.4l-1.3,13.8c-19.7-16.3-41.9-27.2-58-34c-32-13.5-56.8-18.1-86.4-33.5c-18-9.3-28.6-17.9-34.5-23.4
				L34,61.5c6,5.5,16.6,14,34.6,23.4c29.7,15.4,54.5,20,86.4,33.5C171.2,125.2,193.4,136.1,213,152.4z"/>
			<path class="st2" d="M34,61.5c6,5.5,16.6,14,34.6,23.4c29.7,15.4,54.5,20,86.4,33.5c16.1,6.8,38.4,17.8,58,34l-12.9,3.5
				c-18.3-11.9-37.5-22.5-57.5-31.5c-31.1-14.3-51.2-19.8-80.9-35C47.6,82.2,34,74.1,21.1,64.9L34,61.5z"/>
			<path class="st2" d="M200.1,155.9l-1.3,13.8c-18.3-11.9-37.5-22.5-57.5-31.6c-31.1-14.3-51.2-19.8-80.9-35
				C46.3,96,32.8,87.9,19.8,78.7l1.3-13.8C34,74,47.6,82.2,61.8,89.3c29.7,15.2,49.8,20.7,80.9,35
				C162.6,133.4,181.8,143.9,200.1,155.9z"/>
			<path class="st1" d="M190,158.6l-1.3,13.8c-11.3-8.2-23.4-15.3-36-21.2c-13.2-6.3-19.8-8.3-51-20.9
				c-25.9-10.4-38.8-15.7-48.4-20.4c-12.3-6-28.9-15.4-43.7-28.4L11,67.7c14.8,13.1,31.4,22.4,43.7,28.5c9.6,4.7,22.5,10,48.4,20.4
				c31.2,12.6,37.8,14.6,50.9,20.9C171.9,146,183.4,153.7,190,158.6z"/>
			<path class="st0" d="M48.5,57.6c4.8,4.6,13,11.5,26.9,19.1c17.3,9.5,26.8,11.1,61.9,25.1c17.6,7,39.9,16.7,63.2,28.1
				c14.6,7.1,25.5,13.3,32.4,17.3l-52.6,14.1c-9.2-6.5-18.7-12.3-28.7-17.5c-18.2-9.6-27.9-12.3-64.9-28.4
				c-20.5-8.9-30.8-13.4-43.4-19.9c-14.6-7.4-28.6-15.8-42-25.2l9.7-2.6c14.8,13.1,31.4,22.4,43.7,28.5c9.6,4.7,22.5,10,48.4,20.4
				c31.2,12.6,37.8,14.6,50.9,20.9c17.9,8.6,29.4,16.3,36,21.2l33.2-8.9c-7.1-5.3-14.5-10.2-22.2-14.7c-9.3-5.4-23.6-12.9-87.8-38.9
				C90.7,87,80.4,83.1,67.8,75.7c-8.4-4.8-16.3-10.5-23.6-17L48.5,57.6z"/>
			<polygon class="st2" points="213,152.4 211.7,166.2 198.8,169.7 200.1,155.9 			"/>
			<polygon class="st1" points="223.2,149.7 221.9,163.5 188.7,172.4 190,158.6 			"/>
			<path class="st1" d="M44.2,58.8c7.2,6.5,15.1,12.2,23.6,17c12.7,7.4,22.9,11.3,45.5,20.4c64.2,26,78.4,33.5,87.8,38.9
				c7.7,4.4,15.1,9.3,22.2,14.7l-33.2,8.8c-6.6-4.9-18.1-12.6-36-21.2c-13.2-6.3-19.8-8.3-50.9-20.9c-25.9-10.5-38.8-15.7-48.4-20.4
				c-12.3-6-28.9-15.4-43.7-28.5l10.1-2.8C34,74,47.6,82.2,61.8,89.3c29.7,15.2,49.8,20.7,80.9,35c19.9,9.1,39.1,19.7,57.5,31.6
				l12.9-3.5c-19.7-16.3-41.9-27.2-58-34c-32-13.6-56.8-18.1-86.4-33.5C50.6,75.5,40,67,34,61.5L44.2,58.8z"/>
			<polygon class="st0" points="232.9,147.1 231.6,160.9 179,175 180.3,161.2 			"/>
			<path class="st0" d="M180.3,161.2L179,175c-9.2-6.5-18.8-12.3-28.7-17.5c-18.2-9.6-27.9-12.3-64.9-28.4
				c-20.5-8.9-30.8-13.4-43.4-19.9c-14.6-7.4-28.6-15.8-42-25.2l1.3-13.8c13.4,9.4,27.4,17.8,42,25.2c12.6,6.5,23,11,43.4,19.9
				c37,16.1,46.7,18.8,64.9,28.4C161.6,148.9,171.2,154.7,180.3,161.2z"/>
		</g>
	</g>
</g>
</svg>
