<?xml version="1.0" encoding="utf-8"?>
<!-- Generator: Adobe Illustrator 24.1.1, SVG Export Plug-In . SVG Version: 6.00 Build 0)  -->
<svg version="1.1" id="Layer_1" xmlns="http://www.w3.org/2000/svg" xmlns:xlink="http://www.w3.org/1999/xlink" x="0px" y="0px"
	 viewBox="0 0 198 198" style="enable-background:new 0 0 198 198;" xml:space="preserve">
<style type="text/css">
	.st0{fill:#DB1C24;}
	.st1{fill:#F36B57;}
	.st2{fill:#D3272D;}
	.st3{fill:#FFBB7D;}
</style>
<g id="Layer_2_1_">
	<g id="Animation">
		<g>
			<path class="st0" d="M181.9,120.9l-4.9,13.7c0.8-2.2,1.1-4.6,0.8-6.9c-2-21.2-40.1-48.1-84.9-60.1C53.4,57,21.7,61.5,16.1,77.2
				L21,63.5c5.6-15.7,37.3-20.2,76.8-9.7c44.8,12,82.9,39,84.9,60.1C182.9,116.3,182.7,118.6,181.9,120.9z"/>
			<path class="st1" d="M122.1,66.6l-4.9,13.7c-7.9-3.4-16.1-6.3-24.4-8.5l4.9-13.7C106.1,60.3,114.2,63.2,122.1,66.6z"/>
			<path class="st1" d="M92.8,71.8C86,69.9,79,68.6,72,67.7c1.6-4.5,1.6-4.5,4.9-13.7c7,0.9,14,2.2,20.8,4.1
				C96.3,62.2,94.3,67.7,92.8,71.8z"/>
			<path class="st2" d="M86.5,78.3c-2.4-0.7-4.4-0.4-4.7,0.6l4.8-13.7c0.3-1,2.3-1.3,4.7-0.6c2.8,0.7,5.1,2.4,5.2,3.7L91.7,82
				l4.9-13.7c0,0.1,0,0.3,0,0.4l-4.9,13.7c0-0.1,0-0.3,0-0.4C91.6,80.7,89.2,79.1,86.5,78.3z"/>
			<path class="st3" d="M96.6,68.8l-4.9,13.7c-0.3,1-2.3,1.2-4.7,0.6c-2.8-0.7-5.1-2.4-5.2-3.7c0-0.1,0-0.3,0-0.4l4.9-13.7
				c0,0.1-0.1,0.3-0.1,0.4c0.1,1.3,2.5,3,5.2,3.7C94.3,70,96.2,69.7,96.6,68.8z"/>
			<path class="st1" d="M72,67.7c-24.2-3-42.3,1.8-46.2,12.6l4.9-13.7C34.6,55.8,52.7,51.1,76.9,54C73.6,63.2,73.6,63.2,72,67.7z"/>
			<path class="st2" d="M62.5,75.6c-2.4-0.7-4.4-0.4-4.7,0.6l4.9-13.7c0.3-1,2.3-1.3,4.7-0.6c2.8,0.7,5.1,2.4,5.2,3.7
				c0,0.1,0,0.3,0,0.4l-4.9,13.7c0-0.1,0-0.3,0-0.4C67.6,78,65.3,76.4,62.5,75.6z"/>
			<path class="st3" d="M72.6,66.1l-4.9,13.7c-0.3,1-2.3,1.3-4.7,0.6c-2.8-0.7-5.1-2.4-5.2-3.7c0-0.1,0-0.3,0-0.4l4.9-13.7
				c0,0.1,0,0.3,0,0.4c0.1,1.3,2.4,3,5.2,3.7C70.3,67.3,72.2,67,72.6,66.1z"/>
			<path class="st3" d="M67.4,61.9c2.8,0.7,5.1,2.4,5.2,3.7s-2,1.8-4.8,1s-5.1-2.4-5.2-3.7S64.6,61.2,67.4,61.9z"/>
			<path class="st2" d="M50.8,82.3c-2.4-0.7-4.4-0.4-4.7,0.6L51,69.1c0.3-1,2.3-1.2,4.7-0.6c2.8,0.7,5.1,2.4,5.2,3.7
				c0,0.1,0,0.3,0,0.4L56,86.4c0.1-0.1,0.1-0.3,0-0.4C55.9,84.7,53.6,83,50.8,82.3z"/>
			<path class="st3" d="M55.7,68.6c2.8,0.7,5.1,2.4,5.2,3.7s-2,1.8-4.8,1s-5.1-2.4-5.2-3.7S52.9,67.8,55.7,68.6z"/>
			<path class="st3" d="M60.9,72.7L56,86.4c-0.3,1-2.3,1.2-4.7,0.6c-2.8-0.7-5.1-2.4-5.2-3.7c0-0.1,0-0.3,0-0.4l4.9-13.7
				c0,0.1,0,0.3,0,0.4c0.1,1.3,2.5,3,5.2,3.7C58.6,73.9,60.5,73.7,60.9,72.7z"/>
			<polygon class="st2" points="88.8,82.7 83.9,96.4 58.9,90.8 63.8,77.1 			"/>
			<polygon class="st1" points="73.2,84.1 68.3,97.8 58.9,90.8 63.8,77.1 			"/>
			<path class="st2" d="M97.7,58.1c8.3,2.2,16.5,5.1,24.4,8.5l-15,17.7l-7-8.7l-11.3,7.1l-25-5.6l9.4,7L30,72.6
				C28.3,54.2,58.8,47.7,97.7,58.1z M67.8,66.6c2.8,0.7,4.9,0.3,4.8-1s-2.5-3-5.2-3.7s-4.9-0.3-4.8,1S65.1,65.9,67.8,66.6
				 M91.8,69.4c2.8,0.7,4.9,0.3,4.8-1s-2.5-3-5.2-3.7s-4.9-0.3-4.8,1S89.1,68.7,91.8,69.4 M56.2,73.3c2.8,0.7,4.9,0.3,4.8-1
				s-2.5-3-5.2-3.7s-4.9-0.3-4.8,1S53.4,72.6,56.2,73.3"/>
			<path class="st2" d="M130.4,100c-0.2,0.1-0.4,0.3-0.5,0.6l4.9-13.7c0.1-0.2,0.3-0.5,0.5-0.6c1.4-0.5,2.9-0.5,4.2,0
				c0.9,0.2,1.7,0.6,2.5,1c2,1,3,2.3,2.6,3.2l-4.9,13.7c0.3-0.9-0.7-2.1-2.6-3.2c-0.8-0.4-1.7-0.8-2.5-1
				C132.9,99.6,131.2,99.5,130.4,100z"/>
			<path class="st3" d="M144.6,90.4l-4.9,13.7c-0.1,0.2-0.3,0.4-0.5,0.6c-0.9,0.5-2.5,0.5-4.2,0c-0.9-0.2-1.7-0.6-2.5-1
				c-1.9-1-3-2.3-2.6-3.2l4.9-13.7c-0.3,0.8,0.7,2.1,2.6,3.1c0.8,0.4,1.7,0.8,2.5,1c1.7,0.5,3.4,0.5,4.2,0
				C144.4,90.9,144.5,90.7,144.6,90.4z"/>
			<path class="st1" d="M168,130.9c4.3-12.1-9.9-30.1-37.4-44.6l4.9-13.7c27.5,14.5,41.7,32.5,37.4,44.6
				C171.4,121.3,169.4,126.8,168,130.9z"/>
			<polygon class="st1" points="135.4,72.6 130.6,86.3 110.7,98.2 115.5,84.4 			"/>
			<polygon class="st2" points="128.3,86.5 123.4,100.2 110.7,98.2 115.5,84.4 			"/>
			<path class="st2" d="M143.4,113.4l4.9-13.7c0.9-0.5,2.5-0.5,4.2,0c0.9,0.2,1.7,0.6,2.5,1c2,1,3,2.3,2.6,3.1l-4.9,13.7
				c0.3-0.9-0.7-2.1-2.6-3.2c-0.8-0.4-1.7-0.8-2.5-1C145.9,112.9,144.3,112.9,143.4,113.4z"/>
			<path class="st2" d="M143.4,113.4c-0.2,0.1-0.4,0.3-0.5,0.6l4.9-13.7c0.1-0.2,0.3-0.5,0.5-0.6L143.4,113.4z"/>
			<path class="st3" d="M157.7,103.8l-4.9,13.8c-0.1,0.2-0.3,0.4-0.5,0.6c-0.9,0.5-2.5,0.5-4.2,0c-0.9-0.2-1.7-0.6-2.5-1
				c-1.9-1-3-2.3-2.6-3.1l4.9-13.7c-0.3,0.8,0.7,2.1,2.6,3.1c0.8,0.4,1.6,0.8,2.5,1c1.7,0.5,3.4,0.5,4.2,0
				C157.4,104.3,157.6,104.1,157.7,103.8z"/>
			<polygon class="st2" points="122.1,66.6 117.2,80.3 102.2,98 107.1,84.3 			"/>
			<polygon class="st2" points="132.8,108.2 127.9,121.9 114,108.2 118.8,94.5 			"/>
			<polygon class="st1" points="128.3,86.5 123.4,100.2 114,108.2 118.8,94.5 			"/>
			<path class="st2" d="M139.3,123.9c-0.2,0.1-0.4,0.3-0.5,0.6l4.9-13.7c0.1-0.2,0.3-0.5,0.5-0.6c0.9-0.5,2.5-0.5,4.2,0
				c0.9,0.2,1.7,0.6,2.5,1c1.9,1,2.9,2.3,2.6,3.1l-4.9,13.7c0.3-0.9-0.7-2.1-2.6-3.1c-0.8-0.4-1.6-0.8-2.5-1
				C141.8,123.4,140.2,123.4,139.3,123.9z"/>
			<polygon class="st2" points="107.1,84.3 102.2,98 95.2,89.3 100,75.6 			"/>
			<polygon class="st2" points="100,75.6 95.2,89.3 83.9,96.4 88.8,82.7 			"/>
			<path class="st2" d="M25.9,80.3l4.9-13.7c-0.7,1.9-0.9,4-0.7,6l-4.9,13.7C24.9,84.3,25.2,82.2,25.9,80.3z"/>
			<polygon class="st2" points="73.2,84.1 68.3,97.8 25.2,86.3 30,72.6 			"/>
			<path class="st3" d="M153.6,114.3l-4.9,13.7c-0.1,0.2-0.3,0.5-0.5,0.6c-0.9,0.5-2.5,0.5-4.2,0c-0.9-0.2-1.7-0.6-2.5-1
				c-2-1-3-2.3-2.6-3.1l4.9-13.7c-0.3,0.8,0.7,2.1,2.6,3.1c0.8,0.4,1.6,0.8,2.5,1c1.7,0.5,3.4,0.5,4.2,0
				C153.4,114.8,153.5,114.5,153.6,114.3z"/>
			<polygon class="st1" points="81.7,89.3 76.8,103 27.7,93.8 32.6,80.1 			"/>
			<polygon class="st2" points="81.7,89.3 76.8,103 67.8,106.5 72.7,92.8 			"/>
			<polygon class="st1" points="113.5,113 108.6,126.7 93,113 97.9,99.3 			"/>
			<polygon class="st1" points="116.8,108 111.9,121.7 108.6,126.7 113.5,113 			"/>
			<path class="st2" d="M57.7,108.1c-1.3,0-2.1,0.4-2.3,0.9l4.9-13.7c0.2-0.6,1-0.9,2.2-0.9C60.9,98.9,59.3,103.5,57.7,108.1z"/>
			<path class="st2" d="M57.7,108.1c1.6-4.6,3.3-9.1,4.9-13.7c0.8,0,1.7,0.1,2.5,0.4c1.7,0.4,3.2,1.2,4.4,2.3
				c0.7,0.7,0.9,1.3,0.7,1.8l-4.9,13.8c0.2-0.5-0.1-1.1-0.7-1.8c-1.3-1.1-2.8-1.9-4.4-2.3C59.3,108.2,58.5,108.1,57.7,108.1z"/>
			<path class="st3" d="M70.2,98.8l-4.9,13.8c-0.2,0.6-1,0.9-2.3,1c-0.8,0-1.7-0.1-2.5-0.3c-1.7-0.4-3.2-1.2-4.5-2.3
				c-0.7-0.7-0.9-1.3-0.7-1.8l4.9-13.7c-0.2,0.5,0,1.1,0.7,1.8c1.3,1.1,2.8,1.9,4.4,2.3c0.8,0.2,1.6,0.3,2.5,0.4
				C69.2,99.8,70,99.4,70.2,98.8z"/>
			<polygon class="st1" points="140,131.5 135.1,145.2 111.9,121.7 116.8,108 			"/>
			<path class="st2" d="M102.3,128c-1.3,0-2,0.4-2.3,1l4.9-13.7c0.2-0.6,1-0.9,2.3-1L102.3,128l4.9-13.7c0.8,0,1.7,0.1,2.5,0.4
				c1.7,0.4,3.2,1.2,4.4,2.3c0.7,0.7,0.9,1.3,0.7,1.8l-4.9,13.7c0.2-0.5-0.1-1.1-0.7-1.8c-1.3-1.1-2.8-1.9-4.5-2.3
				C104,128.1,103.1,128,102.3,128z"/>
			<path class="st2" d="M77.6,121.2c-1.3,0-2,0.4-2.3,0.9l4.9-13.7c0.2-0.6,1-0.9,2.3-0.9L77.6,121.2z"/>
			<path class="st2" d="M77.6,121.2l4.9-13.7c0.8,0,1.7,0.1,2.5,0.3c1.7,0.4,3.2,1.2,4.4,2.3c0.7,0.7,0.9,1.3,0.7,1.8l-4.9,13.7
				c0.2-0.5-0.1-1.1-0.7-1.8c-1.3-1.1-2.8-2-4.4-2.4C79.3,121.4,78.4,121.2,77.6,121.2z"/>
			<path class="st3" d="M114.8,118.8l-4.9,13.7c-0.2,0.6-1,0.9-2.3,0.9c-0.8,0-1.7-0.1-2.5-0.4c-1.6-0.4-3.2-1.2-4.4-2.3
				c-0.7-0.7-0.9-1.3-0.7-1.8l4.9-13.7c-0.2,0.5,0.1,1.1,0.7,1.8c1.3,1.1,2.8,1.9,4.4,2.3c0.8,0.2,1.6,0.3,2.5,0.3
				C113.9,119.7,114.6,119.4,114.8,118.8z"/>
			<path class="st3" d="M109.7,114.7c1.7,0.4,3.2,1.2,4.4,2.3c1.5,1.5,0.8,2.7-1.5,2.7c-0.8,0-1.7-0.1-2.5-0.3
				c-1.7-0.4-3.2-1.2-4.4-2.3c-1.5-1.5-0.8-2.7,1.5-2.7C108,114.3,108.9,114.4,109.7,114.7z"/>
			<path class="st3" d="M90.1,112l-4.9,13.7c-0.2,0.6-1,0.9-2.3,1c-0.8,0-1.7-0.1-2.5-0.4c-1.7-0.4-3.2-1.2-4.4-2.3
				c-0.7-0.7-0.9-1.3-0.7-1.8l4.9-13.7c-0.2,0.5,0.1,1.1,0.7,1.8c1.3,1.1,2.8,1.9,4.4,2.3c0.8,0.2,1.6,0.3,2.5,0.3
				C89.1,113,89.9,112.6,90.1,112z"/>
			<path class="st2" d="M116.8,108l23.3,23.4c-11.7-0.1-23.4-1.8-34.7-5c-24.6-6.6-49.2-19-63.2-33.2c-3.9-3.8-7.2-8.2-9.5-13.1
				l49.1,9.1l-9,3.5l25.2,6.6l15.6,13.6L116.8,108z M112.6,119.7c2.3,0,3-1.2,1.5-2.7c-1.3-1.1-2.8-1.9-4.4-2.3
				c-0.8-0.2-1.6-0.3-2.5-0.4c-2.3,0-3,1.2-1.5,2.7c1.3,1.1,2.8,1.9,4.4,2.3C110.9,119.6,111.8,119.7,112.6,119.7 M87.9,113
				c2.3,0,3-1.2,1.5-2.7c-1.3-1.1-2.8-1.9-4.4-2.3c-0.8-0.2-1.6-0.3-2.5-0.3c-2.3,0-3,1.2-1.5,2.7c1.3,1.1,2.8,1.9,4.4,2.3
				C86.2,112.8,87,112.9,87.9,113 M67.9,99.8c2.3,0,3-1.2,1.5-2.7c-1.3-1.1-2.8-1.9-4.4-2.3c-0.8-0.2-1.6-0.3-2.4-0.4
				c-2.3,0-3,1.2-1.5,2.7c1.3,1.1,2.8,1.9,4.4,2.3C66.3,99.7,67.2,99.8,67.9,99.8"/>
			<path class="st1" d="M72.7,92.8l-4.9,13.7l12,3.1l0.4-1.1c0.2-0.6,1-0.9,2.3-0.9l-0.9,2.5l0,0l0.9-2.5c0.8,0,1.7,0.1,2.5,0.3
				c1.7,0.4,3.2,1.2,4.4,2.3c0.7,0.7,0.9,1.3,0.7,1.8l0,0l-0.1,0.2l3,0.8l4.9-13.7L72.7,92.8z"/>
			<path class="st2" d="M172.8,117.2l-4.9,13.7c-1.4,3.4-3.9,6.3-7.1,8c-3.8,2.3-8.9,3.8-14.9,4.7l4.9-13.7
				c6.1-0.8,11.1-2.4,14.9-4.7C169,123.4,171.5,120.6,172.8,117.2z"/>
			<path class="st1" d="M177,134.6c-3.6,10.1-18.1,15.6-38.6,15.4c0.8-2.3,1.6-4.6,2.4-6.9l0.6-1.8l0.6-1.8l0.6-1.7l0.6-1.6
				c20.4,0.2,34.9-5.2,38.6-15.4L177,134.6z"/>
			<path class="st2" d="M140,131.5l-4.9,13.7c-11.7-0.1-23.4-1.8-34.7-5c-24.6-6.6-49.2-19-63.2-33.2c-3.9-3.8-7.1-8.2-9.4-13.2
				l4.9-13.7c2.3,4.9,5.5,9.4,9.4,13.2c14.1,14.2,38.7,26.6,63.3,33.2C116.6,129.6,128.3,131.3,140,131.5z"/>
			<path class="st1" d="M15.3,84.1c-0.3-2.3,0-4.7,0.8-6.9L21,63.5c-0.8,2.2-1,4.6-0.8,6.9c1.5,15.9,23.3,35,53,48.6l-4.9,13.7
				C38.6,119.1,16.8,99.9,15.3,84.1z"/>
			<path class="st1" d="M100.2,144.2c-10.9-2.9-21.6-6.8-31.9-11.5c0.8-2.3,1.6-4.6,2.4-6.9l0.6-1.8l0.6-1.8l0.6-1.7l0.6-1.6
				c10.3,4.7,20.9,8.5,31.9,11.5c12.5,3.5,25.3,5.4,38.3,5.7c-1.6,4.6-3.3,9.1-4.9,13.7C125.5,149.6,112.7,147.7,100.2,144.2z"/>
			<path class="st0" d="M197,126.2l-4.9,13.7c-6.6,18.6-44.3,24-91.2,11.4C47.7,137.1,2.5,105.1,0.1,80c-0.3-2.8,0.1-5.6,1-8.2
				L6,58.1c-0.9,2.6-1.3,5.5-1,8.2c2.4,25.1,47.6,57.1,100.8,71.4C152.6,150.2,190.3,144.9,197,126.2z"/>
			<path class="st0" d="M97.1,46.6c53.2,14.3,98.4,46.3,100.8,71.4s-38.9,33.9-92.2,19.7S7.4,91.4,5,66.3S43.9,32.4,97.1,46.6z
				 M105.1,130.5c44.8,12,79.6,4.6,77.6-16.6s-40.1-48.1-84.9-60.1s-79.6-4.6-77.6,16.6S60.3,118.5,105.1,130.5"/>
			<path class="st3" d="M150.4,103.4c0.8,0.4,1.6,0.8,2.5,1c1.7,0.5,3.4,0.5,4.2,0c1.3-0.8,0.3-2.4-2.1-3.7c-0.8-0.4-1.7-0.8-2.5-1
				c-1.7-0.5-3.4-0.5-4.2,0C147,100.5,148,102.2,150.4,103.4z"/>
			<path class="st2" d="M150.8,129.9l-34-26.8l-3.5,9.7l0.2,0.2l3.3-4.9l23.3,23.4l-1.6,4.6l2.7,0.1h0.2h2h4.8h0.4L150.8,129.9z"/>
			<polygon class="st1" points="113.3,112.8 113.5,113 116.8,108 128.6,119.9 132.8,108.2 116.7,103.1 			"/>
			<path class="st2" d="M135.4,72.6l-19.9,11.8l12.8,2.1l-9.5,8l13.9,13.7l-16-5.1l34,26.8c6.1-0.8,11.1-2.4,14.9-4.7
				C183.6,114.6,170,90.8,135.4,72.6z M139.9,91c-0.9-0.2-1.7-0.6-2.5-1c-2.4-1.3-3.4-3-2.1-3.7c1.4-0.5,2.9-0.5,4.2,0
				c0.9,0.2,1.7,0.6,2.5,1c2.4,1.3,3.4,3,2.1,3.7C143.3,91.5,141.6,91.5,139.9,91 M153.1,114.9c-0.9,0.5-2.5,0.5-4.2,0
				c-0.9-0.2-1.7-0.6-2.5-1c-2.5-1.3-3.4-3-2.1-3.7c0.9-0.5,2.5-0.5,4.2,0c0.9,0.2,1.7,0.6,2.5,1
				C153.5,112.5,154.4,114.2,153.1,114.9 M157.7,103.7c0,0.1-0.1,0.3-0.2,0.4c-0.1,0.1-0.2,0.2-0.4,0.3c-0.1,0.1-0.2,0.1-0.4,0.2
				c-0.2,0.1-0.4,0.1-0.6,0.2h-0.3h-0.5h-0.6l-0.6-0.1l-0.6-0.1c-0.2,0-0.4-0.1-0.6-0.2c-0.8-0.2-1.5-0.5-2.2-0.8l-0.3-0.2
				c-2.3-1.2-3.3-2.8-2.4-3.6l0.2-0.2c0.6-0.3,1.2-0.4,1.8-0.4c0.4,0,0.8,0,1.2,0.1l0.6,0.1l0.3,0.1l0.3,0.1
				c0.4,0.1,0.9,0.3,1.3,0.4l0.6,0.3c0.2,0.1,0.4,0.2,0.6,0.3c1.6,0.8,2.6,1.9,2.7,2.7C157.7,103.5,157.7,103.6,157.7,103.7"/>
			<path class="st3" d="M137.4,90c0.8,0.4,1.7,0.8,2.5,1c1.7,0.5,3.4,0.5,4.2,0c1.3-0.8,0.3-2.4-2.1-3.7c-0.8-0.4-1.6-0.8-2.5-1
				c-1.4-0.5-2.9-0.5-4.2,0C134,87.1,134.9,88.7,137.4,90z"/>
			<path class="st3" d="M148.5,110.2c0.9,0.2,1.7,0.6,2.5,1c2.5,1.3,3.4,3,2.1,3.7c-0.9,0.5-2.5,0.5-4.2,0c-0.9-0.2-1.7-0.6-2.5-1
				c-2.5-1.3-3.4-3-2.1-3.7C145.1,109.7,146.7,109.7,148.5,110.2z"/>
			<path class="st3" d="M65,94.7c1.7,0.4,3.2,1.2,4.4,2.3c1.5,1.5,0.8,2.7-1.5,2.7c-0.8,0-1.7-0.1-2.5-0.4c-1.7-0.4-3.2-1.2-4.4-2.3
				c-1.5-1.5-0.8-2.7,1.5-2.7C63.4,94.4,64.2,94.5,65,94.7z"/>
			<path class="st3" d="M84.9,107.9c1.7,0.4,3.2,1.2,4.4,2.3c1.5,1.5,0.8,2.7-1.5,2.7c-0.8,0-1.7-0.1-2.5-0.3
				c-1.7-0.4-3.2-1.2-4.4-2.3c-1.5-1.5-0.8-2.7,1.5-2.7C83.3,107.5,84.1,107.7,84.9,107.9z"/>
			<path class="st1" d="M97.8,53.8c44.8,12,82.9,39,84.9,60.1s-32.8,28.6-77.6,16.6s-82.9-39-84.9-60.1S53,41.8,97.8,53.8z
				 M150.8,129.9c6.1-0.8,11.1-2.4,14.9-4.7c17.9-10.6,4.3-34.4-30.3-52.6l-19.9,11.8l12.8,2.1l-9.5,8l13.9,13.7l-16-5.1
				L150.8,129.9 M105.3,126.5c11.3,3.2,23,4.9,34.7,5L116.8,108l-3.3,4.9L97.9,99.3l-25.2-6.6l9-3.5l-49.1-9.1
				c2.3,4.9,5.5,9.4,9.4,13.2C56.1,107.5,80.7,119.9,105.3,126.5 M97.7,58.1C58.8,47.7,28.3,54.2,30,72.6l43.2,11.5l-9.4-7l25,5.6
				l11.3-7.1l7,8.7l15-17.7C114.1,63.1,106,60.3,97.7,58.1"/>
			<path class="st3" d="M91.8,69.4c2.8,0.7,4.9,0.3,4.8-1s-2.5-3-5.2-3.7s-4.9-0.3-4.8,1S89,68.6,91.8,69.4z"/>
		</g>
	</g>
</g>
</svg>
